<?xml version="1.0" encoding="UTF-8"?>
<svg width="95px" height="95px" viewBox="0 0 95 95" version="1.1" xmlns="http://www.w3.org/2000/svg" xmlns:xlink="http://www.w3.org/1999/xlink">
    <!-- Generator: Sketch 61.2 (89653) - https://sketch.com -->
    <title>joystick</title>
    <desc>Created with Sketch.</desc>
    <g id="Web-Kit" stroke="none" stroke-width="1" fill="none" fill-rule="evenodd">
        <g id="Anny_partner_landing" transform="translate(-1070.000000, -721.000000)" fill-rule="nonzero">
            <g id="Key-Features" transform="translate(151.000000, 640.000000)">
                <g id="Card3" transform="translate(812.000000, 43.000000)">
                    <g id="joystick" transform="translate(107.000000, 38.000000)">
                        <path d="M24.799267,45 C23.92051,45 23.041753,45.048002 22.1678294,45.1423184 C11.9977088,46.2446764 2.28750883,55.998829 1.15815641,66.2600025 C-0.343928776,79.4266085 9.02216726,91.3277248 22.075994,92.8427873 C27.3974282,93.4602503 32.7681264,92.2476377 37.3217868,89.4031453 C39.6280825,87.8897704 42.2593342,86.9569194 44.9971075,86.6833456 C45.6568724,86.6240931 46.3263042,86.5954044 47.005217,86.5954044 C47.6491802,86.5954044 48.28831,86.6177179 48.9213051,86.6642198 C51.7001627,86.9282307 54.3743577,87.8704571 56.7122566,89.4095206 C67.8944257,96.3703704 82.5533271,92.8699759 89.4545534,81.5911979 C92.2603667,77.0060711 93.4547847,71.6019105 92.8440978,66.2504397 C91.7164185,55.9971414 82.0045455,46.2446764 71.834239,45.1423184 C70.9634757,45.048002 70.087879,45 69.2107951,45 L24.799267,45 L24.799267,45 Z" id="Path" fill="#FFD33F"></path>
                        <circle id="Oval" fill="#EA3836" cx="58.5" cy="69.5" r="4.5"></circle>
                        <path d="M88.4096822,56 C69.4323877,77.7825586 26.6926346,85.8890567 10,88.2967232 C17.8031031,95.0531793 28.9693482,95.8880364 37.6476554,90.3654123 C39.9402616,88.8378378 42.555895,87.8962341 45.2774178,87.6202827 C45.9364081,87.5669094 46.6050079,87.5394656 47.2782277,87.5394656 C47.9183686,87.5394656 48.5537047,87.5619884 49.1829425,87.6089266 C51.9453057,87.8754147 54.6036275,88.8264817 56.9276493,90.3799859 C68.0434446,97.4061476 82.6153353,93.8729098 89.4755981,82.4883059 C92.264757,77.8601581 93.4520852,72.4052917 92.8450232,67.0036093 C92.3371978,63.0004214 90.8063297,59.2056165 88.4096822,56 Z" id="Path" fill="#FFAC3E"></path>
                        <polygon id="Path" fill="#383856" points="21.8570771 59 28.1427387 59 28.1427387 66.8570771 36 66.8570771 36 73.1429229 28.1427387 73.1429229 28.1427387 81 21.8570771 81 21.8570771 73.1429229 14 73.1429229 14 66.8570771 21.8570771 66.8570771"></polygon>
                        <g id="Group" transform="translate(64.000000, 55.000000)" fill="#91CECE">
                            <ellipse id="Oval" cx="4.98358491" cy="4.90511613" rx="4.82943396" ry="4.78892903"></ellipse>
                            <ellipse id="Oval" cx="4.98358491" cy="24.0610194" rx="4.82943396" ry="4.78892903"></ellipse>
                        </g>
                        <circle id="Oval" fill="#EA3836" cx="80.5" cy="69.5" r="4.5"></circle>
                        <polyline id="Path" fill="#874D1B" points="44 46 44 40 50 40 50 46"></polyline>
                        <path d="M60.6577998,66 C61.1277398,66.756775 61.3773361,67.6288518 61.3805653,68.5185943 C61.3805653,71.2041577 59.2039111,73.3806456 56.5185669,73.3806456 C55.6288341,73.3774164 54.7569567,73.1278174 54,72.6578723 C55.3839866,74.9494721 58.3660351,75.6853522 60.6577998,74.3011606 C62.9495646,72.916969 63.6852467,69.935078 62.3012602,67.6432883 C61.8960936,66.9706627 61.3304181,66.4066906 60.6577998,66 Z" id="Path" fill="#D62121"></path>
                        <path d="M72.6578723,56 C73.1278174,56.756775 73.3774164,57.6288518 73.3806456,58.5185943 C73.3806456,61.2041577 71.2039678,63.3806456 68.5185943,63.3806456 C67.6288518,63.3774164 66.7569649,63.1278174 66,62.6578723 C67.3840016,64.9494721 70.3660826,65.6853522 72.6578723,64.3011606 C74.9494721,62.9171589 75.6853522,59.935078 74.3011606,57.6432883 C73.8959896,56.9708527 73.3304979,56.4068805 72.6578723,56 Z" id="Path" fill="#83B2B7"></path>
                        <path d="M83.6578399,66 C84.1277827,66.756775 84.3773805,67.6288518 84.3806097,68.5185943 C84.3806097,71.2041577 82.2039424,73.3806456 79.518582,73.3806456 C78.6288438,73.3774164 77.7569613,73.1278174 77,72.6578723 C78.3839949,74.9494721 81.3660613,75.6853522 83.6578399,74.3011606 C85.9496184,72.916969 86.685305,69.935078 85.3011201,67.6432883 C84.8961411,66.9706627 84.3304622,66.4066906 83.6578399,66 Z" id="Path" fill="#D62121"></path>
                        <path d="M72.6578723,75 C73.1278174,75.756775 73.3774164,76.6288518 73.3806456,77.5185943 C73.3806456,80.2041577 71.2039678,82.3806456 68.5185943,82.3806456 C67.6288518,82.3774164 66.7569649,82.1278174 66,81.6578723 C67.3840016,83.9494721 70.3660826,84.6853522 72.6578723,83.3011606 C74.9494721,81.9171589 75.6853522,78.935078 74.3011606,76.6432883 C73.8959896,75.9708527 73.3304979,75.4066906 72.6578723,75 Z" id="Path" fill="#83B2B7"></path>
                        <path d="M14,71.7024014 L14,73.2222222 L21.8571429,73.2222222 L21.8571429,81 L28.1428571,81 L28.1428571,73.2222222 L36,73.2222222 L36,67 L33.3772688,67 C27.1701996,71.2839767 17.7055288,71.7131583 14,71.7024014 Z" id="Path" fill="#202033"></path>
                        <path d="M44,45.5845226 L44,46 L50,46 L50,41 C48.5704993,43.1751463 46.4555204,44.7915656 44,45.5845226 Z" id="Path" fill="#6B3713"></path>
                        <path d="M36.4376831,64.8125 L30.1876831,64.8125 L30.1876831,58.5625 C30.1876831,57.6999385 29.4877446,57 28.6251831,57 L22.3751831,57 C21.5126216,57 20.8126831,57.6999385 20.8126831,58.5625 L20.8126831,64.8125 L14.5625,64.8125 C13.6999385,64.8125 13,65.5124385 13,66.375 L13,72.625 C13,73.4875615 13.6999385,74.1875 14.5625,74.1875 L20.8125,74.1875 L20.8125,80.4375 C20.8125,81.3000615 21.5124385,82 22.375,82 L28.625,82 C29.4875615,82 30.1875,81.3000615 30.1875,80.4375 L30.1875,74.1876831 L36.4375,74.1876831 C37.3000615,74.1876831 38,73.4877447 38,72.6251831 L38,66.3751831 C38,65.5126216 37.3000615,64.8125 36.4376831,64.8125 Z M34.8751831,71.0626831 L28.6251831,71.0626831 C27.7626216,71.0626831 27.0626831,71.7626216 27.0626831,72.6251831 L27.0626831,78.8751831 L23.9376831,78.8751831 L23.9376831,72.6251831 C23.9376831,71.7626216 23.2377447,71.0626831 22.3751831,71.0626831 L16.125,71.0626831 L16.125,67.9376831 L22.375,67.9376831 C23.2375615,67.9376831 23.9375,67.2377447 23.9375,66.3751831 L23.9375,60.1251831 L27.0625,60.1251831 L27.0625,66.3751831 C27.0625,67.2377447 27.7624384,67.9376831 28.625,67.9376831 L34.8751831,67.9376831 L34.8751831,71.0626831 L34.8751831,71.0626831 Z" id="Shape" fill="#000000"></path>
                        <path d="M69.5,67 C73.0895892,67 76,64.0895892 76,60.5 C76,56.9104108 73.0895892,54 69.5,54 C65.9104108,54 63,56.9104108 63,60.5 C63,64.0895892 65.9104108,67 69.5,67 Z M69.5,57.25 C71.2956517,57.25 72.75,58.7043483 72.75,60.5 C72.75,62.2956517 71.2956517,63.75 69.5,63.75 C67.7043483,63.75 66.25,62.2956517 66.25,60.5 C66.25,58.7043483 67.7060625,57.25 69.5,57.25 Z" id="Shape" fill="#000000"></path>
                        <path d="M69.5,73 C65.9104108,73 63,75.9104108 63,79.5 C63,83.0895892 65.9104108,86 69.5,86 C73.0895892,86 76,83.0895892 76,79.5 C76,75.9102203 73.0895892,73 69.5,73 Z M69.5,82.75 C67.7043483,82.75 66.25,81.2956517 66.25,79.5 C66.25,77.7043483 67.7043483,76.25 69.5,76.25 C71.2956517,76.25 72.75,77.7043483 72.75,79.5 C72.75,81.2956517 71.2956517,82.75 69.5,82.75 Z" id="Shape" fill="#000000"></path>
                        <path d="M58.5,63 C54.9104108,63 52,65.9104108 52,69.5 C52,73.0895892 54.9104108,76 58.5,76 C62.0895892,76 65,73.0895892 65,69.5 C65,65.9104108 62.0895892,63 58.5,63 Z M58.5,72.7501905 C56.7043483,72.7501905 55.25,71.2958421 55.25,69.5001905 C55.25,67.7045388 56.7043483,66.2501905 58.5,66.2501905 C60.2956517,66.2501905 61.75,67.7045388 61.75,69.5001905 C61.75,71.2958421 60.2954612,72.7501905 58.5,72.7501905 Z" id="Shape" fill="#000000"></path>
                        <path d="M80.5,63 C76.9104108,63 74,65.9104108 74,69.5 C74,73.0895892 76.9104108,76 80.5,76 C84.0895892,76 87,73.0895892 87,69.5 C87,65.9104108 84.0897797,63 80.5,63 Z M80.5,72.7501905 C78.7043483,72.7501905 77.25,71.2958421 77.25,69.5001905 C77.25,67.7045388 78.7043483,66.2501905 80.5,66.2501905 C82.2956517,66.2501905 83.75,67.7045388 83.75,69.5001905 C83.75,71.2958421 82.2956517,72.7501905 80.5,72.7501905 Z" id="Shape" fill="#000000"></path>
                        <path d="M72.455839,44.491047 C71.528101,44.3880546 70.5957244,44.3359089 69.6631622,44.3327542 L52.2489641,44.3327542 L52.2489641,37.9995566 L49.0829656,37.9995566 L49.0829656,34.8329578 C49.0829656,31.3354844 46.2476129,28.4997603 42.7505974,28.4997603 L34.8351372,28.4997603 C33.0857945,28.4997603 31.6689531,27.0827333 31.6689531,25.3331615 C31.6689531,23.5835897 33.0857945,22.1665627 34.8351372,22.1665627 L60.1647955,22.1665627 C63.6618109,22.1665627 66.4971636,19.3308386 66.4971636,15.8333651 C66.4971636,12.3358916 63.6618109,9.50016752 60.1647955,9.50016752 L52.2493352,9.50016752 C50.5,9.50016752 49.0831511,8.08314054 49.0831511,6.33356873 L49.0831511,0 L45.916967,0 L45.916967,6.33319758 C45.916967,9.83067106 48.7523198,12.6663952 52.2493352,12.6663952 L60.1647955,12.6663952 C61.9141382,12.6663952 63.3309796,14.0834221 63.3309796,15.832994 C63.3309796,17.5825658 61.9141382,18.9995927 60.1647955,18.9995927 L34.8351372,18.9995927 C31.3381217,18.9995927 28.502769,21.8353169 28.502769,25.3327903 C28.502769,28.8302638 31.3381217,31.6659879 34.8351372,31.6659879 L42.7505974,31.6659879 C44.4999401,31.6659879 45.9167815,33.0830149 45.9167815,34.8325867 L45.9167815,37.9991855 L42.7505974,37.9991855 L42.7505974,44.3323831 L25.3363994,44.3323831 C24.4023528,44.3340532 23.4683062,44.3878691 22.5405683,44.4906759 C11.6173816,45.662748 1.37775222,55.8703156 0.166683093,66.7808295 C-1.4243875,80.680721 8.55399085,93.2394845 22.4520621,94.8290933 C28.1116347,95.4767392 33.8250161,94.1974066 38.6678082,91.1985648 C40.7528065,89.8336835 43.1369075,88.9913727 45.6160089,88.7428919 C46.8413651,88.6463945 48.0713601,88.6415697 49.2967164,88.730273 C51.815525,88.9741145 54.2376632,89.8258895 56.3542046,91.2128538 C68.2542993,98.5689237 83.8621916,94.8829092 91.2172981,82.9812558 C94.2094385,78.1378293 95.4837794,72.4285245 94.8347339,66.7728499 C93.6205105,55.862336 83.3745725,45.6547684 72.455839,44.491047 Z M45.9167815,41.1659699 L49.0829656,41.1659699 L49.0829656,44.3325686 L45.9167815,44.3325686 L45.9167815,41.1659699 L45.9167815,41.1659699 Z M86.1830209,84.4443046 C79.0258936,92.4511751 67.157342,94.1690141 58.0228341,88.5213191 C55.4724824,86.8604506 52.5547466,85.8470425 49.5230845,85.5716538 C48.8549276,85.5226628 48.1806477,85.4989096 47.4998735,85.4989096 C46.7795778,85.4989096 46.0750536,85.5289723 45.3658907,85.5844583 C42.3802444,85.8709813 39.5083388,86.8732551 36.9943545,88.5072156 C26.5855057,94.9480449 12.9264198,91.730785 6.48476411,81.3205729 C3.8631622,77.0821108 2.74542351,72.0852165 3.31375578,67.1324882 C4.35541996,57.7560971 13.4962365,48.6489709 22.8808625,47.6403876 C23.6961587,47.5485296 24.516279,47.5026933 25.3362138,47.4995386 L69.6631622,47.4995386 C70.4832825,47.4995386 71.3032173,47.5438903 72.1185135,47.6309235 C81.5016551,48.6395067 90.6408017,57.746633 91.6856202,67.123024 C92.4330059,73.419664 90.4272365,79.7322631 86.1830209,84.4443046 Z" id="Shape" fill="#000000"></path>
                    </g>
                </g>
            </g>
        </g>
    </g>
</svg>