<?xml version="1.0" encoding="UTF-8"?>
<svg width="79px" height="58px" viewBox="0 0 79 58" version="1.1" xmlns="http://www.w3.org/2000/svg" xmlns:xlink="http://www.w3.org/1999/xlink">
    <!-- Generator: Sketch 61.2 (89653) - https://sketch.com -->
    <title>Signals</title>
    <desc>Created with Sketch.</desc>
    <g id="Web-Kit" stroke="none" stroke-width="1" fill="none" fill-rule="evenodd">
        <g id="Anny_partner_landing" transform="translate(-286.000000, -2254.000000)" fill-rule="nonzero">
            <g id="Telegram-section" transform="translate(1.000000, 1837.000000)">
                <g id="Card1" transform="translate(162.000000, 375.000000)">
                    <g id="Signals" transform="translate(123.000000, 42.000000)">
                        <g id="marketing">
                            <path d="M11.6644295,32.9908257 L17.752602,54.9872965 C18.0714575,56.1388074 19.1160698,56.9357798 20.3068566,56.9357798 L27.5704698,56.9357798 L21.2990756,34.278147 L11.6644295,32.9908257 Z" id="Path" fill="#707487"></path>
                            <path d="M3.60536913,17.0275229 C2.19984883,17.0275229 1.06040268,18.2185495 1.06040268,19.6880423 L1.06040268,27.6697559 C1.06040268,29.1390931 2.19999765,30.3302752 3.60536913,30.3302752 L7.42281879,30.3302752 L7.42281879,17.0275229 L3.60536913,17.0275229 L3.60536913,17.0275229 Z" id="Path" fill="#7F8499"></path>
                            <path d="M55.1411272,1.06422018 L51.1645111,1.06422018 C49.7004455,1.06422018 48.513537,2.24123628 48.513537,3.69344292 L48.513537,4.30947002 C44.0394951,6.32850769 28.6688988,12.7751921 9.7543181,15.2443739 C8.42604088,15.41779 7.42281879,16.5237793 7.42281879,17.8525345 L7.42281879,28.9731535 C7.42281879,30.3019088 8.42619589,31.407898 9.7543181,31.5813142 C28.6688988,34.050496 44.0394951,40.4973341 48.513537,42.5162181 L48.513537,43.1322452 C48.513537,44.5842981 49.7006005,45.7614679 51.1645111,45.7614679 L55.1409722,45.7614679 C56.6050378,45.7614679 57.7919463,44.5841443 57.7919463,43.1322452 L57.7919463,3.69359666 C57.7919463,2.24123628 56.6051929,1.06422018 55.1411272,1.06422018 Z" id="Path" fill="#268BA6"></path>
                            <path d="M41.8238328,28.5413401 C34.9978928,27.5602598 24.083812,26.1600158 10.2694536,25.5176271 C8.94975954,25.4561169 7.95302013,25.0648564 7.95302013,24.5945113 L7.95302013,29.5204163 C7.95302013,30.852367 8.94868148,31.9617092 10.2679135,32.1354486 C26.3349461,34.2520786 39.7973963,39.2737175 46.1486839,41.9533433 C46.3097762,42.0211741 48.3933496,42.9254823 48.7785235,43.1009174 L48.7785235,4.78899083 C47.8851234,5.19582159 46.5363219,5.78733718 44.8277578,6.48445302 L44.8277578,25.9310868 C44.8274497,27.5371356 43.4121167,28.7696525 41.8238328,28.5413401 Z" id="Path" fill="#134E5E"></path>
                            <path d="M18.5740811,39.7970607 C18.341302,38.7832271 19.2146782,37.8681789 20.209142,38.0758615 C21.0899441,38.2597423 21.9458922,38.4565353 22.7986577,38.6544172 L21.6143032,34.278147 L12.1946309,32.9908257 L18.1468648,54.9872965 C18.4586008,56.1388074 19.4798887,56.9357798 20.6440873,56.9357798 L22.5586043,56.9357798 L18.5740811,39.7970607 Z" id="Path" fill="#5B5D6E"></path>
                            <path d="M54.9998991,0 L51.0653973,0 C49.2134792,0 47.6630824,1.32407032 47.2957662,3.08223165 C44.2753375,4.60541494 29.4521704,11.6799544 9.93318294,14.2695051 C8.8370621,14.4149751 7.8958429,15.0154058 7.28727882,15.8630272 L3.85244989,15.8630272 C1.72815022,15.8631818 0,17.6051111 0,19.7463485 L0,27.6779394 C0,29.8191767 1.72815022,31.561106 3.85244989,31.561106 L7.28758555,31.561106 C7.89599627,32.4087275 8.83736883,33.0093128 9.9333363,33.1546281 C10.1294939,33.180754 10.3242712,33.2081166 10.519662,33.2351699 L16.5605194,55.1558382 C17.0220036,56.8302113 18.5483216,58 20.2724842,58 L27.4545526,58 C27.4559329,58 27.4571599,58 27.4585402,58 C27.4602272,58 27.4616076,58 27.4632946,58 L28.7706031,58 C29.4495631,58 30.0001541,57.4448644 30.0001541,56.7603363 C30.0001541,56.0759627 29.4497165,55.5209817 28.7706031,55.5209817 L28.393778,55.5209817 L22.9076526,35.6144772 C35.8071253,38.7828159 44.9901856,43.1792241 47.2959195,44.3419016 C47.6630824,46.1000629 49.2136325,47.4241332 51.0655507,47.4241332 L54.9998991,47.4241332 C57.1241988,47.4241332 58.852349,45.6822039 58.852349,43.5409666 L58.852349,3.88316666 C58.852349,1.74192929 57.1241988,0 54.9998991,0 Z M2.45894857,27.6779394 L2.45894857,19.7463485 C2.45894857,18.9718485 3.08407639,18.3417363 3.85244989,18.3417363 L6.55740068,18.3417363 L6.55740068,29.0823969 L3.85244989,29.0823969 C3.08407639,29.0823969 2.45894857,28.4524393 2.45894857,27.6779394 Z M25.8414284,55.5209817 L20.2724842,55.5209817 C19.6488901,55.5209817 19.0969188,55.0980212 18.9300544,54.4923344 L13.1812097,33.6332413 C15.6019696,34.0240469 17.9394508,34.478853 20.1795433,34.9766355 L25.8414284,55.5209817 Z M56.3932471,43.5411212 C56.3932471,44.3156211 55.7681192,44.9457333 54.9997457,44.9457333 L51.0653973,44.9457333 C50.2970238,44.9457333 49.671896,44.3156211 49.671896,43.5411212 L49.671896,43.5395752 C49.671896,43.5367926 49.671896,43.53401 49.671896,43.5310728 L49.671896,14.4590334 C49.671896,13.7746599 49.1214584,13.2196789 48.4423451,13.2196789 C47.7633851,13.2196789 47.2127941,13.7745053 47.2127941,14.4590334 L47.2127941,41.5458175 C42.372041,39.2288104 28.2600412,33.0859898 10.2540287,30.697098 C9.54822935,30.6035705 9.01619588,30.0042219 9.01619588,29.3031526 L9.01619588,18.120826 C9.01619588,17.4197567 9.54838271,16.8205627 10.2540287,16.7268807 C28.2600412,14.3381434 42.372041,8.19516824 47.2127941,5.87831571 L47.2127941,9.17125464 C47.2127941,9.85562817 47.7632317,10.4106092 48.4423451,10.4106092 C49.121305,10.4106092 49.671896,9.85578276 49.671896,9.17125464 L49.671896,3.89182375 C49.671896,3.89027784 49.671896,3.88873193 49.671896,3.88718602 L49.671896,3.88316666 C49.671896,3.10866668 50.2970238,2.47855452 51.0653973,2.47855452 L54.9997457,2.47855452 C55.7681192,2.47855452 56.3932471,3.10866668 56.3932471,3.88316666 L56.3932471,43.5411212 Z" id="Shape" fill="#000000"></path>
                            <path d="M77.7442146,22.8807339 L64.3497451,22.8807339 C63.6562984,22.8807339 63.0939597,23.3571573 63.0939597,23.9449541 C63.0939597,24.5327509 63.6561418,25.0091743 64.3497451,25.0091743 L77.7442146,25.0091743 C78.4376613,25.0091743 79,24.5327509 79,23.9449541 C79,23.3571573 78.4378179,22.8807339 77.7442146,22.8807339 Z" id="Path" fill="#000000"></path>
                            <path d="M72.7880877,3.72477064 C72.9471742,3.72477064 73.1088265,3.69073958 73.2641396,3.6194364 L74.5549434,3.02551332 C75.1691015,2.74289344 75.4537667,1.97913914 75.1903835,1.31974678 C74.9271513,0.66019236 74.2157904,0.354885106 73.6016322,0.637504985 L72.3108284,1.23142807 C71.6966703,1.51404795 71.4120052,2.27780224 71.6753883,2.9371946 C71.8720578,3.42983476 72.3186771,3.72477064 72.7880877,3.72477064 Z" id="Path" fill="#000000"></path>
                            <path d="M64.3183082,7.44954128 C64.4791606,7.44954128 64.6426074,7.41647046 64.7996445,7.34717922 L68.7145846,5.6156856 C69.3355604,5.34104032 69.6233855,4.59883664 69.3570786,3.95805014 C69.0909243,3.31726364 68.3716668,3.02041367 67.750691,3.29505895 L63.835751,5.02655257 C63.2147752,5.30119786 62.9269501,6.04340153 63.193257,6.68418803 C63.3921096,7.16277004 63.8438394,7.44954128 64.3183082,7.44954128 Z" id="Path" fill="#000000"></path>
                            <path d="M74.5556114,42.7373691 L73.2624401,42.1421489 C72.6488774,41.8593585 71.9382062,42.1649859 71.6752292,42.8240202 C71.4122522,43.4830545 71.6964905,44.2463941 72.3100533,44.5288605 L73.6032245,45.1240808 C73.758387,45.1955072 73.9198826,45.2293578 74.0788148,45.2293578 C74.5477703,45.2293578 74.9939566,44.9344201 75.1904354,44.4420474 C75.4535632,43.7831751 75.1694757,43.0198355 74.5556114,42.7373691 Z" id="Path" fill="#000000"></path>
                            <path d="M68.7143635,40.6773528 L64.8000883,38.9463927 C64.1789274,38.6718397 63.4593029,38.9686027 63.1932219,39.6095415 C62.9269883,40.2506378 63.2147466,40.9928604 63.8359074,41.267571 L67.7501826,42.998531 C67.9072665,43.0679963 68.0707621,43.1009174 68.2316624,43.1009174 C68.7064253,43.1009174 69.1581371,42.814078 69.357049,42.3353823 C69.6234352,41.6944435 69.3355244,40.9520634 68.7143635,40.6773528 Z" id="Path" fill="#000000"></path>
                        </g>
                    </g>
                </g>
            </g>
        </g>
    </g>
</svg>