<?xml version="1.0" encoding="UTF-8"?>
<svg width="74px" height="98px" viewBox="0 0 74 98" version="1.1" xmlns="http://www.w3.org/2000/svg" xmlns:xlink="http://www.w3.org/1999/xlink">
    <!-- Generator: Sketch 61.2 (89653) - https://sketch.com -->
    <title>startup</title>
    <desc>Created with Sketch.</desc>
    <g id="Web-Kit" stroke="none" stroke-width="1" fill="none" fill-rule="evenodd">
        <g id="Anny_partner_landing" transform="translate(-273.000000, -726.000000)" fill-rule="nonzero">
            <g id="startup" transform="translate(273.000000, 726.000000)">
                <path d="M72.3712072,59.667437 L58,43 L58,75 L70.2729359,75 C71.779132,75 73,73.8243451 73,72.374773 L73,61.3441414 C73,60.7314123 72.7773981,60.1383026 72.3712072,59.667437 L72.3712072,59.667437 Z" id="Path" fill="#FECA57"></path>
                <polygon id="Path" fill="#F59536" points="64 50.2327683 57 43 57 75 64 75"></polygon>
                <path d="M1.6292237,59.667437 L16,43 L16,75 L3.72713618,75 C2.22090412,75 1,73.8243451 1,72.374773 L1,61.3441414 C1,60.7314123 1.2230066,60.1383026 1.6292237,59.667437 L1.6292237,59.667437 Z" id="Path" fill="#FECA57"></path>
                <path d="M6.76767135,72.374773 L6.76767135,61.3441414 C6.76767135,60.7314123 6.99068892,60.1383026 7.39692636,59.667437 L16,49.688707 L16,43 L1.6292552,59.667437 C1.22301777,60.1383026 1,60.7314123 1,61.3441414 L1,72.374773 C1,73.8243451 2.22096525,75 3.72727273,75 L9.49494408,75 C7.98863641,75 6.76767135,73.8243451 6.76767135,72.374773 L6.76767135,72.374773 Z" id="Path" fill="#F59536"></path>
                <path d="M1,69 L1,72.1996243 C1,73.7459083 2.22096525,75 3.72727273,75 L16,75 L16,69 L1,69 Z" id="Path" fill="#F4B537"></path>
                <path d="M10,75 C8.40413676,75 7.1105808,73.7459083 7.1105808,72.1996243 L7.1105808,69 L1,69 L1,72.1996243 C1,72.9731688 1.32378684,73.6734639 1.84645981,74.1797692 C1.92999218,74.261068 2.0206842,74.335122 2.11455861,74.4067615 C2.1941129,74.4663267 2.27605408,74.5218673 2.36197293,74.5733833 C2.80509141,74.8422324 3.32776458,75 3.8894192,75 L10,75 Z" id="Path" fill="#E59D1F"></path>
                <path d="M58,69 L58,75 L70.2729359,75 C71.779132,75 73,73.7459083 73,72.1996243 L73,69 L58,69 Z" id="Path" fill="#F4B537"></path>
                <polygon id="Path" fill="#E59D1F" points="57 69 64 69 64 75 57 75"></polygon>
                <polygon id="Path" fill="#CCD2DB" points="26 77 48 77 48 84 26 84"></polygon>
                <polygon id="Path" fill="#BCC2CC" points="27 77 33 77 33 84 27 84"></polygon>
                <path d="M23.772991,15 C20.0439168,20.7427646 17.4954092,27.3312618 16.4853611,34.4048814 C16.1655731,36.6444363 16,38.9326199 16,41.2579874 L16,74 L58,74 L58,41.2587342 C58,31.5879619 55.1367329,22.560962 50.227009,15 L23.772991,15 Z" id="Path" fill="#268BA6"></path>
                <path d="M29,15 L23.0934857,15 C17.9813248,22.560962 15,31.5879619 15,41.2579874 L15,74 L20.9065143,74 L20.9065143,41.2587342 C20.9065143,31.5879619 23.8878391,22.560962 29,15 Z" id="Path" fill="#134E5E"></path>
                <path d="M48.7393617,83 L26.2606382,83 C25.0174773,83 24,84.012103 24,85.2496219 L24,86.7503783 C24,87.9878972 25.0174773,89 26.2606382,89 L48.7393617,89 C49.9825227,89 51,87.9878972 51,86.7503783 L51,85.2496219 C51,84.012103 49.9825227,83 48.7393617,83 L48.7393617,83 Z" id="Path" fill="#E4EAF8"></path>
                <path d="M29.7665165,86.7499056 L29.7665165,85.2500946 C29.7665165,84.0127317 30.7717718,83 32,83 L26.2334833,83 C25.0052553,83 24,84.0127317 24,85.2500946 L24,86.7499056 C24,87.9872683 25.0052553,89 26.2334833,89 L32,89 C30.7717718,89 29.7665165,87.9872683 29.7665165,86.7499056 Z" id="Path" fill="#CCD2DB"></path>
                <path d="M34.8212328,2.70477922 C30.1719676,6.09939197 26.1645099,10.26675 23,15 L51,15 C47.8354903,10.26675 43.8280326,6.09939197 39.1787674,2.70477922 C37.8920817,1.76507359 36.1079185,1.76507359 34.8212328,2.70477922 Z" id="Path" fill="#268BA6"></path>
                <path d="M39.2730898,2.70477922 C38.058432,1.76507359 36.3741452,1.76507359 35.1594874,2.70477922 C30.7704852,6.09939197 26.9873625,10.26675 24,15 L29.5659737,15 C32.3873715,10.5304881 35.9190109,6.56555102 40,3.27953637 C39.7593878,3.08598056 39.5173258,2.89390237 39.2730898,2.70477922 Z" id="Path" fill="#134E5E"></path>
                <path d="M47,30 C47,35.5226895 42.2995814,40 36.5,40 C30.7011758,40 26,35.5226895 26,30 C26,24.4773103 30.7011758,20 36.5,20 C42.2995814,20 47,24.4773103 47,30 Z" id="Path" fill="#F59536"></path>
                <path d="M32.640775,30 C32.640775,25.4390015 35.7508757,21.5936801 40,20.3917467 C39.1040562,20.1385181 38.1589087,20 37.1792453,20 C31.5575641,20 27,24.4773103 27,30 C27,35.5226895 31.5575641,40 37.1792453,40 C38.1589087,40 39.1040562,39.8614819 40,39.6082533 C35.7501413,38.4063198 32.640775,34.5609985 32.640775,30 Z" id="Path" fill="#F59536"></path>
                <path d="M16,73 L16,75.0734558 C16,77.24207 17.5553366,79 19.4740285,79 L54.5259715,79 C56.4446632,79 58,77.24207 58,75.0734558 L58,73 C55.1581502,73 17.5110251,73 16,73 Z" id="Path" fill="#FECA57"></path>
                <path d="M21.5816714,75.0734558 L21.5816714,73 C18.4576503,73 16.3335485,73 16,73 L16,75.0734558 C16,77.24207 17.5303996,79 19.4183286,79 L25,79 C23.112071,79 21.5816714,77.24207 21.5816714,75.0734558 Z" id="Path" fill="#F59536"></path>
                <path d="M37.5996991,46 L36.4003009,46 C35.0805115,46 34,47.0667516 34,48.3697337 L34,71.6310093 C34,72.9339913 35.0805115,74 36.4003009,74 L37.5996991,74 C38.9194883,74 40,72.9339913 40,71.6310093 C40,69.6809934 40,50.5819803 40,48.3697337 C40,47.0667516 38.9194883,46 37.5996991,46 Z" id="Path" fill="#FECA57"></path>
                <path d="M37.9109516,71.6310093 C37.9109516,69.4187626 37.9109516,50.3190068 37.9109516,48.3697337 C37.9109516,47.5496127 38.3447381,46.8245783 39,46.3989175 C38.6143272,46.1478298 38.150756,46 37.6535819,46 L36.4362303,46 C35.0966853,46 34,47.0667516 34,48.3697337 L34,71.6310093 C34,72.9339913 35.0959217,74 36.4362303,74 L37.6535819,74 C38.150756,74 38.6143272,73.8529132 39,73.6018253 C38.3447381,73.1761648 37.9109516,72.4503874 37.9109516,71.6310093 L37.9109516,71.6310093 Z" id="Path" fill="#F59536"></path>
                <path d="M34,69 L34,72.4330561 C34,73.8449154 35.0805115,75 36.4003009,75 L37.5996991,75 C38.9194883,75 40,73.8449154 40,72.4330561 C40,71.9903407 40,70.7322243 40,69 L34,69 Z" id="Path" fill="#F4B537"></path>
                <path d="M39,74.5685538 C38.3447381,74.107325 37.9109516,73.3209016 37.9109516,72.4330561 C37.9109516,71.9444593 37.9109516,70.696002 37.9109516,69 L34,69 L34,72.4330561 C34,72.5207942 34.0045822,72.6085322 34.012983,72.6946605 C34.1382312,73.9865843 35.1822207,75 36.4362303,75 L37.6543456,75 C38.1079884,75 38.5921797,74.8559162 39,74.5685538 L39,74.5685538 Z" id="Path" fill="#E59D1F"></path>
                <path d="M43,29.5 C43,32.5374037 40.5372344,35 37.4996218,35 C34.4620093,35 32,32.5374037 32,29.5 C32,26.4625963 34.4620093,24 37.4996218,24 C40.5372344,24 43,26.4625963 43,29.5 Z" id="Path" fill="#FECA57"></path>
                <path d="M37.5298777,29.5 C37.5298777,27.5290155 38.5169188,25.8015678 40,24.8304456 C39.1972644,24.3047993 38.2498202,24 37.2347013,24 C34.3434126,24 32,26.4625963 32,29.5 C32,32.5374037 34.3434126,35 37.2347013,35 C38.2498202,35 39.1972644,34.6952009 40,34.1695546 C38.5169188,33.1984324 37.5298777,31.4709847 37.5298777,29.5 Z" id="Path" fill="#F59536"></path>
                <path d="M73.0684958,59.2779205 L59.6925161,42.9860423 L59.6925161,40.9346291 C59.6925161,32.9897496 57.8855774,25.3789617 54.3202942,18.3123955 C51.0577871,11.8452288 46.2178535,5.78774 39.9896347,1.00992793 C38.2335328,-0.336264613 35.7657197,-0.337020622 34.0103653,1.00992793 C28.2366846,5.43853124 23.2337753,11.2662374 19.6789583,18.3123955 C16.1136748,25.3789617 14.3067364,32.9897496 14.3067364,40.9346291 L14.3067364,42.9860423 L0.930756438,59.2779205 C0.330437147,60.0080845 0,60.9347729 0,61.884893 L0,72.9341033 C0,75.1843084 1.81067657,77.0150093 4.03626854,77.0150093 L14.5198013,77.0150093 C15.1365676,79.0702017 17.0272367,80.5705904 19.2588095,80.5705904 L24.6923341,80.5705904 L24.6923341,83.3279798 C23.2890972,83.8465022 22.2828337,85.2055446 22.2828337,86.8011719 L22.2828337,88.3000489 C22.2828337,90.3401241 23.9245534,92 25.9423139,92 L33.6507718,92 C34.4432231,92 35.0861553,91.3507133 35.0861553,90.5487424 C35.0861553,89.7467715 34.4432231,89.0974848 33.6507718,89.0974848 L25.9423139,89.0974848 C25.5146892,89.0974848 25.1543482,88.7324028 25.1543482,88.3000489 L25.1543482,86.8011719 C25.1543482,86.3695739 25.5146892,86.0044921 25.9423139,86.0044921 L48.0569384,86.0044921 C48.4845633,86.0044921 48.8456518,86.3695739 48.8456518,86.8011719 L48.8456518,88.3000489 C48.8456518,88.7324028 48.4845633,89.0974848 48.0569384,89.0974848 L40.3492282,89.0974848 C39.5560293,89.0974848 38.9138447,89.7467715 38.9138447,90.5487424 C38.9138447,91.3507133 39.5560293,92 40.3492282,92 L48.0569384,92 C50.0746989,92 51.7164188,90.3401241 51.7164188,88.3000489 L51.7164188,86.8011719 C51.7164188,85.2055446 50.7101552,83.8465022 49.3076659,83.3287359 L49.3076659,80.5705904 L54.740443,80.5705904 C56.9720157,80.5705904 58.8626849,79.0702017 59.4801987,77.0150093 L69.9629839,77.0150093 C72.1885759,77.0150093 74,75.1843084 74,72.9341033 C74,71.6922198 74,63.2499823 74,61.884893 C73.9992525,60.9347729 73.6688151,60.0088403 73.0684958,59.2779205 C73.0692436,59.2779205 73.0692436,59.2779205 73.0684958,59.2779205 L73.0684958,59.2779205 Z M70.8600986,61.1320532 C71.0327932,61.3429391 71.1284855,61.6105148 71.1284855,61.884893 L71.1284855,68.4775331 L59.6925161,68.4775331 L59.6925161,47.5302925 L70.8600986,61.1320532 Z M35.7455347,3.32286973 C36.4213611,2.80434758 37.3723027,2.74916941 38.1124222,3.22309577 C38.395761,3.40525878 43.477168,7.11730365 47.9134,13.2949746 L26.0858522,13.2949746 C28.810838,9.50054069 32.0643739,6.14677514 35.7455347,3.32286973 Z M17.1775034,40.9346291 C17.1775034,32.0245122 19.6161602,23.5263407 24.1144427,16.1974898 L49.8848097,16.1974898 C54.3830922,23.5263407 56.8217491,32.0245122 56.8217491,40.9346291 L56.8217491,43.5098555 L56.8217491,72.2341738 L41.4152995,72.2341738 C41.4152995,67.7889416 41.4152995,67.2235558 41.4152995,62.9234494 C41.4152995,62.1214782 40.7731149,61.4721918 39.979916,61.4721918 C39.186717,61.4721918 38.5445325,62.1214782 38.5445325,62.9234494 L38.5445325,68.4782889 L35.4547199,68.4782889 L35.4547199,49.4841993 C35.4547199,48.9641653 35.8890731,48.5250088 36.4034188,48.5250088 L37.5958336,48.5250088 C38.1101794,48.5250088 38.5445325,48.9641653 38.5445325,49.4841993 L38.5445325,56.1494021 C38.5445325,56.951373 39.186717,57.6014157 39.979916,57.6014157 C40.7731149,57.6014157 41.4152995,56.951373 41.4152995,56.1494021 L41.4152995,49.4841993 C41.4152995,47.3549322 39.7018103,45.6224936 37.5958336,45.6224936 L36.4034188,45.6224936 C34.297442,45.6224936 32.5832054,47.3549322 32.5832054,49.4841993 L32.5832054,72.2341738 L17.1775034,72.2341738 C17.1775034,71.2863213 17.1775034,44.4599757 17.1775034,43.5090995 L17.1775034,40.9346291 Z M38.5445325,73.1525478 C38.5445325,73.6884548 38.0884992,74.1117383 37.5958336,74.1117383 L36.4034188,74.1117383 C35.9144912,74.1117383 35.4547199,73.6914783 35.4547199,73.1525478 L35.4547199,71.3808041 L38.5445325,71.3808041 L38.5445325,73.1525478 Z M3.13915385,61.1320532 L14.3067364,47.5302925 L14.3067364,68.4775331 L2.87076699,68.4775331 L2.87076699,61.884893 C2.87076699,61.6097588 2.96645923,61.3429391 3.13915385,61.1320532 Z M2.87076699,72.9333473 L2.87076699,71.3808041 L14.3067364,71.3808041 L14.3067364,74.1117383 L4.03626854,74.1117383 C3.39333634,74.1117383 2.87076699,73.58339 2.87076699,72.9333473 L2.87076699,72.9333473 Z M46.4361512,83.101221 L27.5623535,83.101221 L27.5623535,80.5705904 L46.4361512,80.5705904 L46.4361512,83.101221 Z M54.740443,77.6673194 C53.8478138,77.6673194 20.256102,77.6673194 19.2588095,77.6673194 C18.1112502,77.6673194 17.1775034,76.724002 17.1775034,75.5637517 L17.1775034,75.136689 L33.1326882,75.136689 C33.8361755,76.3188592 35.0966216,77.0150093 36.4034188,77.0150093 L37.5958336,77.0150093 C38.9116018,77.0150093 40.1668148,76.3120565 40.8665643,75.136689 L56.8217491,75.136689 L56.8217491,75.5637517 C56.8217491,76.724002 55.8880021,77.6673194 54.740443,77.6673194 Z M71.1284855,72.9333473 C71.1284855,73.58339 70.6059161,74.1117383 69.9629839,74.1117383 L59.6925161,74.1117383 C59.6925161,73.0588207 59.6925161,72.3997079 59.6925161,71.3808041 L71.1284855,71.3808041 L71.1284855,72.9333473 Z" id="Shape" fill="#000000"></path>
                <path d="M36.9996198,42 C43.6164813,42 49,36.8415233 49,30.5003644 C49,24.1592054 43.6164813,19 36.9996198,19 C30.3827582,19 25,24.1592054 25,30.5003644 C25,36.8415233 30.3835187,42 36.9996198,42 Z M36.9996198,21.7989417 C42.0067484,21.7989417 46.0793651,25.7018662 46.0793651,30.5003644 C46.0793651,35.298134 42.0067484,39.2017869 36.9996198,39.2017869 C31.9932516,39.2017869 27.9198746,35.298134 27.9198746,30.5003644 C27.9198746,25.7018662 31.9932516,21.7989417 36.9996198,21.7989417 Z" id="Shape" fill="#000000"></path>
                <path d="M29,96.476392 L29,93.523608 C29,92.6816557 28.5526041,92 28,92 C27.4473959,92 27,92.6816557 27,93.523608 L27,96.476392 C27,97.3175506 27.4473959,98 28,98 C28.5526041,98 29,97.3175506 29,96.476392 Z" id="Path" fill="#000000"></path>
                <path d="M35,96.476392 L35,93.523608 C35,92.6816557 34.5526041,92 34,92 C33.4473959,92 33,92.6816557 33,93.523608 L33,96.476392 C33,97.3175506 33.4473959,98 34,98 C34.5526041,98 35,97.3175506 35,96.476392 Z" id="Path" fill="#000000"></path>
                <path d="M40,96.476392 L40,93.523608 C40,92.6816557 39.5526041,92 39,92 C38.4473959,92 38,92.6816557 38,93.523608 L38,96.476392 C38,97.3175506 38.4473959,98 39,98 C39.5526041,98 40,97.3175506 40,96.476392 Z" id="Path" fill="#000000"></path>
                <path d="M46,96.476392 L46,93.523608 C46,92.6816557 45.5526043,92 45,92 C44.4473959,92 44,92.6816557 44,93.523608 L44,96.476392 C44,97.3175506 44.4473959,98 45,98 C45.5526043,98 46,97.3175506 46,96.476392 Z" id="Path" fill="#000000"></path>
                <path d="M36.9996192,37 C40.8600337,37 44,33.8600337 44,30.0003808 C44,26.1399661 40.8600337,23 36.9996192,23 C33.1399663,23 30,26.1399661 30,30.0003808 C30,33.8600337 33.1399663,37 36.9996192,37 Z M36.9996192,25.924441 C39.2470216,25.924441 41.075559,27.7529782 41.075559,30.0003808 C41.075559,32.2470216 39.2470216,34.075559 36.9996192,34.075559 C34.7529782,34.075559 32.924441,32.2470216 32.924441,30.0003808 C32.924441,27.7529782 34.7529782,25.924441 36.9996192,25.924441 Z" id="Shape" fill="#000000"></path>
            </g>
        </g>
    </g>
</svg>