<?xml version="1.0" encoding="UTF-8"?>
<svg width="78px" height="78px" viewBox="0 0 78 78" version="1.1" xmlns="http://www.w3.org/2000/svg" xmlns:xlink="http://www.w3.org/1999/xlink">
    <!-- Generator: Sketch 61.2 (89653) - https://sketch.com -->
    <title>target (1)</title>
    <desc>Created with Sketch.</desc>
    <g id="Web-Kit" stroke="none" stroke-width="1" fill="none" fill-rule="evenodd">
        <g id="Anny_partner_landing" transform="translate(-1077.000000, -2236.000000)" fill-rule="nonzero">
            <g id="Telegram-section" transform="translate(1.000000, 1837.000000)">
                <g id="Card3" transform="translate(952.000000, 375.000000)">
                    <g id="target-(1)" transform="translate(124.000000, 24.000000)">
                        <path d="M51.963059,64.6160873 C51.963059,58.2269066 57.1141862,53.0472934 63.4681077,53.0472934 C65.3060515,53.0472934 67.0420558,53.4829987 68.5831313,54.2536751 C70.752985,49.8374564 71.9806574,44.8734203 72,39.6220492 C72.0263178,32.3649473 69.7425407,25.6389749 65.8410818,20.139258 L60.2388119,18.6459965 C59.9014409,18.5560337 59.5519343,18.2078639 59.4612203,17.8724376 L57.9374381,12.2131239 C52.4888359,8.3248489 45.8253037,6.02647332 38.6220386,6 C20.1209409,5.9327178 5.06788404,20.8765586 5,39.3779511 C4.93272327,57.8790402 19.8764076,72.9321108 38.3779603,73 C43.6587873,73.0190395 48.6577638,71.813568 53.1085124,69.6532467 C52.3749125,68.1304022 51.963059,66.4217154 51.963059,64.6160873 L51.963059,64.6160873 Z" id="Path" fill="#FB2B3A"></path>
                        <path d="M7.85593406,39.3779646 C7.92209791,21.5499966 22.1356052,7.02774626 40,6.0543876 C39.3985104,6.02116355 38.7928567,6.00250346 38.1833472,6 C19.37338,5.93271777 4.06901734,20.8765647 4,39.3779646 C3.9316001,57.8790612 19.1247643,72.9321379 37.9351942,73 C38.619967,73.002227 39.2993418,72.9825049 39.9742439,72.9457916 C22.0120685,71.9522558 7.78946175,57.2795111 7.85593406,39.3779646 Z" id="Path" fill="#E41F2D"></path>
                        <path d="M60.0727338,54.3560645 C62.545341,50.3465219 63.9814068,45.6343355 64,40.5963891 C64.0258321,33.5180675 61.2936711,26.8534506 56.3067697,21.8299587 C51.3200205,16.806619 44.6750786,14.0258661 37.5965328,14 L37.4974886,14 C22.9398079,14 11.0531273,25.8443702 11,40.4033066 C10.9743179,47.4816282 13.706631,54.1462451 18.6935324,59.1698892 C23.6802817,64.193381 30.3252235,66.9739818 37.4036171,67 L37.5029657,67 C42.5473766,67 47.2704643,65.5769106 51.2921785,63.1123322 C52.2780569,58.7429471 55.7141777,55.3115869 60.0727338,54.3560645 Z" id="Path" fill="#FFFFFF"></path>
                        <path d="M22.7376709,59.1698892 C17.6463439,54.1462451 14.8568161,47.4817804 14.8832218,40.4033066 C14.9351012,26.4818923 26.0337218,15.0437713 40,14.0687733 C39.3881647,14.0264747 38.7726016,14.0024345 38.1534659,14 L38.0523476,14 C23.1898294,14 11.0542419,25.8443702 11,40.4033066 C10.9736269,47.4816282 13.76331,54.1462451 18.854637,59.1698892 C23.9458087,64.193381 30.7298955,66.9739818 37.9563552,67 L38.0577841,67 C38.7087619,67 39.3539926,66.9759598 39.9936316,66.9312267 C33.4635053,66.479788 27.392838,63.7632438 22.7376709,59.1698892 Z" id="Path" fill="#EFE2DD"></path>
                        <path d="M38.4200257,59 C33.2203882,58.9808845 28.3310102,56.9347643 24.6611096,53.2381376 C20.9913619,49.5416639 18.981021,44.637551 19,39.4289669 C19.0391277,28.7155853 27.7857242,20 38.4973994,20 L38.5801251,20 C43.7797626,20.0189625 48.6692935,22.0652357 52.3388882,25.7615565 C56.0087888,29.4580303 58.0191298,34.3622961 58,39.5707273 C57.9608701,50.2810504 49.2193198,58.9946477 38.5123848,59 L38.4200257,59 Z" id="Path" fill="#FB2B3A"></path>
                        <path d="M28.3408503,53.2380073 C24.6379728,49.5415481 22.6094829,44.6374544 22.6287695,39.4288907 C22.6651827,29.4873544 30.2679697,21.2675803 40,20.1345724 C39.2604737,20.0489354 38.5119984,20.0029055 37.7568885,20 L37.673416,20 C26.8648835,20 18.0393245,28.715704 18,39.4288907 C17.9810018,44.6374544 20.0093374,49.5415481 23.7122149,53.2380073 C27.4150923,56.9344665 32.3486107,58.9807317 37.5953438,59 L37.688691,59 C38.4641676,58.9995412 39.2288436,58.9528997 39.9813305,58.8652747 C35.5830546,58.3561934 31.5107997,56.4024468 28.3408503,53.2380073 L28.3408503,53.2380073 Z" id="Path" fill="#E41F2D"></path>
                        <path d="M38.4374782,51.9995363 C35.1123498,51.9873243 31.9815169,50.675855 29.6287938,48.3061208 C27.2766889,45.9368504 25.9877225,42.7931267 26,39.4544758 C26.0252832,32.5870387 31.6312593,27 38.4972972,27 L38.5602075,27.0003092 C41.8876545,27.0122119 45.0187965,28.3238358 47.371056,30.6934154 C49.7233154,33.062995 51.0119727,36.2065641 51,39.5453697 C50.9753394,46.4061598 45.3763189,51.9911889 38.5184734,52 L38.4374782,51.9995363 Z" id="Path" fill="#FFFFFF"></path>
                        <path d="M33.2641511,48.3062526 C30.9839034,45.9369675 29.7343151,42.7932243 29.746303,39.4545528 C29.7683307,33.2400294 34.2210849,28.0745026 40,27.1483991 C39.4016541,27.0530218 38.7925192,27.0024733 38.1764912,27.0003092 L38.1155027,27 C31.4592235,27 26.0245108,32.5872278 26,39.4545528 C25.9880976,42.7933789 27.2376859,45.9369675 29.5179336,48.3062526 C31.7987806,50.6760014 34.8339661,51.9874788 38.0575113,51.9996908 L38.1358822,52 C38.7635984,51.9992271 39.3803756,51.9482149 39.9827674,51.8516009 C37.4492754,51.4476769 35.1096877,50.2238477 33.2641511,48.3062526 L33.2641511,48.3062526 Z" id="Path" fill="#EFE2DD"></path>
                        <path d="M37.4563517,45.9995177 C35.9833189,45.9943732 34.6466097,45.43234 33.5966941,44.3746693 C32.5467785,43.3169987 31.9947328,41.9702732 32,40.4801456 C32.0111302,37.4619499 34.4715434,35.005466 37.4867351,35 L37.5352842,35.0001608 C39.0157118,35.0056268 40.3535464,35.5673385 41.4031405,36.6250091 C42.4530561,37.6826798 43.005584,39.0292446 43,40.5195329 C42.9890259,43.5335487 40.5326317,45.989068 37.522102,46 L37.4563517,45.9995177 Z" id="Path" fill="#FB2B3A"></path>
                        <path d="M36.7276458,44.3748063 C35.6961073,43.3171202 35.1537243,41.970375 35.1589365,40.4802257 C35.1677814,38.0105229 36.7884546,35.9178188 39,35.2353629 C38.5038949,35.0816696 37.9809391,35.00209 37.4383982,35.0001608 L37.3906988,35 C34.4282831,35.0056268 32.0109354,37.4619859 32,40.4802257 C31.994825,41.970375 32.537208,43.3171202 33.5687466,44.3748063 C34.6002851,45.4324925 35.9137554,45.9945339 37.3608472,45.9996785 L37.4254467,46 C37.9600904,45.9980708 38.4764124,45.915115 38.9644624,45.7646371 C38.1324083,45.5062845 37.3745884,45.038131 36.7276458,44.3748063 L36.7276458,44.3748063 Z" id="Path" fill="#E41F2D"></path>
                        <path d="M70.3776539,8.42883274 C70.0319805,8.33094366 69.6691406,7.96793831 69.5708226,7.62234592 L67.7837772,1.317285 C67.6857714,0.971535744 67.3976843,0.896550197 67.1439304,1.15084219 L57.3227497,10.9717527 C57.0685277,11.2258878 56.9365007,11.7176863 57.0301368,12.0645337 L58.7425854,18.4574438 C58.8359094,18.8042911 59.1954722,19.1643159 59.54255,19.2573419 L65.9357123,20.9700871 C66.2824781,21.06327 66.7739117,20.9313393 67.0282898,20.6772042 L76.8491584,10.8561369 C77.1035365,10.6018449 77.0283155,10.313982 76.6827982,10.2162497 L70.3776539,8.42883274 Z" id="Path" fill="#268BA6"></path>
                        <path d="M62.9786862,19.5996259 L61.2383601,12.8142558 C61.1431673,12.4459931 61.2774517,11.9240656 61.5357255,11.65433 L69,3.85893948 L68.3100764,1.31681448 C68.2163758,0.971577956 67.9409435,0.89670361 67.6983363,1.15061849 L58.3085722,10.9569648 C58.0655174,11.210723 57.9392901,11.7017922 58.028813,12.0481252 L59.6660386,18.4315548 C59.7552631,18.7778878 60.0990313,19.1373786 60.430863,19.2302667 L63.1816049,20 C63.0864122,19.874374 63.0137494,19.7360601 62.9786862,19.5996259 L62.9786862,19.5996259 Z" id="Path" fill="#134E5E"></path>
                        <circle id="Oval" fill="#97D729" cx="63.5" cy="65.5" r="11.5"></circle>
                        <path d="M56.9073075,65.5000754 C56.9073075,59.9877846 60.8023706,55.3836525 66,54.2627055 C65.2089604,54.092143 64.3886907,54 63.5463462,54 C57.1696172,54 52,59.1488463 52,65.5000754 C52,71.8513045 57.1696172,77 63.5463462,77 C64.3886907,77 65.2089604,76.907857 66,76.7372945 C60.8023706,75.6163475 56.9073075,71.0122154 56.9073075,65.5000754 Z" id="Path" fill="#8BC727"></path>
                        <path d="M77.5159553,11.5546217 C77.9237809,11.1481659 78.0877033,10.5991984 77.9547068,10.0859734 C77.8217102,9.57259563 77.4115995,9.17270781 76.8581328,9.01660187 L71.9715386,7.63471299 L73.4579615,6.15216479 C73.9053965,5.70599508 73.9072247,4.98060652 73.4622271,4.53214562 C73.0169248,4.08353197 72.293442,4.08169903 71.8464639,4.52802149 L70.3472441,6.02324756 L68.9596927,1.14043095 C68.8027781,0.588408571 68.4043979,0.179203274 67.894197,0.045703674 C67.3832343,-0.0876431807 66.8361661,0.0748780718 66.4304734,0.479959239 L56.8431448,10.0424409 C56.7313242,10.1539451 56.6332145,10.2810294 56.5483587,10.4180422 C55.0339045,9.46078589 53.4342898,8.61029874 51.7543897,7.88353547 C51.1751769,7.63288004 50.5027294,7.90064297 50.2527324,8.48153425 C50.0027355,9.06242553 50.269795,9.73664434 50.8493125,9.98714702 C52.8622372,10.8577966 54.7523723,11.9180034 56.5073781,13.1372182 L57.9244843,18.4139656 L56.7825118,19.5529891 C51.9340036,15.0457737 45.7390769,12.4633049 39.1268793,12.1952365 L39.1268793,7.35549414 C41.4406838,7.43614379 43.7349882,7.76057531 45.9613472,8.32359536 C46.5722476,8.47878483 47.1941169,8.10654395 47.3485939,7.49296513 C47.5029187,6.8793863 47.1319604,6.25664274 46.5201459,6.10191151 C44.1115832,5.49276231 41.629286,5.14480797 39.1268793,5.06324185 L39.1268793,2.98284763 C39.1268793,2.35017561 38.6153073,1.83725609 37.9842974,1.83725609 C37.3532875,1.83725609 36.8417155,2.35017561 36.8417155,2.98284763 L36.8417155,5.06461656 C28.0252488,5.34719581 19.7697138,8.90586135 13.4768297,15.1687339 C7.12361729,21.4917882 3.50467955,29.8404011 3.21827235,38.7731129 L1.1425819,38.7731129 C0.511572003,38.7731129 0,39.2860324 0,39.9187044 C0,40.5513764 0.511572003,41.064296 1.1425819,41.064296 L3.21918642,41.064296 C3.50117563,49.903222 7.0503397,58.179739 13.2973682,64.4885879 C19.6044202,70.8579241 27.9315571,74.4862416 36.8414108,74.7734033 L36.8414108,76.8542557 C36.8414108,77.4869277 37.3529828,78 37.9839927,78 C38.6150026,78 39.1265746,77.4869277 39.1265746,76.8542557 L39.1265746,74.7734033 C43.689742,74.6267675 48.1014792,73.6004703 52.1696802,71.7772995 C54.3917735,75.5019995 58.440779,78 63.0589427,78 C68.6673441,78 73.6800794,74.2146601 75.2492252,68.7949429 C75.4250305,68.1873211 75.0763145,67.551747 74.4704414,67.3754786 C73.8647206,67.1995158 73.2305115,67.5488448 73.0545539,68.1563138 C71.7673973,72.6031946 67.6568446,75.7089697 63.0590951,75.7089697 C57.3180019,75.7089697 52.6474318,70.9976863 52.6474318,65.2067975 C52.6474318,59.4157559 57.3180019,54.7044725 63.0590951,54.7044725 C68.0824945,54.7044725 72.3883524,58.3149188 73.2976953,63.28923 C73.4113441,63.9115153 74.0059437,64.3239283 74.6275083,64.2095218 C75.2481588,64.0954209 75.6590312,63.4984914 75.5452301,62.876206 C74.8736966,59.2020649 72.6788729,56.1408915 69.6914021,54.2972529 C71.5522872,50.177553 72.6025485,45.7004285 72.7513888,41.0646014 L74.8258605,41.0646014 C75.4570227,41.0646014 75.9684424,40.5516819 75.9684424,39.9190099 C75.9684424,39.2863379 75.4570227,38.7734184 74.8258605,38.7734184 L72.7509318,38.7734184 C72.5478569,32.5087129 70.6820968,26.5580522 67.4967308,21.4419932 C67.6551688,21.3504986 67.8024857,21.2431185 67.9290838,21.1171034 L77.5159553,11.5546217 Z M70.1120246,9.48950206 L74.9692164,10.8629899 L71.8568233,13.9673902 L66.9399126,12.6534731 L70.1120246,9.48950206 Z M67.1190694,3.02485265 L68.4958044,7.86978837 L65.3092197,11.0481175 L63.9918989,6.14376379 L67.1190694,3.02485265 Z M58.4870917,11.6345076 L62.1253771,8.00557915 L63.4428502,12.9097801 L59.7908538,16.552303 L58.4785604,11.6656677 C58.4805409,11.6554338 58.4837401,11.6441306 58.4870917,11.6345076 L58.4870917,11.6345076 Z M36.8415631,7.35747983 L36.8415631,12.1953893 C22.506883,12.7828486 10.9197314,24.389982 10.3318349,38.7731129 L5.50526428,38.7731129 C6.09757874,21.7015078 19.8394874,7.94891056 36.8415631,7.35747983 L36.8415631,7.35747983 Z M36.8415631,72.4803872 C19.8141983,71.8865126 6.0960553,58.1085596 5.506026,41.064296 L10.3304638,41.064296 C10.6094061,48.0088718 13.426099,54.5039176 18.3417911,59.4683003 C23.3047098,64.4804924 29.8402783,67.3583711 36.8415631,67.6420196 L36.8415631,72.4803872 Z M39.1267269,72.4802345 L39.1267269,67.6412558 C43.154252,67.4759852 46.96362,66.4397594 50.3744555,64.7170953 C50.3683617,64.8797693 50.3621156,65.0422905 50.3621156,65.206492 C50.3621156,66.7852699 50.6492845,68.2972979 51.1706066,69.6947669 C47.4662037,71.3505285 43.3999832,72.3317658 39.1267269,72.4802345 Z M50.7996483,61.8816798 C47.3423478,63.9199163 43.3667722,65.1608211 39.1265746,65.34992 L39.1265746,64.7404653 C39.1265746,64.1077933 38.6150026,63.5948738 37.9839927,63.5948738 C37.3529828,63.5948738 36.8414108,64.1077933 36.8414108,64.7404653 L36.8414108,65.3491563 C30.4537686,65.0670353 24.4942137,62.4300363 19.963191,57.8540855 C15.475891,53.3221254 12.8941129,47.3998754 12.6165417,41.064296 L13.225614,41.064296 C13.8566239,41.064296 14.3681959,40.5513764 14.3681959,39.9187044 C14.3681959,39.2860324 13.8566239,38.7731129 13.225614,38.7731129 L12.6186745,38.7731129 C13.2033717,25.6519657 23.7663129,15.0711295 36.8414108,14.487947 L36.8414108,15.0969435 C36.8414108,15.7296155 37.3529828,16.242535 37.9839927,16.242535 C38.6150026,16.242535 39.1265746,15.7296155 39.1265746,15.0969435 L39.1265746,14.487947 C45.1254342,14.7529606 50.7461755,17.0954661 55.1612643,21.1698006 L51.7382413,24.5839689 C47.9771663,21.1843114 43.1670489,19.3142478 38.0671726,19.2957656 L37.9815552,19.2956129 C26.6817249,19.2956129 17.4552999,28.5133478 17.4141669,39.8434009 C17.3940575,45.352016 19.5149942,50.5386434 23.3859093,54.4477073 C27.2569768,58.3570766 32.4116969,60.5210226 37.9006604,60.541185 L37.9970943,60.5414905 C42.9455403,60.5388938 47.7323491,58.7369547 51.4755998,55.4674365 C55.1821354,52.2299948 57.617206,47.7835722 58.3323099,42.9476484 C58.4247829,42.32185 57.993801,41.7392785 57.3696466,41.6464092 C56.7451875,41.5535399 56.1642988,41.985657 56.0718259,42.6116083 C55.4365503,46.9083402 53.2711291,50.8604783 49.9747042,53.7398844 C46.647201,56.6461738 42.3931401,58.2480162 38.0002935,58.2503074 L37.9085823,58.2500019 C33.0303669,58.2321307 28.4486135,56.3086061 25.0074615,52.8334924 C21.5666142,49.3585314 19.6813541,44.7483656 19.6991784,39.8518019 C19.735741,29.7803721 27.9371939,21.5867959 37.9783559,21.5867959 L38.0598601,21.5869487 C42.5489882,21.6031397 46.786139,23.2346148 50.1153179,26.2027661 L46.6865058,29.6227387 C44.2720017,27.5637288 41.2469019,26.4331064 38.0478249,26.4216504 L37.9817075,26.4214977 C30.5870698,26.4214977 24.5490577,32.4543355 24.5219404,39.8695204 C24.5086864,43.4744678 25.8965426,46.8687791 28.4300275,49.4274197 C30.9635125,51.9859074 34.3333673,53.402164 37.9184847,53.4154529 L38.0039498,53.4157584 C45.3897515,53.4061354 51.4201465,47.3732977 51.4466544,39.967583 C51.4582325,36.742361 50.3456624,33.6877557 48.297851,31.247493 L51.7255967,27.8284368 C54.1309601,30.5651786 55.6438909,33.8886161 56.1143299,37.5102128 C56.1958341,38.1376914 56.7692579,38.5800425 57.3949357,38.4981709 C58.0206136,38.4164521 58.4619549,37.8416706 58.3804507,37.2141919 C57.8445036,33.0892987 56.1093026,29.3086939 53.3483677,26.2096396 L56.7726094,22.7940967 C60.7858141,27.2105811 63.090478,32.8080941 63.3514437,38.7728074 L62.7425237,38.7728074 C62.1113615,38.7728074 61.5999418,39.2857269 61.5999418,39.9183989 C61.5999418,40.5510709 62.1113615,41.0639905 62.7425237,41.0639905 L63.350682,41.0639905 C63.159947,45.3408655 61.9082866,49.3472282 59.8554478,52.8260079 C55.4566598,53.9827498 51.9813827,57.4629042 50.7996483,61.8816798 L50.7996483,61.8816798 Z M37.1741306,40.7267283 C37.397315,40.9517225 37.69073,41.064296 37.984145,41.064296 C38.2755796,41.064296 38.5670141,40.9532499 38.7900461,40.7308524 L41.5627115,37.9653945 C41.8884236,38.5586581 42.0566116,39.2237122 42.0539024,39.9330625 C42.0456428,42.1668132 40.2277188,43.990595 38.0106529,43.9986905 L37.9483441,43.998385 C37.9478871,43.998385 37.9474301,43.998385 37.946973,43.998385 C36.8589304,43.9945664 35.8731107,43.5777238 35.096155,42.7929172 C34.3193517,42.0084161 33.9109167,41.0094603 33.9148491,39.9040408 C33.9231043,37.6664715 35.7439228,35.8426897 37.9681489,35.8385656 L38.0136998,35.8387184 C38.7120459,35.841315 39.3671262,36.0128483 39.9518234,36.340182 L37.1783963,39.1064036 C36.7308089,39.5527261 36.7289807,40.2781147 37.1741306,40.7267283 L37.1741306,40.7267283 Z M41.6128328,34.6833511 C40.5659231,33.9428407 39.3436651,33.5524231 38.021317,33.5475353 L37.96952,33.5473825 C34.486321,33.5537978 31.6422061,36.4017384 31.6294092,39.8957926 C31.6231631,41.6221227 32.2611808,43.1821128 33.4741458,44.4071321 C34.6874154,45.6326095 36.231272,46.2834582 37.9387464,46.2895681 L38.0092818,46.2898736 C41.4866918,46.2771957 44.3262363,43.4292551 44.3388809,39.9414635 C44.3439082,38.6043291 43.9606101,37.3675484 43.2240256,36.3079526 L46.6727948,32.8679704 C48.29389,34.8686314 49.1707836,37.3470805 49.1612638,39.959182 C49.1390959,46.1076481 44.1326067,51.1164798 38.0063873,51.1244226 L37.9267112,51.1241171 C34.951885,51.1131194 32.1549969,49.9372843 30.0515798,47.8130521 C27.9481627,45.6888199 26.7958307,42.8708174 26.8068721,39.8777686 C26.8293465,33.721207 31.8422341,28.712528 37.9774419,28.712528 L38.039446,28.712528 C40.6285366,28.7219982 43.0817361,29.6137267 45.0609926,31.2438271 L41.6128328,34.6833511 Z M67.6259187,53.2692754 C66.201957,52.7164893 64.6609949,52.4131367 63.0589427,52.4131367 C62.9311259,52.4131367 62.8046802,52.4190938 62.6776251,52.4229124 C64.4201386,48.9832356 65.4702476,45.135881 65.6369122,41.064296 L70.4639398,41.064296 C70.3132714,45.4008945 69.3117603,49.5221219 67.6259187,53.2692754 Z M70.4637875,38.7731129 L65.6378262,38.7731129 C65.373966,32.1986394 62.8340826,26.0284834 58.393857,21.1774379 L59.5402475,20.0339848 L64.7537725,21.4271768 C68.2052839,26.4512831 70.2439547,32.4390609 70.4637875,38.7731129 L70.4637875,38.7731129 Z M66.3491216,19.4610363 C66.3370864,19.4654659 66.3216996,19.46959 66.309055,19.4717285 L61.4151482,18.1640739 L65.0647072,14.5238422 L69.9816179,15.8377594 L66.3491216,19.4610363 Z" id="Shape" fill="#000000"></path>
                        <path d="M67.0085,62.3191667 L61.5869125,67.3829116 L58.9913246,64.958912 C58.5376482,64.5350692 57.7998027,64.5331932 57.3434851,64.954727 C56.8871675,65.3762607 56.8853031,66.0615959 57.3391348,66.4852943 L60.7608176,69.6809274 C60.9794213,69.8852724 61.2767968,70 61.5869125,70 C61.8970282,70 62.1944038,69.8851281 62.4131628,69.6809274 L68.6610005,63.8455491 C69.1148322,63.4217063 69.1126571,62.7363712 68.6564948,62.3149817 C68.2000219,61.8934479 67.4623317,61.8951796 67.0085,62.3191667 L67.0085,62.3191667 Z" id="Path" fill="#000000"></path>
                    </g>
                </g>
            </g>
        </g>
    </g>
</svg>