<?xml version="1.0" encoding="UTF-8"?>
<svg width="78px" height="75px" viewBox="0 0 78 75" version="1.1" xmlns="http://www.w3.org/2000/svg" xmlns:xlink="http://www.w3.org/1999/xlink">
    <!-- Generator: Sketch 61.2 (89653) - https://sketch.com -->
    <title>vip</title>
    <desc>Created with Sketch.</desc>
    <g id="Web-Kit" stroke="none" stroke-width="1" fill="none" fill-rule="evenodd">
        <g id="Anny_partner_landing" transform="translate(-682.000000, -2236.000000)" fill-rule="nonzero">
            <g id="Telegram-section" transform="translate(1.000000, 1837.000000)">
                <g id="Card2" transform="translate(557.000000, 375.000000)">
                    <g id="vip" transform="translate(124.000000, 24.000000)">
                        <path d="M77.9103052,28.3840444 C77.7035308,27.7666808 77.1676564,27.3230288 76.5268423,27.2374226 L51.9678904,23.9650203 L40.519548,0.865121513 C39.9464167,-0.288373838 38.0575053,-0.288373838 37.4843742,0.865121513 L26.032306,23.9650203 L1.47645889,27.2374226 C0.835644797,27.3230288 0.296665659,27.7666808 0.0898912248,28.3840444 C-0.116883051,28.9982838 0.0389739053,29.6775089 0.496609512,30.1380321 L18.507087,48.2627795 L13.6003885,72.9592008 C13.4712321,73.5978098 13.7189888,74.2526652 14.2343721,74.6488276 C14.7497555,75.041241 15.4452126,75.1124753 16.0214486,74.8194149 L39.0000982,63.2575931 L61.9787479,74.8225393 C62.219674,74.9387636 62.4804706,75 62.7381622,75 C63.1014145,75 63.4677713,74.8806515 63.7695499,74.6488276 C64.2812077,74.2526652 64.5289643,73.5940606 64.4035338,72.9592008 L59.4962142,48.2590304 L77.5073127,30.1349077 C77.9581179,29.6775089 78.1177004,28.9982838 77.9103052,28.3840444 Z" id="Path" fill="#FFC107"></path>
                        <path d="M62.7403917,74.9974664 C62.4826887,74.9974664 62.2218805,74.9362321 61.9809437,74.8168875 L39.001272,63.2554562 L16.0216003,74.8200118 C15.4453387,75.1136869 14.7498507,75.0418302 14.2344444,74.6494301 C13.7221429,74.2539058 13.4749962,73.5953236 13.6004325,72.9604853 L18.5073493,48.2611491 L0.496070747,30.137014 C0.0415196031,29.6765063 -0.117449103,28.9973042 0.0893343694,28.3830856 C0.296118001,27.7657428 0.832016293,27.3221058 1.47285889,27.2365025 L26.032903,23.9642107 L37.4817547,0.865092288 C38.0549114,-0.288364096 39.9439068,-0.288364096 40.5170634,0.865092288 L51.9665362,23.9642107 L76.5265803,27.2365025 C77.1674229,27.3221058 77.7033212,27.7657428 77.9101047,28.3830856 C78.1168883,28.9973042 77.9610244,29.6765063 77.5033685,30.137014 L59.4920899,48.2611491 L64.3990067,72.9604853 C64.5281688,73.5984478 64.2804011,74.2539058 63.7649948,74.6494301 C63.4700333,74.8781219 63.1036602,74.9974664 62.7403917,74.9974664 Z M39.001272,59.6413764 C39.262701,59.6413764 39.5204042,59.7026109 39.7607202,59.8225804 L60.3974663,70.2061866 L55.9916734,48.0324575 C55.8798985,47.476349 56.0562544,46.8958718 56.4567812,46.4934743 L72.6809036,30.168256 L50.6339312,27.2333783 C50.073815,27.1583974 49.5888361,26.8103611 49.3379638,26.3048647 L39.001272,5.4514245 L28.6676852,26.2979915 C28.4168127,26.8034878 27.931834,27.1515241 27.3723385,27.226505 L5.32536612,30.164507 L21.5494888,46.4897251 C21.9500153,46.8927476 22.1226455,47.4726 22.0139754,48.0287083 L17.6088036,70.2030622 L38.2449288,59.8188314 C38.4827608,59.7026109 38.740464,59.6413764 39.001272,59.6413764 Z" id="Shape" fill="#000000"></path>
                        <path d="M29.0001296,51 C28.2720988,51 27.6177684,50.5612535 27.3620604,49.8984664 L22.1120357,36.3035518 C21.7723736,35.4229473 22.231238,34.4440139 23.1342268,34.1147984 C24.0372157,33.7712693 25.048512,34.2268189 25.3881742,35.106801 L29.0001296,44.4605005 L32.612085,35.106801 C32.9517473,34.2268189 33.9630435,33.7712693 34.8660325,34.1147984 C35.7690213,34.4440139 36.2272448,35.4229473 35.8882234,36.3035518 L30.6381988,49.8984664 C30.3824908,50.5612535 29.7281603,51 29.0001296,51 Z" id="Path" fill="#000000"></path>
                        <path d="M38.5,51 C37.6722812,51 37,50.2379976 37,49.2998132 L37,35.7001868 C37,34.7613797 37.6722812,34 38.5,34 C39.3277188,34 40,34.7613797 40,35.7001868 L40,49.2998132 C40,50.2379976 39.3277188,51 38.5,51 L38.5,51 Z" id="Path" fill="#000000"></path>
                        <path d="M45.6668702,51 C44.74646,51 44,50.2379976 44,49.2998132 L44,35.7001868 C44,34.7613797 44.74646,34 45.6668702,34 L49,34 C51.7563477,34 54,36.2878749 54,39.0999377 C54,41.911378 51.7563477,44.1998755 49,44.1998755 L47.3331298,44.1998755 L47.3331298,49.2998132 C47.3331298,50.2379976 46.58667,51 45.6668702,51 L45.6668702,51 Z M47.3331298,40.8001245 L49,40.8001245 C49.9197998,40.8001245 50.6668702,40.0350092 50.6668702,39.0999377 C50.6668702,38.1648661 49.9197998,37.3997509 49,37.3997509 L47.3331298,37.3997509 L47.3331298,40.8001245 Z" id="Shape" fill="#000000"></path>
                    </g>
                </g>
            </g>
        </g>
    </g>
</svg>