<?xml version="1.0" encoding="UTF-8"?>
<svg width="131px" height="89px" viewBox="0 0 131 89" version="1.1" xmlns="http://www.w3.org/2000/svg" xmlns:xlink="http://www.w3.org/1999/xlink">
    <!-- Generator: Sketch 61.2 (89653) - https://sketch.com -->
    <title>whale (1)</title>
    <desc>Created with Sketch.</desc>
    <g id="Web-Kit" stroke="none" stroke-width="1" fill="none" fill-rule="evenodd">
        <g id="Anny_partner_landing" transform="translate(-655.000000, -718.000000)" fill-rule="nonzero">
            <g id="Key-Features" transform="translate(151.000000, 640.000000)">
                <g id="Card2" transform="translate(406.000000, 0.000000)">
                    <g id="whale-(1)" transform="translate(98.000000, 78.000000)">
                        <path d="M130,29.3895736 C129.998713,30.6936973 129.939123,31.9852716 129.821229,33.2601986 C128.892202,43.4775424 124.348268,52.6512286 117.482153,59.5065863 C109.748654,67.2247863 99.0642058,72 87.261689,72 L61.9550237,72 C34.3657321,72 12,49.678021 12,22.142364 L12,9.4630128 C12,6.9981881 14.0018893,5 16.4715026,5 L16.4715026,5 C18.9411158,5 20.9430052,6.99793199 20.9430052,9.4630128 L20.9430052,19.065431 C20.9430052,21.5671358 22.9749459,23.5952891 25.4815456,23.5952891 L124.23885,23.5952891 C127.43201,23.5958013 130.003336,26.2027683 130,29.3895736 Z" id="Path" fill="#268BA6"></path>
                        <path d="M17.462839,22.1421079 L17.462839,9.46275669 C17.462839,8.03621122 18.1304118,6.7689676 19.165519,5.95196939 C18.4123665,5.35753276 17.4656408,5 16.4340994,5 L16.4340994,5 C13.985144,5 12,6.99793199 12,9.4630128 L12,22.142364 C12,49.678021 34.1786477,72 61.537161,72 L67,72 C39.6414867,72 17.462839,49.6775088 17.462839,22.1421079 Z" id="Path" fill="#134E5E"></path>
                        <path d="M128,34 C127.078072,44.0224114 122.568856,53.0208512 115.755201,59.74525 C108.080792,67.316008 97.4779789,72 85.7656404,72 L61,72 L61,72 C64.5120957,66.0900557 70.9362819,62.4591768 77.8806936,62.4591768 L82.3180312,62.4591768 C90.1976254,62.4591768 97.6576746,58.9546614 102.623904,52.9193585 L112.013707,41.508958 C115.922917,36.7583927 121.794762,34 127.997451,34 L127.997451,34 C127.997451,34 127.997451,34 128,34 Z" id="Path" fill="#F2E5CB"></path>
                        <path d="M15.5,15 L19.6159004,15 C24.7985645,15 29,10.904239 29,5.8518058 L29,2.96313796 C29,2.43121126 28.5577705,2.00024868 28.0123882,2.00024868 L23.7315454,2.00024868 C15.9938059,2.00024868 15.5,9.24106665 15.5,9.24106665 C15.5,9.24106665 15.0061941,2 7.26819927,2 L2.98786715,2 C2.44222949,2 2,2.43096258 2,2.96288928 L2,5.8518058 C2,10.904239 6.20143552,15 11.3840996,15 L15.5,15 Z" id="Path" fill="#268BA6"></path>
                        <path d="M7.43737316,5.8518058 L7.43737316,2.96288928 C7.43737316,2.51128625 7.76364677,2.13503328 8.20206068,2.03108501 C7.93302805,2.012434 7.65697039,2 7.36842379,2 L3.00666077,2 C2.45064266,2 2,2.43096258 2,2.96288928 L2,5.8518058 C2,10.904239 6.28136546,15 11.5626268,15 L15.7568299,15 L17,15 C11.7187386,14.9997513 7.43737316,10.9039904 7.43737316,5.8518058 Z" id="Path" fill="#134E5E"></path>
                        <path d="M61.3987509,87 L59.7033994,87 C58.7625435,87 58,86.2370761 58,85.2957509 L58,50.7042491 C58,49.7629239 58.7625435,49 59.7033994,49 L64.6541476,49 C70.9204846,49 76,54.0823009 76,60.3515121 L76,72.3912157 C76.0002515,80.4595382 69.4630507,87 61.3987509,87 Z" id="Path" fill="#268BA6"></path>
                        <path d="M62.3649466,85.2960025 L62.3649466,50.7045008 C62.3649466,49.797648 63.0881285,49.0583768 64,49.0052841 C63.9306854,49.004026 63.862141,49 63.7923131,49 L58.7387685,49 C57.7783768,49 57,49.7629239 57,50.7042491 L57,85.2957509 C57,86.2370761 57.7783768,87 58.7387685,87 L60.4693219,87 C61.4030146,87 62.3153996,86.91168 63.201599,86.7506406 C62.7007372,86.4517114 62.3649466,85.9129845 62.3649466,85.2960025 Z" id="Path" fill="#134E5E"></path>
                        <circle id="Oval" fill="#000000" cx="102" cy="31" r="2"></circle>
                        <path d="M24.7109482,26.1576996 L57.0083949,26.1576996 C58.1082631,26.1576996 59,25.2506023 59,24.1317885 C59,23.0129748 58.1082631,22.1058774 57.0083949,22.1058774 L24.7109482,22.1058774 C23.3330634,22.1058774 22.2123567,20.9632812 22.2123567,19.5588184 L22.2123567,17.2348499 C27.1671003,16.0028106 30.8562839,11.4479358 30.8562839,6.03016819 L30.8562839,3.02710462 C30.8562839,1.35819024 29.5218551,0 27.8814555,0 L23.620991,0 C19.9351111,0 17.4779425,1.46391917 15.8995503,3.34015532 C15.598408,3.33524371 15.297774,3.35333913 14.9994271,3.39108099 C13.4225597,1.49028678 10.9544636,0 7.23503872,0 L2.97482836,0 C1.33442881,0 0,1.35793173 0,3.02710462 L0,6.03016819 C0,11.7136799 4.05970297,16.4469238 9.38140813,17.3909875 L9.38140813,22.6652843 C9.38140813,30.8159768 11.1697105,38.6238903 14.6970142,45.8723971 C15.0444079,46.5863905 15.7498686,47 16.4835376,47 C16.7801056,47 17.081502,46.9322714 17.3653636,46.7893177 C18.3511281,46.2932447 18.7546841,45.0780083 18.2667574,44.0750052 C15.0139125,37.3900415 13.3646184,30.1865148 13.3646184,22.6650258 L13.3646184,17.5652205 L18.2294005,17.5652205 L18.2294005,19.5585598 C18.2291464,23.197548 21.1368848,26.1576996 24.7109482,26.1576996 Z M3.98295616,6.03016819 L3.98295616,4.05182219 L7.23503872,4.05182219 C10.006056,4.05182219 11.5420087,5.29239223 12.3933392,6.61465014 C12.4418778,6.70978032 12.4962613,6.79974039 12.5575063,6.88375483 C13.2838056,8.15095097 13.4200184,9.42073218 13.440857,9.68751031 C13.5104882,10.7517793 14.3790994,11.585461 15.4276337,11.585461 C16.4761679,11.585461 17.3447792,10.7647046 17.4141563,9.70043561 C17.4365196,9.41659608 17.5841682,8.05090917 18.3895015,6.73330437 C18.4540501,6.64928993 18.5122455,6.55958837 18.5633254,6.46471669 C19.4334614,5.19958859 20.9559453,4.05182219 23.6204828,4.05182219 L26.8725653,4.05182219 L26.8725653,6.03016819 C26.8725653,10.1566986 23.5760103,13.5139153 19.5239312,13.5139153 L11.3315903,13.5139153 C7.27976534,13.5139153 3.98295616,10.1566986 3.98295616,6.03016819 Z" id="Shape" fill="#000000"></path>
                        <path d="M130.813591,33.8079264 C130.93743,32.4655827 131,31.1091979 131,29.7775767 C131.001775,27.7078963 130.20231,25.7589706 128.748921,24.2897451 C127.287873,22.8128608 125.342191,22 123.270628,22 L68.1680086,22 C67.062647,22 66.1669185,22.8958318 66.1669185,24.0007506 C66.1669185,25.1056695 67.062647,26.0015013 68.1680086,26.0015013 L123.270883,26.0015013 C124.265428,26.0015013 125.200478,26.3931245 125.903937,27.1041225 C126.610204,27.8181839 126.998829,28.7666066 126.998063,29.7763002 C126.998063,30.416326 126.981211,31.0619682 126.949549,31.7096528 C120.816312,32.2113084 115.17358,35.1719701 111.252853,40.005224 C110.556799,40.8632721 110.688299,42.1231553 111.546492,42.8193461 C112.405452,43.5155368 113.665294,43.3835491 114.361347,42.5257563 C115.971258,40.5413445 117.935835,38.9447266 120.125109,37.7869616 C113.269263,62.1768702 91.6757733,65.9557539 77.8236445,65.7111808 L77.8236445,64.5761371 C78.0863881,64.5643935 78.3498977,64.5564794 78.6134074,64.5564794 L83.0580895,64.5564794 C91.5955969,64.5564794 99.5762105,60.7530874 104.953645,54.1217874 L107.192456,51.3607668 C107.888254,50.5024634 107.756499,49.2423249 106.897795,48.5466448 C106.039856,47.8507093 104.779759,47.9826971 104.083195,48.8410005 L101.844385,51.602021 C97.2306685,57.2920466 90.3827377,60.5552334 83.0578342,60.5552334 L78.6134074,60.5552334 C78.3501531,60.5552334 78.0866435,60.5603393 77.8236445,60.5697852 L77.8236445,59.9616714 C77.8236445,52.5078094 71.7585825,46.4437759 64.3034561,46.4437759 L59.2773676,46.4437759 C57.2203584,46.4437759 55.546868,48.1169825 55.546868,50.1736428 L55.546868,69.8977713 C43.5094319,68.4203764 32.307209,62.2881791 24.5466974,52.8532242 C23.8445158,51.9997714 22.5839082,51.8769743 21.7300554,52.5787815 C20.8764578,53.2805888 20.7536399,54.5412378 21.4555662,55.3949459 C25.8476485,60.7347061 31.1648233,65.0754951 37.2597599,68.2975793 C42.9839447,71.3233412 49.1279064,73.210996 55.546868,73.9268445 L55.546868,85.2701331 C55.546868,87.3267935 57.2203584,89 59.2773676,89 L60.9986063,89 C69.5726272,89 76.6641511,82.5530233 77.6911237,74.2536227 L86.5135892,74.2536227 C98.3937366,74.2536227 109.565574,69.6220522 117.971838,61.211598 C118.890291,60.2920237 119.765082,59.3351763 120.594422,58.3451404 C125.779842,52.1557569 129.20036,44.6549205 130.45535,36.6991476 C130.606,35.7438319 130.725499,34.7818786 130.813335,33.8153299 C130.813591,33.8120111 130.813335,33.8099687 130.813591,33.8079264 Z M60.9980956,84.9974775 L59.5485374,84.9974775 L59.5485374,50.4440007 L64.3032008,50.4440007 C69.5514341,50.4440007 73.8214645,54.713307 73.8214645,59.9606502 L73.8214645,72.1760281 C73.8214645,79.2459258 68.0691924,84.9974775 60.9980956,84.9974775 Z M86.5133339,70.2511002 L77.8236445,70.2511002 L77.8236445,69.7116609 C78.2033333,69.717788 78.5873628,69.722128 78.9805845,69.722128 C85.9582274,69.722128 95.0018163,68.6994143 103.301603,64.6203032 C114.465781,59.1337482 121.652546,49.5410206 124.679077,36.0976715 C125.293166,35.9585354 125.915682,35.8479925 126.546114,35.7711486 C126.537688,35.8280795 126.529772,35.8850103 126.521091,35.9419412 C126.503472,36.0555477 126.485088,36.1691542 126.466448,36.2827607 C126.439382,36.4481922 126.411806,36.6133683 126.382697,36.7780339 C126.362525,36.8934275 126.341332,37.008821 126.319884,37.1239593 C126.289754,37.2868378 126.258602,37.4497163 126.226174,37.6120842 C126.203449,37.7272225 126.180213,37.8423608 126.156467,37.9572437 C126.122762,38.1193564 126.087781,38.281469 126.052289,38.443071 C126.027265,38.5576987 126.002242,38.6723264 125.975687,38.7866987 C125.938407,38.9493219 125.899341,39.1119452 125.860274,39.2740578 C125.833208,39.3856219 125.806908,39.497186 125.778821,39.6082396 C125.736179,39.7777558 125.691495,39.9465061 125.646811,40.1150011 C125.619489,40.2176299 125.593189,40.3207692 125.565102,40.4231427 C125.513524,40.6110402 125.459647,40.7981718 125.405515,40.9853034 C125.381514,41.0680191 125.358788,41.1512454 125.334276,41.2339612 C125.254866,41.5022767 125.172646,41.7698264 125.087874,42.0366101 C125.075873,42.0741386 125.062851,42.1119223 125.050595,42.1494507 C124.977057,42.3779402 124.901732,42.6061743 124.824109,42.8333873 C124.790915,42.929889 124.756189,43.0258801 124.722484,43.1223818 C124.663501,43.2901109 124.604773,43.4583506 124.543747,43.6253139 C124.503659,43.734325 124.462294,43.8430809 124.42144,43.9518368 C124.363733,44.1052694 124.306537,44.258702 124.247043,44.4111134 C124.202614,44.5252304 124.156909,44.6388369 124.111458,44.7524434 C124.052986,44.8987277 123.994258,45.0447567 123.934253,45.1905304 C123.88625,45.3069452 123.837225,45.4228493 123.787689,45.5390088 C123.727429,45.6809531 123.666914,45.8228973 123.604866,45.964331 C123.553543,46.0812564 123.501965,46.1976711 123.44962,46.3140858 C123.386807,46.4539878 123.323228,46.5933791 123.258882,46.7325151 C123.205261,46.848164 123.15164,46.9638128 123.096998,47.0789511 C123.03112,47.2180871 122.963966,47.3569679 122.896301,47.495338 C122.840893,47.6091998 122.785229,47.7228063 122.728799,47.8361575 C122.659092,47.9758041 122.587852,48.1146848 122.516357,48.2535656 C122.459417,48.3641085 122.403242,48.4746514 122.34528,48.5849391 C122.270211,48.727394 122.193609,48.869083 122.117007,49.0107719 C122.060067,49.1159537 122.004148,49.2211354 121.946186,49.3258066 C121.861924,49.4787286 121.775109,49.6303741 121.688804,49.7822749 C121.63646,49.8739259 121.585647,49.9660876 121.532792,50.0574834 C121.398229,50.2892917 121.261622,50.5198235 121.122718,50.7488235 C121.093865,50.7963085 121.064501,50.8430276 121.035392,50.8905125 C120.913085,51.0904089 120.789756,51.2895394 120.66413,51.4871381 C120.606934,51.5767468 120.548461,51.6655896 120.490499,51.7546877 C120.395769,51.9014826 120.300783,52.0477669 120.204264,52.1935406 C120.138898,52.2920847 120.071744,52.3893523 120.005356,52.4871304 C119.913944,52.6219265 119.822533,52.7567225 119.729334,52.8907526 C119.658861,52.9921049 119.587111,53.0926913 119.515616,53.1932777 C119.424205,53.3224572 119.332283,53.4511262 119.239084,53.5792845 C119.165291,53.6808921 119.090221,53.7819891 119.015152,53.8830861 C118.921953,54.0086915 118.828499,54.1337863 118.734024,54.2583705 C118.657422,54.3592122 118.580055,54.4597986 118.502432,54.5601297 C118.406679,54.683948 118.310161,54.8072557 118.212622,54.9297976 C118.134488,55.0285969 118.055844,55.1268857 117.976434,55.2249191 C117.876852,55.3482268 117.776248,55.4705134 117.675134,55.5925446 C117.595979,55.6882804 117.516568,55.7840162 117.436392,55.8789861 C117.331959,56.0028044 117.226504,56.125091 117.120538,56.2476328 C117.041638,56.3390286 116.962739,56.430935 116.882818,56.5215648 C116.770979,56.6484467 116.657609,56.7743074 116.544238,56.8999127 C116.467892,56.9844155 116.392312,57.0694289 116.31571,57.1531659 C116.188807,57.291536 116.059605,57.4283744 115.930404,57.5649575 C115.865037,57.6343978 115.800437,57.7046041 115.734559,57.7732786 C115.538459,57.9777702 115.340571,58.1812407 115.139875,58.381903 C107.490436,66.0361719 97.3238671,70.2511002 86.5133339,70.2511002 Z" id="Shape" fill="#000000"></path>
                    </g>
                </g>
            </g>
        </g>
    </g>
</svg>