<?xml version="1.0" encoding="UTF-8"?>
<svg width="283px" height="224px" viewBox="0 0 283 224" version="1.1" xmlns="http://www.w3.org/2000/svg" xmlns:xlink="http://www.w3.org/1999/xlink">
    <!-- Generator: Sketch 56.3 (81716) - https://sketch.com -->
    <title>Signals</title>
    <desc>Created with Sketch.</desc>
    <g id="MAIN-PAGE" stroke="none" stroke-width="1" fill="none" fill-rule="evenodd">
        <g id="Artboard" transform="translate(-667.000000, -2670.000000)" fill-rule="nonzero">
            <g id="Signals" transform="translate(667.000000, 2671.000000)">
                <g id="Bitcoin" transform="translate(204.000000, 0.000000)">
                    <ellipse id="Oval" fill="#FED966" cx="28.4761905" cy="35.461803" rx="21.6666667" ry="21.5708671"></ellipse>
                    <path d="M22.2857143,41.6249079 C22.2857143,45.0288678 25.0575,47.7880128 28.4761905,47.7880128 C31.8952679,47.7880128 34.6666667,45.0284826 34.6666667,41.6249079 C34.6662798,33.1352309 22.2857143,37.7760489 22.2857143,29.2990833 C22.2857143,25.8951234 25.0571131,23.1359784 28.4761905,23.1359784 C31.8952679,23.1359784 34.6666667,25.8951234 34.6666667,29.2990833" id="Path" fill="#FED966"></path>
                    <path d="M28.3214286,10.1866863 C14.731365,10.1866863 3.71428571,21.173997 3.71428571,34.7273397 C3.71428571,48.2806825 14.731365,59.2679931 28.3214286,59.2679931 C41.9114922,59.2679931 52.9285714,48.2806825 52.9285714,34.7273397 C52.913192,21.1805156 41.9049559,10.2020242 28.3214286,10.1866863 Z M9.86607143,34.7273397 C9.88145089,25.7554302 16.3761987,18.0998967 25.2455357,16.5990824 L25.2455357,19.9550167 C21.5694593,21.2464686 19.1056691,24.7055504 19.09375,28.5925598 C19.09375,35.0678413 24.2962383,36.6840734 27.4021211,37.6499782 C30.8748041,38.7297669 31.3973214,39.150409 31.3973214,40.8625031 C31.3973214,42.5565751 30.0200904,43.9300847 28.3214286,43.9300847 C26.6227667,43.9300847 25.2455357,42.5565751 25.2455357,40.8625031 L19.09375,40.8625031 C19.1056691,44.7495125 21.5694593,48.2085943 25.2455357,49.4996627 L25.2455357,52.8555971 C16.3761987,51.3547827 9.88145089,43.6992492 9.86607143,34.7273397 Z M31.3973214,52.8555971 L31.3973214,49.4996627 C35.0733979,48.2082108 37.5371881,44.7491291 37.5491071,40.8621196 C37.5491071,34.3780189 32.343543,32.760253 29.2345843,31.7928144 C25.768053,30.7160932 25.2455357,30.2966014 25.2455357,28.5921764 C25.2455357,26.8981044 26.6227667,25.5245947 28.3214286,25.5245947 C30.0200904,25.5245947 31.3973214,26.8981044 31.3973214,28.5921764 L37.5491071,28.5921764 C37.5371881,24.7051669 35.0733979,21.2460852 31.3973214,19.9546333 L31.3973214,16.5986989 C41.4366512,18.2801171 48.2082294,27.7593279 46.5222556,37.7715311 C45.2207684,45.5014535 39.1478025,51.5576266 31.3973214,52.8555971 Z" id="Shape" fill="#000000"></path>
                    <path d="M63.9829337,31.9369372 C63.9829337,49.0289884 49.8822391,62.8847795 32.488083,62.8847795 C23.3185822,62.8847795 15.0643603,59.0346153 9.30915837,52.889258 C7.79740554,51.2761807 6.45919576,49.503943 5.32023912,47.6028613 C2.57054583,43.0074225 0.993232285,37.6528142 0.993232285,31.9369372 C0.993232285,14.844886 15.0939269,0.989094937 32.488083,0.989094937 C38.3062746,0.989094937 43.7555265,2.53901341 48.4309049,5.24221269 C50.3655886,6.36012454 52.1678654,7.67509205 53.8094541,9.16185165 C60.0634316,14.8145698 63.9829337,22.926694 63.9829337,31.9369372 Z" id="Path" fill="#F0CD00"></path>
                    <path d="M63.9829337,31.9369372 C63.9829337,48.6437193 50.5121361,62.2582436 33.6604627,62.8633055 C16.8087893,62.2582436 3.33799178,48.6437193 3.33799178,31.9369372 C3.33799178,15.2301551 16.8087893,1.61563085 33.6604627,1.01056895 C50.5121361,1.61563085 63.9829337,15.2301551 63.9829337,31.9369372 Z" id="Path" fill="#FFDE50"></path>
                    <path d="M53.8094541,9.16185165 L9.30915837,52.889258 C7.79740554,51.2761807 6.45919576,49.503943 5.32023912,47.6028613 L48.4309049,5.24221269 C50.3655886,6.36012454 52.1678654,7.67509205 53.8094541,9.16185165 Z" id="Path" fill="#FFEA94"></path>
                    <path d="M61.8104317,20.6226587 L20.9725372,60.7512732 C18.0814384,59.6346245 15.3985913,58.1099696 12.9985552,56.2493095 L57.2301806,12.7859071 C59.1237281,15.144259 60.6753316,17.7805099 61.8104317,20.6226587 Z" id="Path" fill="#FFEA94"></path>
                    <path d="M56.9615102,31.9369372 C56.9615102,45.2179827 46.0038732,55.9853054 32.488083,55.9853054 C27.7805669,55.9853054 23.3841429,54.6791802 19.6523244,52.4155666 C18.0261617,51.4302883 16.5272639,50.2618494 15.1826266,48.940566 C14.194074,47.9704459 13.2890791,46.9156929 12.480497,45.790202 C11.3672505,44.2402835 10.43526,42.5552051 9.71666317,40.7652829 C8.65226577,38.1189266 8.05322086,35.2414089 8.01722674,32.2325207 C8.01465573,32.1339929 8.01465573,32.035465 8.01465573,31.9369372 C8.01465573,18.6558918 18.9710073,7.888569 32.488083,7.888569 C32.5883523,7.888569 32.6899071,7.888569 32.7901764,7.89109536 C35.8522472,7.92646432 38.7793401,8.51636809 41.4724712,9.56101566 C43.2940305,10.2683949 45.008893,11.1829352 46.5862065,12.2768467 C47.7315907,13.0726484 48.8037011,13.960662 49.7922538,14.9320453 C51.1368911,16.2520655 52.3259824,17.7261933 53.3286756,19.3241125 C55.632299,22.991116 56.9615102,27.3111822 56.9615102,31.9369372 Z" id="Path" fill="#FAA300"></path>
                    <path d="M49.7922538,14.9320453 L15.1826266,48.940566 C14.194074,47.9704459 13.2890791,46.9156929 12.480497,45.790202 C11.3672505,44.2402835 10.43526,42.5552051 9.71666317,40.7652829 C8.65226577,38.1189266 8.05322086,35.2414089 8.01722674,32.2325207 C8.01465573,32.1339929 8.01465573,32.035465 8.01465573,31.9369372 C8.01465573,18.6558918 18.9710073,7.888569 32.488083,7.888569 C32.5883523,7.888569 32.6899071,7.888569 32.7901764,7.89109536 C35.8522472,7.92646432 38.7793401,8.51636809 41.4724712,9.56101566 C43.2940305,10.2683949 45.008893,11.1829352 46.5862065,12.2768467 C47.7315907,13.0726484 48.8037011,13.960662 49.7922538,14.9320453 Z" id="Path" fill="#FFBD00"></path>
                    <path d="M56.9608675,31.9369372 C56.9608675,45.2179827 46.0032304,55.9853054 32.4874402,55.9853054 C32.0233732,55.9853054 31.5631628,55.9726737 31.1055233,55.9474101 C43.9785615,55.2438204 54.1957481,44.7619757 54.1957481,31.9369372 C54.1957481,19.1118987 43.9785615,8.63005404 31.1055233,7.92646432 C31.5631628,7.90120077 32.0233732,7.888569 32.4874402,7.888569 C46.0032304,7.888569 56.9608675,18.6558918 56.9608675,31.9369372 Z" id="Path" fill="#F68E00"></path>
                    <path d="M32.5,63.8983051 C23.8189604,63.8983051 15.6574059,60.5749606 9.51908911,54.5405565 C3.38064356,48.5062789 0,40.4830559 0,31.9491525 C0,23.4152492 3.38064356,15.3920262 9.51908911,9.35774862 C15.6574059,3.32334452 23.8189604,0 32.5,0 C35.4847228,0 38.4420297,0.397814398 41.2895446,1.18243497 C41.8028515,1.32389696 42.1023663,1.84761 41.9584653,2.35234335 C41.8145644,2.85695016 41.2822079,3.15151502 40.7683861,3.01005303 C38.0906436,2.2721225 35.3085149,1.89796946 32.5,1.89796946 C24.3347129,1.89796946 16.6580198,5.02379862 10.8842178,10.6997396 C5.11041584,16.3756805 1.93069307,23.9222601 1.93069307,31.9491525 C1.93069307,39.976045 5.11041584,47.5226246 10.8843465,53.1985655 C16.6580198,58.8745065 24.3347129,62.0003356 32.5,62.0003356 C40.6652871,62.0003356 48.3419802,58.8745065 54.1157822,53.1985655 C59.8895842,47.5226246 63.0693069,39.976045 63.0693069,31.9491525 C63.0693069,25.8796993 61.2378515,20.0318023 57.7731584,15.0378651 C54.3894257,10.1608428 49.6772475,6.39767545 44.1459406,4.15541433 C43.653099,3.95562141 43.4183267,3.40090821 43.6215644,2.91629334 C43.8246733,2.431805 44.3889505,2.20088538 44.8820495,2.40080483 C50.7625545,4.78465447 55.7716733,8.78468837 59.3681683,13.9684226 C63.0524455,19.2788146 65,25.4965625 65,31.9491525 C65,40.4830559 61.6193564,48.5062789 55.4809109,54.5405565 C49.3425941,60.5749606 41.1810396,63.8983051 32.5,63.8983051 Z" id="Path" stroke="#000000" stroke-width="2" fill="#000000"></path>
                    <path d="M32.9643502,56.4898059 C18.8839838,56.4898059 7.42857143,45.273162 7.42857143,31.4861213 C7.42857143,17.6990807 18.8839838,6.48243675 32.9643502,6.48243675 C47.0447167,6.48243675 58.5,17.6990807 58.5,31.4861213 C58.5,45.273162 47.0447167,56.4898059 32.9643502,56.4898059 Z M32.9643502,8.37782314 C19.9512062,8.37782314 9.36428306,18.7441968 9.36428306,31.4861213 C9.36428306,44.2280459 19.9512062,54.5944195 32.9643502,54.5944195 C45.9773653,54.5944195 56.5642884,44.2280459 56.5642884,31.4861213 C56.5642884,18.7441968 45.9773653,8.37782314 32.9643502,8.37782314 Z" id="Shape" stroke="#000000" fill="#000000"></path>
                    <path d="M43.6428571,37.4437379 C43.6428571,34.2966756 41.902394,31.5240482 39.2751872,29.9171142 C40.3547703,28.5268343 40.9937669,26.8192577 40.9937669,24.9739794 C40.9937669,21.787255 39.0929578,19.0081825 36.2955906,17.5732828 L36.2955906,14.5176912 C36.2955906,13.1486057 35.1080491,12.0388111 33.643052,12.0388111 C32.178055,12.0388111 30.9905135,13.1486057 30.9905135,14.5176912 L30.9905135,16.5374827 L27.7891647,16.5374827 L27.7891647,14.5176912 C27.7891647,13.1486057 26.6016232,12.0388111 25.1366261,12.0388111 C23.6716291,12.0388111 22.4840876,13.1486057 22.4840876,14.5176912 L22.4840876,16.5374827 L19.3668243,16.5374827 C17.9018272,16.5374827 16.7142857,17.6472774 16.7142857,19.0163628 C16.7142857,20.3854483 17.9018272,21.4952429 19.3668243,21.4952429 L20.2822153,21.4952429 L20.2822153,30.9317198 L20.2822153,41.4769997 L19.3668243,41.4769997 C17.9018272,41.4769997 16.7142857,42.5867944 16.7142857,43.9558799 C16.7142857,45.3249653 17.9018272,46.43476 19.3668243,46.43476 L22.4840876,46.43476 L22.4840876,48.4545515 C22.4840876,49.823637 23.6716291,50.9334316 25.1366261,50.9334316 C26.6016232,50.9334316 27.7891647,49.823637 27.7891647,48.4545515 L27.7891647,46.43476 L30.9905135,46.43476 L30.9905135,48.4545515 C30.9905135,49.823637 32.178055,50.9334316 33.643052,50.9334316 C35.1080491,50.9334316 36.2955906,49.823637 36.2955906,48.4545515 L36.2955906,46.1789395 C40.5064956,45.2214721 43.6428571,41.6694848 43.6428571,37.4437379 Z M25.5874251,21.4952429 L31.9662498,21.4952429 C34.0189168,21.4952429 35.6886898,23.0558219 35.6886898,24.9739794 C35.6886898,26.8921368 34.0187841,28.4527158 31.9662498,28.4527158 L25.5874251,28.4527158 L25.5874251,21.4952429 Z M34.0219672,41.4769997 L25.5872924,41.4769997 L25.5872924,33.4105999 L31.9661172,33.4105999 L34.0219672,33.4105999 C36.4015595,33.4105999 38.3376474,35.2199345 38.3376474,37.4438618 C38.3376474,39.6677891 36.4016921,41.4769997 34.0219672,41.4769997 Z" id="Shape" fill="#F68E00"></path>
                    <path d="M47.3571429,37.4437379 C47.3571429,34.2966756 45.6166797,31.5240482 42.9894729,29.9171142 C44.0690561,28.5268343 44.7080526,26.8192577 44.7080526,24.9739794 C44.7080526,21.787255 42.8072435,19.0081825 40.0098763,17.5732828 L40.0098763,14.5176912 C40.0098763,13.1486057 38.8223348,12.0388111 37.3573378,12.0388111 C35.8923407,12.0388111 34.7047992,13.1486057 34.7047992,14.5176912 L34.7047992,16.5374827 L31.5034504,16.5374827 L31.5034504,14.5176912 C31.5034504,13.1486057 30.3159089,12.0388111 28.8509119,12.0388111 C27.3859148,12.0388111 26.1983733,13.1486057 26.1983733,14.5176912 L26.1983733,16.5374827 L23.08111,16.5374827 C21.6161129,16.5374827 20.4285714,17.6472774 20.4285714,19.0163628 C20.4285714,20.3854483 21.6161129,21.4952429 23.08111,21.4952429 L23.996501,21.4952429 L23.996501,30.9317198 L23.996501,41.4769997 L23.08111,41.4769997 C21.6161129,41.4769997 20.4285714,42.5867944 20.4285714,43.9558799 C20.4285714,45.3249653 21.6161129,46.43476 23.08111,46.43476 L26.1983733,46.43476 L26.1983733,48.4545515 C26.1983733,49.823637 27.3859148,50.9334316 28.8509119,50.9334316 C30.3159089,50.9334316 31.5034504,49.823637 31.5034504,48.4545515 L31.5034504,46.43476 L34.7047992,46.43476 L34.7047992,48.4545515 C34.7047992,49.823637 35.8923407,50.9334316 37.3573378,50.9334316 C38.8223348,50.9334316 40.0098763,49.823637 40.0098763,48.4545515 L40.0098763,46.1789395 C44.2209139,45.2214721 47.3571429,41.6694848 47.3571429,37.4437379 Z M29.3017108,21.4952429 L35.6805355,21.4952429 C37.7332025,21.4952429 39.4029755,23.0558219 39.4029755,24.9739794 C39.4029755,26.8921368 37.7330698,28.4527158 35.6805355,28.4527158 L29.3017108,28.4527158 L29.3017108,21.4952429 L29.3017108,21.4952429 Z M37.7363855,41.4769997 L29.3017108,41.4769997 L29.3017108,33.4105999 L35.6805355,33.4105999 L37.7363855,33.4105999 C40.1159779,33.4105999 42.0520657,35.2199345 42.0520657,37.4438618 C42.0520657,39.6677891 40.1159779,41.4769997 37.7363855,41.4769997 Z" id="Shape" fill="#FFEA94"></path>
                    <path d="M37.3414924,51.859494 C35.339668,51.859494 33.7109331,50.2960413 33.7109331,48.3741706 L33.7109331,47.2593741 L32.5045313,47.2593741 L32.5045313,48.3741706 C32.5045313,50.2960413 30.8757964,51.859494 28.873972,51.859494 C26.8721476,51.859494 25.2434127,50.2960413 25.2434127,48.3741706 L25.2434127,47.2593741 L23.1305593,47.2593741 C21.1287349,47.2593741 19.5,45.6959214 19.5,43.7740507 C19.5,41.8775278 21.0860923,40.3300442 23.0516111,40.2894877 L23.0516111,39.28356 C23.0516111,38.758607 23.4948034,38.3330173 24.0417636,38.3330173 C24.5887239,38.3330173 25.0319162,38.758607 25.0319162,39.28356 L25.0319162,41.2391433 C25.0319162,41.7640964 24.5887239,42.1896861 24.0417636,42.1896861 L23.1305593,42.1896861 C22.2205431,42.1896861 21.4803051,42.9003118 21.4803051,43.773924 C21.4803051,44.6475361 22.2205431,45.3581619 23.1305593,45.3581619 L26.2335653,45.3581619 C26.7805255,45.3581619 27.2237178,45.7837515 27.2237178,46.3087046 L27.2237178,48.3740439 C27.2237178,49.247656 27.9639558,49.9582818 28.873972,49.9582818 C29.7839882,49.9582818 30.5242262,49.247656 30.5242262,48.3740439 L30.5242262,46.3087046 C30.5242262,45.7837515 30.9674185,45.3581619 31.5143788,45.3581619 L34.7010856,45.3581619 C35.2480459,45.3581619 35.6912382,45.7837515 35.6912382,46.3087046 L35.6912382,48.3740439 C35.6912382,49.247656 36.4314762,49.9582818 37.3414924,49.9582818 C38.2515086,49.9582818 38.9917466,49.247656 38.9917466,48.3740439 L38.9917466,46.0471152 C38.9917466,45.6087249 39.3041067,45.2271137 39.7478271,45.1234412 C43.6088938,44.221693 46.3054092,40.9285059 46.3054092,37.1150552 C46.3054092,34.3281906 44.8475086,31.7482909 42.4056605,30.2139882 C42.1789816,30.0715335 42.0230656,29.8461915 41.973954,29.5904321 C41.9251065,29.3346728 41.9874201,29.0708021 42.1465046,28.8604153 C43.142202,27.5432165 43.668435,25.9883821 43.668435,24.3640947 C43.668435,21.5632888 42.0732333,18.9828821 39.5055698,17.6298162 C39.1887209,17.4629009 38.9917466,17.1435185 38.9917466,16.7965071 L38.9917466,13.6720097 C38.9917466,12.7983976 38.2515086,12.0877718 37.3414924,12.0877718 C36.4314762,12.0877718 35.6912382,12.7983976 35.6912382,13.6720097 L35.6912382,15.737349 C35.6912382,16.262302 35.2480459,16.6878917 34.7010856,16.6878917 L31.5143788,16.6878917 C30.9674185,16.6878917 30.5242262,16.262302 30.5242262,15.737349 L30.5242262,13.6720097 C30.5242262,12.7983976 29.7839882,12.0877718 28.873972,12.0877718 C27.9639558,12.0877718 27.2237178,12.7983976 27.2237178,13.6720097 L27.2237178,15.737349 C27.2237178,16.262302 26.7805255,16.6878917 26.2335653,16.6878917 L23.1305593,16.6878917 C22.2205431,16.6878917 21.4803051,17.3985175 21.4803051,18.2721296 C21.4803051,19.1457418 22.2205431,19.8563675 23.1305593,19.8563675 L24.0417636,19.8563675 C24.5887239,19.8563675 25.0319162,20.2819572 25.0319162,20.8069103 L25.0319162,35.4812623 C25.0319162,36.0062154 24.5887239,36.4318051 24.0417636,36.4318051 C23.4948034,36.4318051 23.0516111,36.0062154 23.0516111,35.4812623 L23.0516111,21.7566926 C21.0859603,21.7162628 19.5,20.1686525 19.5,18.2721296 C19.5,16.3502589 21.1287349,14.7868062 23.1305593,14.7868062 L25.2434127,14.7868062 L25.2434127,13.6720097 C25.2434127,11.750139 26.8721476,10.1866863 28.873972,10.1866863 C30.8757964,10.1866863 32.5045313,11.750139 32.5045313,13.6720097 L32.5045313,14.7868062 L33.7109331,14.7868062 L33.7109331,13.6720097 C33.7109331,11.750139 35.339668,10.1866863 37.3414924,10.1866863 C39.3434488,10.1866863 40.9720517,11.750139 40.9720517,13.6720097 L40.9720517,16.2533036 C43.8712183,18.0028092 45.6487401,21.0602616 45.6487401,24.3642214 C45.6487401,26.0730438 45.1824442,27.7200175 44.2922311,29.1795442 C46.8094629,31.099894 48.2857143,34.0020911 48.2857143,37.1151819 C48.2857143,41.5551037 45.3156528,45.4219116 40.9721837,46.7658523 L40.9721837,48.3741706 C40.9720517,50.2959145 39.3434488,51.859494 37.3414924,51.859494 Z M37.7186745,42.1898128 L29.3225771,42.1898128 C28.7756169,42.1898128 28.3324246,41.7642231 28.3324246,41.23927 L28.3324246,32.9909671 C28.3324246,32.466014 28.7756169,32.0404244 29.3225771,32.0404244 L37.7186745,32.0404244 C40.6334195,32.0404244 43.0047688,34.3169109 43.0047688,37.1151819 C43.0047688,39.913453 40.6335515,42.1898128 37.7186745,42.1898128 Z M30.3128617,40.2887273 L37.7188065,40.2887273 C39.5416113,40.2887273 41.0245957,38.8650678 41.0245957,37.1150552 C41.0245957,35.3650427 39.5416113,33.9413831 37.7188065,33.9413831 L30.3128617,33.9413831 L30.3128617,40.2887273 L30.3128617,40.2887273 Z M35.6722272,28.8719486 L29.3225771,28.8719486 C28.7756169,28.8719486 28.3324246,28.4463589 28.3324246,27.9214058 L28.3324246,20.8069103 C28.3324246,20.2819572 28.7756169,19.8563675 29.3225771,19.8563675 L35.6722272,19.8563675 C38.2614101,19.8563675 40.3677946,21.8786155 40.3677946,24.3640947 C40.3677946,26.8495738 38.2615421,28.8719486 35.6722272,28.8719486 Z M30.3128617,26.9708631 L35.6723593,26.9708631 C37.1696019,26.9708631 38.3876215,25.801442 38.3876215,24.3642214 C38.3876215,22.9270008 37.1694699,21.7575797 35.6723593,21.7575797 L30.3128617,21.7575797 L30.3128617,26.9708631 Z" id="Shape" fill="#000000"></path>
                </g>
                <g id="Litecoin" transform="translate(201.000000, 157.000000)">
                    <ellipse id="Oval" fill="#FED966" cx="26.127451" cy="30.3080629" rx="22.3039216" ry="22.2654665"></ellipse>
                    <path d="M19.754902,36.6696247 C19.754902,40.1831949 22.6082108,43.0311866 26.127451,43.0311866 C29.6470895,43.0311866 32.5,40.1827973 32.5,36.6696247 C32.4996017,27.9065733 19.754902,32.6968294 19.754902,23.9468986 C19.754902,20.4333285 22.6078125,17.5853367 26.127451,17.5853367 C29.6470895,17.5853367 32.5,20.4333285 32.5,23.9468986" id="Path" fill="#FED966"></path>
                    <path d="M51.6176471,30.1102941 C51.6176471,16.1205227 40.2765361,4.77941176 26.2867647,4.77941176 C12.2969933,4.77941176 0.955882353,16.1205227 0.955882353,30.1102941 C0.955882353,44.1000655 12.2969933,55.4411765 26.2867647,55.4411765 C40.2698076,55.4253447 51.6018153,44.093337 51.6176471,30.1102941 Z M7.28860294,30.1102941 C7.30443474,20.8494818 13.9902045,12.9474339 23.1204044,11.3982922 L23.1204044,14.8622903 C19.3362081,16.195328 16.7999535,19.765795 16.7876838,23.7779693 C16.7876838,30.4617601 22.1431865,32.1300362 25.3404188,33.1270439 C28.9152395,34.2416027 29.453125,34.6757899 29.453125,36.4430147 C29.453125,38.1916372 28.0353872,39.609375 26.2867647,39.609375 C24.5381422,39.609375 23.1204044,38.1916372 23.1204044,36.4430147 L16.7876838,36.4430147 C16.7999535,40.455189 19.3362081,44.025656 23.1204044,45.3582979 L23.1204044,48.8222961 C13.9902045,47.2731543 7.30443474,39.3711064 7.28860294,30.1102941 L7.28860294,30.1102941 Z M29.453125,48.8222961 L29.453125,45.3582979 C33.2373213,44.0252602 35.7735759,40.4547932 35.7858456,36.4426189 C35.7858456,29.7497248 30.4271766,28.0798656 27.2267779,27.0812747 C23.6582899,25.9698822 23.1204044,25.5368825 23.1204044,23.7775735 C23.1204044,22.0289511 24.5381422,20.6112132 26.2867647,20.6112132 C28.0353872,20.6112132 29.453125,22.0289511 29.453125,23.7775735 L35.7858456,23.7775735 C35.7735759,19.7653992 33.2373213,16.1949322 29.453125,14.8618945 L29.453125,11.3978964 C39.7877292,13.1334576 46.7584714,22.9179067 45.0229102,33.2525109 C43.683144,41.2313431 37.4315614,47.4825299 29.453125,48.8222961 L29.453125,48.8222961 Z" id="Shape" fill="#000000"></path>
                    <path d="M64.0350396,32.4998713 C64.0350396,49.9160099 49.9165248,64.0345248 32.5003861,64.0345248 C23.319297,64.0345248 15.0546436,60.1113564 9.29216832,53.8494752 C7.77850495,52.2058119 6.43860396,50.3999703 5.29820792,48.4628416 C2.5450396,43.7802673 0.965732673,38.3241287 0.965732673,32.4998713 C0.965732673,15.0837327 15.0842475,0.965217822 32.5003861,0.965217822 C38.3259307,0.965217822 43.7820693,2.54452475 48.4633564,5.2989802 C50.4004851,6.43808911 52.2050396,7.7779901 53.848703,9.29294059 C60.1105842,15.0528416 64.0350396,23.3187822 64.0350396,32.4998713 Z" id="Path" fill="#F0CD00"></path>
                    <path d="M64.0350396,32.4998713 C64.0350396,49.5234356 50.5472178,63.3961089 33.6742475,64.0126436 C16.8012772,63.3961089 3.31345545,49.5234356 3.31345545,32.4998713 C3.31345545,15.4763069 16.8012772,1.60363366 33.6742475,0.98709901 C50.5472178,1.60363366 64.0350396,15.4763069 64.0350396,32.4998713 Z" id="Path" fill="#FFDE50"></path>
                    <path d="M53.848703,9.29294059 L9.29216832,53.8494752 C7.77850495,52.2058119 6.43860396,50.3999703 5.29820792,48.4628416 L48.4633564,5.2989802 C50.4004851,6.43808911 52.2050396,7.7779901 53.848703,9.29294059 Z" id="Path" fill="#FFEA94"></path>
                    <path d="M61.8597921,20.9710594 L20.9702871,61.8605644 C18.0755347,60.7227426 15.389297,59.1691782 12.9862277,57.2732376 L57.2737525,12.9857129 C59.1696931,15.3887822 60.7232574,18.0750198 61.8597921,20.9710594 Z" id="Path" fill="#FFEA94"></path>
                    <path d="M57.0047426,32.4998713 C57.0047426,46.0327426 46.0332574,57.0042277 32.5003861,57.0042277 C27.7869208,57.0042277 23.3849406,55.6733366 19.6484059,53.366802 C18.0201881,52.3628416 16.519396,51.1722475 15.1730594,49.8259109 C14.1832574,48.837396 13.2771188,47.7626436 12.4675149,46.6158119 C11.3528614,45.036505 10.4196931,43.3194752 9.70018812,41.4956139 C8.63444554,38.7990792 8.03464356,35.867 7.99860396,32.8010594 C7.9960297,32.7006634 7.9960297,32.6002673 7.9960297,32.4998713 C7.9960297,18.967 18.9662277,7.99551485 32.5003861,7.99551485 C32.6007822,7.99551485 32.7024653,7.99551485 32.8028614,7.99808911 C35.868802,8.03412871 38.7995941,8.63521782 41.4961287,9.69967327 C43.3199901,10.4204653 45.0370198,11.3523465 46.6163267,12.467 C47.7631584,13.2778911 48.8366238,14.1827426 49.8264257,15.1725446 C51.1727624,16.5175941 52.3633564,18.0196733 53.3673168,19.6478911 C55.6738515,23.3844257 57.0047426,27.7864059 57.0047426,32.4998713 Z" id="Path" fill="#FAA300"></path>
                    <path d="M49.8264257,15.1725446 L15.1730594,49.8259109 C14.1832574,48.837396 13.2771188,47.7626436 12.4675149,46.6158119 C11.3528614,45.036505 10.4196931,43.3194752 9.70018812,41.4956139 C8.63444554,38.7990792 8.03464356,35.867 7.99860396,32.8010594 C7.9960297,32.7006634 7.9960297,32.6002673 7.9960297,32.4998713 C7.9960297,18.967 18.9662277,7.99551485 32.5003861,7.99551485 C32.6007822,7.99551485 32.7024653,7.99551485 32.8028614,7.99808911 C35.868802,8.03412871 38.7995941,8.63521782 41.4961287,9.69967327 C43.3199901,10.4204653 45.0370198,11.3523465 46.6163267,12.467 C47.7631584,13.2778911 48.8366238,14.1827426 49.8264257,15.1725446 Z" id="Path" fill="#FFBD00"></path>
                    <path d="M57.0042277,32.4998713 C57.0042277,46.0327426 46.0327426,57.0042277 32.4998713,57.0042277 C32.0352178,57.0042277 31.5744257,56.9913564 31.1162079,56.9656139 C44.0055149,56.2486832 54.2356139,45.5680891 54.2356139,32.4998713 C54.2356139,19.4316535 44.0055149,8.75105941 31.1162079,8.03412871 C31.5744257,8.00838614 32.0352178,7.99551485 32.4998713,7.99551485 C46.0327426,7.99551485 57.0042277,18.967 57.0042277,32.4998713 Z" id="Path" fill="#F68E00"></path>
                    <path d="M32.5,65 C23.8189604,65 15.6574059,61.6193564 9.51908911,55.4809109 C3.38077228,49.3424653 0,41.1810396 0,32.5 C0,23.8189604 3.38064356,15.6574059 9.51908911,9.51908911 C15.6575347,3.38077228 23.8189604,0 32.5,0 C41.1810396,0 49.3425941,3.38064356 55.4809109,9.51908911 C61.6192277,15.6575347 65,23.8189604 65,32.5 C65,41.1810396 61.6193564,49.3425941 55.4809109,55.4809109 C49.3424653,61.6192277 41.1810396,65 32.5,65 Z M32.5,1.93069307 C24.3347129,1.93069307 16.6580198,5.11041584 10.8842178,10.8842178 C5.11041584,16.6580198 1.93069307,24.3347129 1.93069307,32.5 C1.93069307,40.6652871 5.11041584,48.3419802 10.8842178,54.1157822 C16.6580198,59.8895842 24.3347129,63.0693069 32.5,63.0693069 C40.6652871,63.0693069 48.3419802,59.8895842 54.1157822,54.1157822 C59.8895842,48.3419802 63.0693069,40.6652871 63.0693069,32.5 C63.0693069,24.3347129 59.8895842,16.6580198 54.1157822,10.8842178 C48.3419802,5.11041584 40.6652871,1.93069307 32.5,1.93069307 Z" id="Shape" stroke="#000000" stroke-width="2" fill="#000000"></path>
                    <path d="M32.5,57.9694455 C18.4561386,57.9694455 7.03055446,46.5438614 7.03055446,32.5 C7.03055446,24.8471188 10.426,17.6695743 16.3464059,12.8075743 C16.7585446,12.4693168 17.3667129,12.5289109 17.705099,12.9409208 C18.0434851,13.3529307 17.9837624,13.9612277 17.5717525,14.2996139 C12.0995248,18.793495 8.96124752,25.4272277 8.96124752,32.5 C8.96124752,45.4792772 19.5207228,56.0387525 32.5,56.0387525 C45.4794059,56.0387525 56.0388812,45.4792772 56.0388812,32.5 C56.0388812,19.5207228 45.4794059,8.96124752 32.5,8.96124752 C28.5809505,8.96124752 24.7014158,9.94345545 21.2806139,11.8016832 C20.812099,12.0561485 20.2260693,11.8826436 19.971604,11.4142574 C19.7171386,10.9457426 19.8906436,10.3597129 20.3590297,10.1052475 C24.0617129,8.09385149 28.2600693,7.03068317 32.5,7.03068317 C46.5439901,7.03068317 57.9695743,18.4562673 57.9695743,32.5001287 C57.9695743,46.5439901 46.5439901,57.9694455 32.5,57.9694455 Z" id="Path" stroke="#000000" fill="#000000"></path>
                    <path d="M39.7502673,43.0893366 L24.4944455,43.0893366 L28.583396,33.449 L36.239495,30.7551683 C37.5805545,30.2833069 38.2852574,28.8135347 37.813396,27.4724752 C37.3415347,26.1314158 35.8717624,25.4265842 34.530703,25.8985743 L31.3045149,27.0336931 L35.8842475,16.2363564 C36.4393861,14.927604 35.8283861,13.4163861 34.519505,12.8612475 C33.2110099,12.3062376 31.6996634,12.9171089 31.144396,14.2259901 L24.7308911,29.3465347 L17.6932574,31.8227129 C16.352198,32.2945743 15.647495,33.7643465 16.1193564,35.1054059 C16.4918515,36.1639406 17.4857723,36.8259109 18.5476535,36.8259109 C18.8310792,36.8259109 19.1195248,36.7786733 19.4020495,36.6793069 L22.0097723,35.7618416 L18.236297,44.6583465 C17.8990693,45.4534059 17.9829901,46.3645644 18.4597426,47.0847129 C18.936495,47.8048614 19.7426238,48.2378515 20.6061584,48.2378515 L39.7502673,48.2378515 C41.1720297,48.2378515 42.3245248,47.0853564 42.3245248,45.6635941 C42.3245248,44.2418317 41.1720297,43.0893366 39.7502673,43.0893366 Z" id="Path" fill="#F68E00"></path>
                    <path d="M42.9683465,43.0893366 L27.712396,43.0893366 L31.8013465,33.449 L39.4574455,30.7551683 C40.798505,30.2833069 41.5032079,28.8135347 41.0313465,27.4724752 C40.5594851,26.1314158 39.0897129,25.4265842 37.7486535,25.8985743 L34.5224653,27.0336931 L39.102198,16.2363564 C39.6573366,14.927604 39.0463366,13.4163861 37.7374554,12.8612475 C36.4289604,12.3062376 34.9176139,12.9171089 34.3623465,14.2259901 L27.9489703,29.3465347 L20.9113366,31.8227129 C19.5702772,32.2945743 18.8655743,33.7643465 19.3374356,35.1054059 C19.7099307,36.1639406 20.7038515,36.8259109 21.7657327,36.8259109 C22.0491584,36.8259109 22.337604,36.7786733 22.6201287,36.6793069 L25.2278515,35.7618416 L21.4543762,44.6583465 C21.1171485,45.4534059 21.2010693,46.3645644 21.6778218,47.0847129 C22.1545743,47.8048614 22.960703,48.2378515 23.8242376,48.2378515 L42.9683465,48.2378515 C44.3901089,48.2378515 45.542604,47.0853564 45.542604,45.6635941 C45.542604,44.2418317 44.3901089,43.0893366 42.9683465,43.0893366 Z" id="Path" fill="#FFEA94"></path>
                    <path d="M42.9683465,49.203198 L40.6396733,49.203198 C40.1065446,49.203198 39.6743267,48.7709802 39.6743267,48.2378515 C39.6743267,47.7047228 40.1065446,47.272505 40.6396733,47.272505 L42.9683465,47.272505 C43.8555644,47.272505 44.5772574,46.5508119 44.5772574,45.6635941 C44.5772574,44.7763762 43.8555644,44.0546832 42.9683465,44.0546832 L27.712396,44.0546832 C27.3885545,44.0546832 27.0862079,43.8922475 26.9075545,43.6222079 C26.7287723,43.3521683 26.6972376,43.0105644 26.8237624,42.7123366 L30.9128416,33.072 C31.018901,32.8221683 31.225099,32.6284554 31.4812376,32.5383564 L39.1373366,29.8445248 C39.974099,29.5500297 40.4154554,28.6297327 40.1210891,27.7928416 C39.9784752,27.387396 39.6864257,27.0618812 39.2988713,26.8760198 C38.9114455,26.6902871 38.4747228,26.6664752 38.0694059,26.8090891 L34.8432178,27.9442079 C34.4823069,28.0712475 34.0809802,27.9731683 33.8190495,27.694505 C33.5572475,27.4157129 33.4847822,27.0087228 33.6339604,26.6566931 L38.2136931,15.8593564 C38.3815347,15.4636931 38.3852673,15.0264554 38.2242475,14.6280891 C38.063099,14.2295941 37.756505,13.9178515 37.3608416,13.7500099 C36.5440297,13.4035149 35.5979901,13.7861782 35.2513663,14.6029901 L28.8379901,29.7235347 C28.7319307,29.9733663 28.5257327,30.1670792 28.2695941,30.2571782 L21.2319604,32.7333564 C20.3950693,33.0278515 19.9538416,33.9481485 20.2482079,34.7850396 C20.4746139,35.4283465 21.0845842,35.8605644 21.7659901,35.8605644 C21.9470891,35.8605644 22.1266436,35.8296733 22.3000198,35.7686634 L24.9077426,34.851198 C25.2685248,34.7241584 25.6699802,34.8222376 25.9319109,35.100901 C26.1937129,35.3796931 26.2661782,35.7866832 26.117,36.1387129 L22.3435248,45.0352178 C22.1321782,45.5334653 22.1843069,46.1003168 22.4830495,46.5517129 C22.7817921,47.0029802 23.2833861,47.2723762 23.8246238,47.2723762 L36.7784158,47.2723762 C37.3115446,47.2723762 37.7437624,47.7045941 37.7437624,48.2377228 C37.7437624,48.7708515 37.3115446,49.203198 36.7784158,49.203198 L23.8242376,49.203198 C22.6335149,49.203198 21.5301881,48.6103465 20.8728515,47.6174554 C20.2155149,46.6246931 20.1005743,45.3774653 20.5656139,44.2813465 L23.4850792,37.398297 L22.940495,37.5898218 C22.5607921,37.7234257 22.1655149,37.7911287 21.7657327,37.7911287 C20.2664851,37.7911287 18.9245248,36.8404554 18.4267921,35.4256436 C17.7789802,33.5845347 18.7498614,31.5596238 20.5908416,30.9119406 L27.226505,28.5770891 L33.4735842,13.8487327 C34.2358218,12.0520297 36.3176238,11.2102475 38.1143267,11.9722277 C38.9848119,12.3413762 39.6592673,13.0274158 40.0137426,13.9039505 C40.3682178,14.7804851 40.3599802,15.7426139 39.9908317,16.6129703 L36.2652376,25.3967228 L37.4282871,24.9875446 C38.3200099,24.6736139 39.2808515,24.7258713 40.1334455,25.1347921 C40.9860396,25.5435842 41.6283168,26.2598713 41.9421188,27.1517228 C42.2559208,28.0435743 42.2036634,29.0042871 41.7948713,29.8568812 C41.3860792,30.7094752 40.6697921,31.3517525 39.7779406,31.6655545 L32.5238119,34.2180594 L29.1705842,42.1238614 L42.9684752,42.1238614 C44.9202772,42.1238614 46.5080792,43.7116634 46.5080792,45.6634653 C46.5080792,47.6152673 44.9201485,49.203198 42.9683465,49.203198 Z" id="Path" fill="#000000"></path>
                </g>
                <g id="Ripple" transform="translate(217.000000, 77.000000)">
                    <circle id="Oval" fill="#F59536" cx="28.1985294" cy="32.9779412" r="22.4632353"></circle>
                    <path d="M21.9852941,39.4300462 C21.9852941,42.9937359 24.7672702,45.8823529 28.1985294,45.8823529 C31.6301769,45.8823529 34.4117647,42.9933326 34.4117647,39.4300462 C34.4113764,30.5419938 21.9852941,35.4005807 21.9852941,26.5258361 C21.9852941,22.9621465 24.7668819,20.0735294 28.1985294,20.0735294 C31.6301769,20.0735294 34.4117647,22.9621465 34.4117647,26.5258361" id="Path" fill="#F59536"></path>
                    <path d="M28.1985294,7.64705882 C14.208758,7.64705882 2.86764706,18.9881698 2.86764706,32.9779412 C2.86764706,46.9677125 14.208758,58.3088235 28.1985294,58.3088235 C42.1883008,58.3088235 53.5294118,46.9677125 53.5294118,32.9779412 C53.51358,18.9948983 42.1815723,7.66289062 28.1985294,7.64705882 Z M9.20036765,32.9779412 C9.21619945,23.7171289 15.9019692,15.815081 25.0321691,14.2659392 L25.0321691,17.7299374 C21.2479728,19.0629751 18.7117182,22.6334421 18.6994485,26.6456164 C18.6994485,33.3294072 24.0549512,34.9976832 27.2521835,35.9946909 C30.8270043,37.1092498 31.3648897,37.5434369 31.3648897,39.3106618 C31.3648897,41.0592842 29.9471519,42.4770221 28.1985294,42.4770221 C26.4499069,42.4770221 25.0321691,41.0592842 25.0321691,39.3106618 L18.6994485,39.3106618 C18.7117182,43.3228361 21.2479728,46.8933031 25.0321691,48.225945 L25.0321691,51.6899431 C15.9019692,50.1408014 9.21619945,42.2387534 9.20036765,32.9779412 Z M31.3648897,51.6899431 L31.3648897,48.225945 C35.1490861,46.8929073 37.6853406,43.3224403 37.6976103,39.310266 C37.6976103,32.6173719 32.3389413,30.9475126 29.1385426,29.9489218 C25.5700546,28.8375293 25.0321691,28.4045295 25.0321691,26.6452206 C25.0321691,24.8965981 26.4499069,23.4788603 28.1985294,23.4788603 C29.9471519,23.4788603 31.3648897,24.8965981 31.3648897,26.6452206 L37.6976103,26.6452206 C37.6853406,22.6330463 35.1490861,19.0625793 31.3648897,17.7295416 L31.3648897,14.2655434 C41.6994939,16.0011047 48.6702361,25.7855538 46.9346749,36.120158 C45.5949087,44.0989901 39.3433261,50.3501769 31.3648897,51.6899431 L31.3648897,51.6899431 Z" id="Shape" fill="#000000"></path>
                    <path d="M64.1130866,32.499871 C64.1130866,49.9591133 49.9596294,64.1125704 32.5003871,64.1125704 C23.2965754,64.1125704 15.0114676,60.1796926 9.23473059,53.9023137 C7.71732102,52.2545824 6.37410387,50.4442714 5.23088543,48.5023485 C2.47090322,43.8081852 0.887687618,38.338543 0.887687618,32.499871 C0.887687618,15.0406287 15.0411448,0.887171492 32.5003871,0.887171492 C38.3403495,0.887171492 43.8099916,2.47038709 48.5028646,5.23165962 C50.4447876,6.37358774 52.2538082,7.71680489 53.9015395,9.23550478 C60.1789184,15.0096611 64.1130866,23.2960593 64.1130866,32.499871 Z" id="Path" fill="#F0CD00"></path>
                    <path d="M64.1130866,32.499871 C64.1130866,49.5655674 50.5918834,63.4725746 33.6771537,64.0906351 C16.762424,63.4725746 3.24122084,49.5655674 3.24122084,32.499871 C3.24122084,15.4341745 16.762424,1.52716737 33.6771537,0.909106834 C50.5918834,1.52716737 64.1130866,15.4341745 64.1130866,32.499871 Z" id="Path" fill="#FFDE50"></path>
                    <path d="M53.9015395,9.23550478 L9.23473059,53.9023137 C7.71732102,52.2545824 6.37410387,50.4442714 5.23088543,48.5023485 L48.5028646,5.23165962 C50.4447876,6.37358774 52.2538082,7.71680489 53.9015395,9.23550478 Z" id="Path" fill="#FFEA94"></path>
                    <path d="M61.9324555,20.9425261 L20.9417519,61.9332297 C18.0398351,60.7925918 15.3469493,59.2351825 12.9379325,57.3345496 L57.3350657,12.9374164 C59.2356987,15.3464331 60.793108,18.039319 61.9324555,20.9425261 Z" id="Path" fill="#FFEA94"></path>
                    <path d="M57.0653901,32.499871 C57.0653901,46.0662351 46.0667513,57.0648739 32.5003871,57.0648739 C27.7752563,57.0648739 23.3623815,55.730689 19.6165992,53.4184458 C17.9843516,52.4120007 16.4798452,51.21846 15.1301765,49.8687913 C14.1379248,48.8778299 13.2295436,47.8004175 12.4179359,46.6507475 C11.3005237,45.0675319 10.3650459,43.3462527 9.64376022,41.5178774 C8.57538,38.814669 7.97409356,35.8753331 7.93796476,32.8018045 C7.93538413,32.70116 7.93538413,32.6005155 7.93538413,32.499871 C7.93538413,18.9335068 18.9327326,7.934868 32.5003871,7.934868 C32.6010316,7.934868 32.7029664,7.934868 32.8036109,7.93744863 C35.8771395,7.97357743 38.8151851,8.57615419 41.5183935,9.64324409 C43.3467688,10.3658201 45.068048,11.3000076 46.6512636,12.4174198 C47.8009336,13.2303177 48.8770557,14.1374087 49.8693074,15.1296603 C51.2189761,16.4780387 52.4125168,17.9838355 53.4189619,19.616083 C55.7312051,23.3618653 57.0653901,27.7747401 57.0653901,32.499871 Z" id="Path" fill="#FAA300"></path>
                    <path d="M49.8693074,15.1296603 L15.1301765,49.8687913 C14.1379248,48.8778299 13.2295436,47.8004175 12.4179359,46.6507475 C11.3005237,45.0675319 10.3650459,43.3462527 9.64376022,41.5178774 C8.57538,38.814669 7.97409356,35.8753331 7.93796476,32.8018045 C7.93538413,32.70116 7.93538413,32.6005155 7.93538413,32.499871 C7.93538413,18.9335068 18.9327326,7.934868 32.5003871,7.934868 C32.6010316,7.934868 32.7029664,7.934868 32.8036109,7.93744863 C35.8771395,7.97357743 38.8151851,8.57615419 41.5183935,9.64324409 C43.3467688,10.3658201 45.068048,11.3000076 46.6512636,12.4174198 C47.8009336,13.2303177 48.8770557,14.1374087 49.8693074,15.1296603 Z" id="Path" fill="#FFBD00"></path>
                    <path d="M57.0647449,32.499871 C57.0647449,46.0662351 46.0661061,57.0648739 32.4997419,57.0648739 C32.0339385,57.0648739 31.572006,57.0519708 31.1126541,57.0261645 C44.0338611,56.3074595 54.2892789,45.6004317 54.2892789,32.499871 C54.2892789,19.3993102 44.0338611,8.69228248 31.1126541,7.97357743 C31.572006,7.94777115 32.0339385,7.934868 32.4997419,7.934868 C46.0661061,7.934868 57.0647449,18.9335068 57.0647449,32.499871 Z" id="Path" fill="#F68E00"></path>
                    <path d="M32.5,65 C23.8189604,65 15.6574059,61.6193564 9.51908911,55.4809109 C3.38064356,49.3425941 0,41.1810396 0,32.5 C0,23.8189604 3.38064356,15.6574059 9.51908911,9.51908911 C15.6574059,3.38064356 23.8189604,0 32.5,0 C41.1810396,0 49.3425941,3.38064356 55.4809109,9.51908911 C61.6193564,15.6574059 65,23.8189604 65,32.5 C65,41.1810396 61.6193564,49.3425941 55.4809109,55.4809109 C49.3425941,61.6193564 41.1810396,65 32.5,65 Z M32.5,1.93069307 C24.3347129,1.93069307 16.6580198,5.11041584 10.8842178,10.8842178 C5.11041584,16.6580198 1.93069307,24.3347129 1.93069307,32.5 C1.93069307,40.6652871 5.11041584,48.3419802 10.8843465,54.1157822 C16.6580198,59.8895842 24.3347129,63.0693069 32.5,63.0693069 C40.6652871,63.0693069 48.3419802,59.8895842 54.1157822,54.1157822 C59.8895842,48.3419802 63.0693069,40.6652871 63.0693069,32.5 C63.0693069,24.3347129 59.8895842,16.6580198 54.1156535,10.8842178 C48.3419802,5.11041584 40.6652871,1.93069307 32.5,1.93069307 Z" id="Shape" stroke="#000000" stroke-width="2" fill="#000000"></path>
                    <path d="M32.088672,58.4177215 C18.0245086,58.4177215 6.58227848,46.9755914 6.58227848,32.9113924 C6.58227848,18.8470645 18.0245086,7.40506329 32.088672,7.40506329 C46.1528355,7.40506329 57.5949367,18.8470645 57.5949367,32.9113924 C57.5949367,41.6609457 53.1880108,49.7009086 45.8062263,54.4186218 C45.3563689,54.7060671 44.7584068,54.574461 44.471091,54.1246025 C44.1836464,53.6747441 44.3151233,53.0770382 44.7649806,52.7894639 C51.5881172,48.4289306 55.6614526,40.9978879 55.6614526,32.9115213 C55.6614526,19.9134481 45.0867124,9.33868119 32.088672,9.33868119 C19.0905028,9.33868119 8.5157626,19.9134481 8.5157626,32.9115213 C8.5157626,45.9095945 19.0905028,56.4842325 32.088672,56.4842325 C35.2713158,56.4842325 38.3584454,55.8611335 41.2639565,54.632079 C41.7557059,54.4241644 42.3229902,54.6541207 42.5309042,55.1458714 C42.7389471,55.6376221 42.5088624,56.2049078 42.0172419,56.4129512 C38.8719788,57.7433206 35.5315628,58.4177215 32.088672,58.4177215 Z" id="Path" stroke="#000000" fill="#000000"></path>
                    <path d="M32.7169607,34.3862879 L32.7169607,34.3862879 C32.2658441,33.6021519 32.2668794,32.6383209 32.7195488,31.8550873 L32.7438776,31.8130639 C33.3194847,30.8171352 34.3902071,30.2284209 35.5438802,30.2217178 C38.1458884,30.2066358 40.6680519,28.8100668 41.9837438,26.3305575 C43.7605168,22.9819632 42.4742005,18.5260652 39.1869764,16.6225085 C35.6818292,14.5927527 31.1905924,15.7860367 29.1648383,19.2811973 C27.8098063,21.6190387 27.9028507,24.3925829 29.1650971,26.5744479 C29.7375985,27.5640602 29.7515745,28.7784848 29.1794614,29.768226 L29.1794614,29.768226 C28.7143688,30.572987 27.853158,31.0688888 26.9209022,31.0688888 L26.7836002,31.0688888 C25.8086398,31.0688888 24.9302177,30.5189753 24.4679721,29.663941 C23.1912319,27.302123 20.6465515,25.7214761 17.7408224,25.8285971 C13.9395895,25.9687181 10.7074933,29.3066132 10.6962025,33.0956798 C10.6843293,37.1341797 13.9672828,40.4117468 18.018791,40.4117468 C20.8291463,40.4117468 23.2683592,38.8340648 24.495536,36.5198131 C24.9355234,35.6899155 25.7954401,35.1662988 26.737531,35.1662988 L26.9580423,35.1662988 C27.865193,35.1662988 28.7031103,35.6499546 29.1540974,36.4339617 L29.1540974,36.4339617 C29.6247546,37.2519999 29.5887792,38.2575966 29.0836994,39.0550099 C27.6345878,41.3428357 27.5163088,44.3557586 29.0716645,46.8290803 C31.0223619,49.9309484 35.4340127,51.1139199 38.6839672,49.4059137 C42.3789561,47.4640719 43.6846836,42.8747561 41.6150602,39.3039276 C40.2164177,36.890805 37.6428792,35.5762203 35.0297419,35.6611695 C34.0804042,35.6917202 33.1893002,35.207291 32.7169607,34.3862879 Z" id="Path" fill="#F68E00"></path>
                    <path d="M36.0080999,34.3862879 L36.0080999,34.3862879 C35.5569834,33.6021519 35.5580186,32.6383209 36.0106881,31.8550873 L36.0350168,31.8130639 C36.6106239,30.8171352 37.6813464,30.2284209 38.8350194,30.2217178 C41.4370277,30.2066358 43.9591911,28.8100668 45.2748831,26.3305575 C47.051656,22.9819632 45.7653397,18.5260652 42.4781157,16.6225085 C38.9729684,14.5927527 34.4817316,15.7860367 32.4559775,19.2811973 C31.1009455,21.6190387 31.1939899,24.3925829 32.4562364,26.5744479 C33.0287377,27.5640602 33.0427138,28.7784848 32.4706007,29.768226 L32.4706007,29.768226 C32.005508,30.572987 31.1442972,31.0688888 30.2120414,31.0688888 L30.0747395,31.0688888 C29.099779,31.0688888 28.221357,30.5189753 27.7591113,29.663941 C26.4823712,27.302123 23.9376907,25.7214761 21.0319617,25.8285971 C17.2307288,25.9687181 13.9986326,29.3066132 13.9873418,33.0956798 C13.9754685,37.1341797 17.2584221,40.4117468 21.3099302,40.4117468 C24.1202855,40.4117468 26.5594984,38.8340648 27.7866752,36.5198131 C28.2266627,35.6899155 29.0865794,35.1662988 30.0286702,35.1662988 L30.2491816,35.1662988 C31.1563322,35.1662988 31.9942495,35.6499546 32.4452367,36.4339617 L32.4452367,36.4339617 C32.9158939,37.2519999 32.8799184,38.2575966 32.3748387,39.0550099 C30.925727,41.3428357 30.807448,44.3557586 32.3628037,46.8290803 C34.3135011,49.9309484 38.725152,51.1139199 41.9751065,49.4059137 C45.6700954,47.4640719 46.9758229,42.8747561 44.9061995,39.3039276 C43.5075569,36.890805 40.9340185,35.5762203 38.3208811,35.6611695 C37.371414,35.6917202 36.4804394,35.207291 36.0080999,34.3862879 Z" id="Path" fill="#FFEA94"></path>
                    <path d="M38.645353,50.1898734 C35.8481415,50.1898734 33.0383571,48.812552 31.5287121,46.4101371 C29.8340661,43.7134315 29.8391979,40.3666262 31.5421831,37.6759317 C31.8574034,37.1779013 31.8761345,36.5602873 31.5909351,36.0641753 C31.3158711,35.585841 30.8016655,35.2887366 30.2485866,35.2887366 L30.0299723,35.2887366 C29.4554682,35.2887366 28.9298444,35.6074556 28.658116,36.12045 C27.2290402,38.8176671 24.4427337,40.4931162 21.3862384,40.4931162 C19.1855977,40.4931162 17.1177421,39.6374861 15.5639637,38.0839228 C14.0101854,36.5303594 13.1580513,34.4663597 13.164557,32.2722888 C13.1771673,28.0037307 16.7996992,24.264154 21.0751235,24.1063293 C22.0519601,24.0698787 23.0135296,24.203403 23.9328902,24.5017864 C24.4381151,24.6658781 24.7144621,25.2071377 24.5499882,25.7109234 C24.3853859,26.2147092 23.8416726,26.4899433 23.3370891,26.3259795 C22.6335204,26.0975557 21.8964668,25.9957498 21.1463271,26.0233755 C17.8725004,26.144238 15.0986385,29.0084885 15.0890164,32.2777884 C15.0840129,33.9584812 15.7366485,35.5392866 16.9267111,36.7292391 C18.116902,37.9191916 19.700573,38.5745352 21.3862384,38.5745352 C23.7272336,38.5745352 25.8615459,37.2908343 26.9564137,35.2242766 C27.5624784,34.0806227 28.7400963,33.3701556 30.0299723,33.3701556 L30.2485866,33.3701556 C31.4894539,33.3701556 32.643594,34.036882 33.2605636,35.1101926 C33.900883,36.2240464 33.8661151,37.5994494 33.1697309,38.6996183 C31.8649728,40.7610601 31.861124,43.3252645 33.1594673,45.3916943 C33.9538688,46.655827 35.3084053,47.62196 36.8760394,48.0426128 C38.4436736,48.4632656 40.1017556,48.3051851 41.4247316,47.6091703 C42.9568281,46.80342 44.0642688,45.4484805 44.543065,43.7941345 C45.0219895,42.1387652 44.8101748,40.4057626 43.9463659,38.9142293 C42.7824755,36.9045857 40.6083918,35.7027388 38.2825353,35.7790932 C36.979445,35.8204039 35.7669309,35.1523985 35.1232759,34.0325335 C34.5083589,32.9628041 34.5096418,31.6343392 35.1267398,30.5657609 L35.1513724,30.5231712 C35.8795737,29.2623638 37.2605389,28.4732401 38.7550451,28.4644152 C41.0834674,28.4509861 43.2059766,27.1672851 44.2944297,25.1146682 C45.8247301,22.2286753 44.7230626,18.4027682 41.8889022,16.7601887 C40.4312166,15.9155577 38.7311822,15.6884129 37.1027363,16.1209601 C35.4739055,16.5535073 34.1125694,17.5930531 33.2698009,19.0483916 C32.1497873,20.9823202 32.1499156,23.3876767 33.2704423,25.3259538 C34.0103185,26.60569 34.0158351,28.186879 33.2849397,29.4522907 C32.6538575,30.5447858 31.4763679,31.2234066 30.2118943,31.2234066 L30.0757735,31.2234066 C28.7696041,31.2234066 27.5654292,30.4959292 26.9328075,29.3250333 C26.6644148,28.8281539 26.329437,28.3686205 25.936855,27.9590947 C25.5696752,27.5760435 25.5834028,26.9689171 25.9676457,26.6028762 C26.351632,26.2368354 26.9607758,26.2506482 27.3280838,26.6336994 C27.83998,27.1676688 28.2770804,27.7671215 28.6271969,28.4155586 C28.9236862,28.9641083 29.4786895,29.3049535 30.0757735,29.3049535 L30.2118943,29.3049535 C30.790119,29.3049535 31.3285722,28.9946757 31.6172355,28.4949826 C32.0068669,27.8203266 32.0014785,26.9730098 31.6031231,26.2837735 C30.140819,23.7542292 30.1409473,20.6141051 31.6032514,18.0891651 C32.7036359,16.189257 34.4807755,14.8318875 36.6073901,14.2670949 C38.7337481,13.7023023 40.9531199,13.9987673 42.8561167,15.1014941 C46.5563953,17.2460689 47.9941951,22.2419765 45.9958753,26.0110974 C44.5755236,28.6900253 41.8053823,30.3650907 38.766335,30.3828683 C37.9534592,30.3876005 37.2072966,30.8085091 36.8186916,31.4811188 L36.794059,31.5237084 C36.5175838,32.0025543 36.5169423,32.5986817 36.7929044,33.0788065 C37.0815677,33.5809296 37.6269489,33.8804641 38.2197992,33.8617912 C41.261284,33.7633106 44.0933917,35.3313263 45.6129154,37.9551306 C46.7407549,39.9024884 47.0173585,42.1649841 46.3920497,44.3260576 C45.7669974,46.4861079 44.3217565,48.2546658 42.3227952,49.306106 C41.1816129,49.9061982 39.9147018,50.1898734 38.645353,50.1898734 Z" id="Path" fill="#000000"></path>
                </g>
                <g id="marketing" transform="translate(0.000000, 51.000000)">
                    <path d="M29.5302013,83.0458716 L44.9432961,138.416298 C45.7505253,141.314929 48.3951135,143.321101 51.4097635,143.321101 L69.7986577,143.321101 L53.9217103,86.28637 L29.5302013,83.0458716 Z" id="Path" fill="#707487"></path>
                    <path d="M9.12751678,42.8623853 C5.56923756,42.8623853 2.68456376,45.8604866 2.68456376,49.5595547 L2.68456376,69.6514545 C2.68456376,73.3501309 5.56961429,76.3486239 9.12751678,76.3486239 L18.7919463,76.3486239 L18.7919463,42.8623853 L9.12751678,42.8623853 L9.12751678,42.8623853 Z" id="Path" fill="#7F8499"></path>
                    <path d="M139.59779,2.67889908 L129.530408,2.67889908 C125.823913,2.67889908 122.819081,5.6417327 122.819081,9.29728735 L122.819081,10.8479763 C111.492393,15.9303814 72.5794906,32.1582422 24.6944762,38.3737687 C21.3317491,38.810299 18.7919463,41.594341 18.7919463,44.9391386 L18.7919463,72.932421 C18.7919463,76.2772187 21.3321415,79.0612606 24.6944762,79.497791 C72.5794906,85.7133174 111.492393,101.941565 122.819081,107.023583 L122.819081,108.574272 C122.819081,112.22944 125.824305,115.192661 129.530408,115.192661 L139.597398,115.192661 C143.303893,115.192661 146.308725,112.229053 146.308725,108.574272 L146.308725,9.29767434 C146.308725,5.6417327 143.304286,2.67889908 139.59779,2.67889908 Z" id="Path" fill="#268BA6"></path>
                    <path d="M105.883121,71.8454423 C88.6022603,69.3758264 60.9716759,65.8510743 25.9986167,64.2340269 C22.6576191,64.0791908 20.1342282,63.0942937 20.1342282,61.9103216 L20.1342282,74.3100135 C20.1342282,77.6628549 22.6548898,80.455337 25.9947178,80.892681 C66.6707496,86.2207495 100.752902,98.8614269 116.832111,105.606692 C117.23994,105.777438 122.514809,108.0538 123.489933,108.495413 L123.489933,12.0550459 C121.228161,13.0791371 117.813473,14.5681246 113.487994,16.3229335 L113.487994,65.2748047 C113.487215,69.3176173 109.904093,72.4201597 105.883121,71.8454423 Z" id="Path" fill="#134E5E"></path>
                    <path d="M47.0229901,100.178808 C46.4336759,97.626744 48.6447549,95.3233468 51.1623847,95.8461342 C53.3922635,96.3090066 55.5592207,96.8043819 57.7181208,97.3024984 L54.7197549,86.28637 L30.8724832,83.0458716 L45.9414298,138.416298 C46.730635,141.314929 49.316174,143.321101 52.263512,143.321101 L57.1103906,143.321101 L47.0229901,100.178808 Z" id="Path" fill="#5B5D6E"></path>
                    <path d="M139.240251,0 L129.279487,0 C124.591087,0 120.666031,3.33300461 119.736117,7.75872105 C112.089462,11.5929411 74.5624566,29.4012644 25.1472986,35.9197887 C22.3723091,36.2859717 19.9894757,37.7974007 18.4488071,39.9310685 L9.7530377,39.9310685 C4.37506385,39.9314576 0,44.3163141 0,49.7063254 L0,69.6720542 C0,75.0620655 4.37506385,79.446922 9.7530377,79.446922 L18.4495837,79.446922 C19.989864,81.5805898 22.3730856,83.092408 25.1476868,83.4582018 C25.6442884,83.5239669 26.1373956,83.5928451 26.6320558,83.660945 L41.9253656,138.840558 C43.09368,143.05536 46.9577762,146 51.3227449,146 L69.5051965,146 C69.508691,146 69.5117972,146 69.5152916,146 C69.5195627,146 69.5230571,146 69.5273281,146 L72.83697,146 C74.555856,146 75.9497572,144.60259 75.9497572,142.879467 C75.9497572,141.156734 74.5562443,139.759713 72.83697,139.759713 L71.8829824,139.759713 L57.9940572,89.6502356 C90.6509502,97.625709 113.899204,108.69253 119.736505,111.619269 C120.666031,116.044986 124.591475,119.377991 129.279875,119.377991 L139.240251,119.377991 C144.618225,119.377991 148.993289,114.993134 148.993289,109.603123 L148.993289,9.7748678 C148.993289,4.3848565 144.618225,0 139.240251,0 Z M6.22518625,69.6720542 L6.22518625,49.7063254 C6.22518625,47.756722 7.80778833,46.1705776 9.7530377,46.1705776 L16.6010144,46.1705776 L16.6010144,73.2074129 L9.7530377,73.2074129 C7.80778833,73.2074129 6.22518625,71.6216576 6.22518625,69.6720542 Z M65.4213377,139.759713 L51.3227449,139.759713 C49.7440256,139.759713 48.3466299,138.695019 47.9241885,137.170359 L33.3701511,84.6629867 C39.4986573,85.6467387 45.4163311,86.7915956 51.0874513,88.0446341 L65.4213377,139.759713 Z M142.767714,109.603512 C142.767714,111.553115 141.185112,113.13926 139.239863,113.13926 L129.279487,113.13926 C127.334238,113.13926 125.751636,111.553115 125.751636,109.603512 L125.751636,109.59962 C125.751636,109.592616 125.751636,109.585611 125.751636,109.578218 L125.751636,36.3968773 C125.751636,34.6741439 124.358123,33.2771227 122.638848,33.2771227 C120.919962,33.2771227 119.526061,34.6737547 119.526061,36.3968773 L119.526061,104.580851 C107.27099,98.7483848 71.5444081,83.2854226 25.9595664,77.2720052 C24.1727325,77.0365741 22.8258123,75.527869 22.8258123,73.7631082 L22.8258123,45.6144932 C22.8258123,43.8497324 24.1731208,42.3414165 25.9595664,42.1055962 C71.5444081,36.0925679 107.27099,20.6292166 119.526061,14.7971395 L119.526061,23.0862617 C119.526061,24.8089951 120.919574,26.2060162 122.638848,26.2060162 C124.357734,26.2060162 125.751636,24.8093842 125.751636,23.0862617 L125.751636,9.79665977 C125.751636,9.79276835 125.751636,9.78887692 125.751636,9.7849855 L125.751636,9.7748678 C125.751636,7.8252644 127.334238,6.23912001 129.279487,6.23912001 L139.239863,6.23912001 C141.185112,6.23912001 142.767714,7.8252644 142.767714,9.7748678 L142.767714,109.603512 Z" id="Shape" fill="#000000"></path>
                    <path d="M196.820797,57.5963303 L162.910747,57.5963303 C161.155186,57.5963303 159.731544,58.7956029 159.731544,60.2752294 C159.731544,61.7548558 161.154789,62.9541284 162.910747,62.9541284 L196.820797,62.9541284 C198.576358,62.9541284 200,61.7548558 200,60.2752294 C200,58.7956029 198.576754,57.5963303 196.820797,57.5963303 Z" id="Path" fill="#000000"></path>
                    <path d="M184.27364,9.37614679 C184.67639,9.37614679 185.085637,9.29048239 185.478834,9.11099507 L188.746692,7.61594731 C190.301523,6.90452486 191.022194,4.98197095 190.355401,3.3221212 C189.688991,1.66186353 187.888077,0.893331474 186.333246,1.60475393 L183.065388,3.09980169 C181.510558,3.81122414 180.789886,5.73377805 181.456679,7.3936278 C181.954577,8.63372198 183.085258,9.37614679 184.27364,9.37614679 Z" id="Path" fill="#000000"></path>
                    <path d="M162.83116,18.7522936 C163.238381,18.7522936 163.652171,18.6690463 164.049733,18.4946236 L173.960974,14.1360362 C175.533064,13.4446877 176.261735,11.5763819 175.587541,9.9633676 C174.913732,8.35035331 173.092827,7.60311027 171.520737,8.29445874 L161.609496,12.6530461 C160.037406,13.3443946 159.308734,15.2127004 159.982929,16.8257147 C160.486354,18.0304211 161.629973,18.7522936 162.83116,18.7522936 Z" id="Path" fill="#000000"></path>
                    <path d="M188.748383,107.580274 L185.474532,106.081961 C183.921209,105.370109 182.122041,106.139447 181.456277,107.798396 C180.790512,109.457344 181.510103,111.378854 183.063426,112.08989 L186.337277,113.588203 C186.730094,113.768001 187.138943,113.853211 187.541303,113.853211 C188.728532,113.853211 189.858118,113.110782 190.355533,111.871361 C191.021679,110.21282 190.30247,108.29131 188.748383,107.580274 Z" id="Path" fill="#000000"></path>
                    <path d="M173.960414,102.394716 L164.050856,98.0374713 C162.478297,97.346355 160.656463,98.0933792 159.98284,99.7067769 C159.308831,101.320571 160.037333,103.188924 161.609892,103.880437 L171.51945,108.237682 C171.91713,108.412542 172.331043,108.495413 172.738386,108.495413 C173.940317,108.495413 175.083891,107.773369 175.587466,106.568376 C176.261861,104.954978 175.532973,103.086228 173.960414,102.394716 Z" id="Path" fill="#000000"></path>
                </g>
            </g>
        </g>
    </g>
</svg>