<?xml version="1.0" encoding="UTF-8"?>
<svg width="193px" height="196px" viewBox="0 0 193 196" version="1.1" xmlns="http://www.w3.org/2000/svg" xmlns:xlink="http://www.w3.org/1999/xlink">
    <!-- Generator: Sketch 55.2 (78181) - https://sketchapp.com -->
    <title>report</title>
    <desc>Created with Sketch.</desc>
    <g id="MAIN-PAGE" stroke="none" stroke-width="1" fill="none" fill-rule="evenodd">
        <g id="Artboard" transform="translate(-659.000000, -3738.000000)" fill-rule="nonzero">
            <g id="report" transform="translate(659.000000, 3738.000000)">
                <polygon id="Path" fill="#E5E5E5" points="190 23 62 23 62 193 162.050745 193 190 165.071492"></polygon>
                <polygon id="Path" fill="#CCCCCC" points="62 23 62 193 159 193 77.3108736 23"></polygon>
                <polygon id="Path" fill="#F2F2F2" points="162 193 190 165 162 165"></polygon>
                <path d="M171.802666,108 C175.793555,98.4711668 178,87.9966113 178,77.001714 C178,48.2249024 162.882764,23.0118682 140.225425,9 L99,77.0013248 L171.802666,108 Z" id="Path" fill="#FFD652"></path>
                <path d="M105.257445,63 L97,76.7653702 L169.587825,108 C171.475845,103.443569 172.958108,98.6706695 174,93.7307126 L105.257445,63 Z" id="Path" fill="#FB9D46"></path>
                <path d="M81.5822826,81.5 L122.589725,14.5262378 C110.651588,7.21669189 96.6107604,3 81.5822826,3 C38.1824544,3 3,38.1456152 3,81.5 C3,124.854385 38.1824544,160 81.5822826,160 C114.14213,160 142.076443,140.21823 154,112.029524 L81.5822826,81.5 Z" id="Path" fill="#268BA6"></path>
                <path d="M95.6146518,143.385133 C52.09258,143.385133 16.8110277,108.604693 16.8110277,65.7007753 C16.8110277,47.7188188 23.0114262,31.1657538 33.4159671,18 C14.9067351,32.2157065 3,54.3936804 3,79.3156418 C3,122.21956 38.2815522,157 81.8036241,157 C107.083503,157 129.580245,145.263517 144,127.019072 C130.64571,137.274318 113.854536,143.385133 95.6146518,143.385133 Z" id="Path" fill="#134E5E"></path>
                <path d="M189.965229,127.299186 C191.641674,127.299186 193,125.942496 193,124.268071 L193,23.2371469 C193,21.5627218 191.641674,20.2060317 189.965229,20.2060317 L157.59613,20.2060317 C157.324771,20.2060317 157.062994,20.2446958 156.812332,20.3120709 C151.911779,15.1620843 146.348927,10.6402942 140.260988,6.91284163 C139.573776,6.49289549 138.748586,6.36197336 137.965172,6.55031748 C137.182141,6.73827879 136.506427,7.229811 136.085591,7.91581234 L128.559605,20.2060317 L122.57975,20.2060317 L125.079469,16.124094 C125.952953,14.6969662 125.504138,12.8326657 124.076439,11.9583202 C111.29767,4.1351487 96.5852787,0 81.5290902,0 C36.5740088,0 0,36.5299542 0,81.4312684 C0,106.536161 11.3349723,129.858676 31.0977768,145.417737 C32.4139429,146.454395 34.3222687,146.228918 35.3594106,144.913955 C36.3969358,143.599374 36.1711869,141.693347 34.8550208,140.657837 C16.5613091,126.254872 6.06915828,104.66765 6.06915828,81.4312684 C6.06915828,39.8722966 39.9207654,6.06223059 81.5290902,6.06223059 C94.4477545,6.06223059 107.091994,9.35059639 118.288221,15.5969602 L78.9404514,79.8498669 C78.4793717,80.6028606 78.3693718,81.5193155 78.6403471,82.3595905 C78.9109392,83.1998656 79.5349108,83.8808904 80.34937,84.2238911 L149.833663,113.51255 C137.407507,139.909055 110.922443,156.800306 81.5290902,156.800306 C69.3811917,156.800306 57.7836761,154.006152 47.0596439,148.495938 C45.5690878,147.729546 43.7393333,148.316399 42.9727835,149.804394 C42.2062337,151.292772 42.7926443,153.120323 44.2828172,153.885949 C49.060339,156.34093 53.9999861,158.288301 59.0730129,159.739929 L59.0730129,192.968885 C59.0730129,194.64331 60.4317225,196 62.1077837,196 L162.047101,196 C163.548772,196 164.443719,194.862279 165.411105,193.895676 C167.837619,191.472085 184.412342,174.917326 190.273382,169.063346 C191.38028,167.957781 193,166.812404 193,165.084385 L193,138.008004 C193,136.333579 191.641674,134.976889 189.965229,134.976889 C188.288785,134.976889 186.930458,136.333579 186.930458,138.008004 L186.930458,162.05327 L162.046718,162.05327 C160.370273,162.05327 159.011947,163.40996 159.011947,165.084385 L159.011947,189.938152 L65.1425544,189.938152 L65.1425544,161.225627 C70.4804242,162.31052 75.9509071,162.861771 81.5294734,162.861771 C101.799351,162.861771 120.78679,155.42371 135.363885,142.628943 C135.489599,142.644638 135.617229,142.65574 135.747543,142.65574 L160.024176,142.65574 C161.700621,142.65574 163.058947,141.299049 163.058947,139.624624 C163.058947,137.950199 161.700621,136.593509 160.024176,136.593509 L141.54381,136.593509 C143.565585,134.396927 145.472761,132.08282 147.254606,129.65655 C147.458508,129.699425 147.669309,129.72316 147.88586,129.72316 L160.024176,129.72316 C161.700621,129.72316 163.058947,128.366469 163.058947,126.692044 C163.058947,125.017619 161.700621,123.660929 160.024176,123.660929 L151.262895,123.660929 C153.293869,120.309782 155.102543,116.78522 156.661705,113.10026 C156.974841,112.359516 156.980973,111.524983 156.677803,110.780029 C156.375016,110.034691 155.788222,109.441331 155.046202,109.127807 L85.9578318,80.0060547 L118.867732,26.2682622 L124.847588,26.2682622 L95.1253845,74.8040055 C94.6643048,75.5569991 94.5543049,76.473454 94.8252803,77.3137291 C95.0958723,78.1540042 95.7198439,78.835029 96.5343031,79.1780296 L168.871311,109.668722 C169.256502,109.830652 169.656258,109.90798 170.049881,109.90798 C171.233051,109.90798 172.356813,109.212409 172.846255,108.05593 C177.091408,98.0223946 179.243497,87.3671706 179.243497,76.385407 C179.243497,62.1994965 175.534929,48.2310239 168.517932,35.9894219 C166.569362,32.5896574 164.369747,29.3449323 161.958948,26.2682622 L186.931225,26.2682622 L186.931225,124.268454 C186.930458,125.942496 188.288785,127.299186 189.965229,127.299186 Z M182.639312,168.115883 L165.081489,185.652558 L165.081489,168.115883 L182.639312,168.115883 Z M173.173572,76.3850242 C173.173572,85.5304327 171.562284,94.4293094 168.379569,102.881826 L102.141615,74.9617245 L139.646982,13.7165815 C160.699507,27.7608511 173.173572,50.9662245 173.173572,76.3850242 Z" id="Shape" fill="#000000"></path>
                <path d="M149.908239,162 L102.091761,162 C100.383834,162 99,163.342763 99,165 C99,166.657237 100.383834,168 102.091761,168 L149.908239,168 C151.616166,168 153,166.657237 153,165 C153,163.342763 151.615775,162 149.908239,162 Z" id="Path" fill="#000000"></path>
                <path d="M149.908239,176 L102.091761,176 C100.383834,176 99,177.342763 99,179 C99,180.657237 100.383834,182 102.091761,182 L149.908239,182 C151.616166,182 153,180.657237 153,179 C153,177.342763 151.615775,176 149.908239,176 Z" id="Path" fill="#000000"></path>
                <path d="M134.5,64 C139.73825,64 144,59.7382498 144,54.5 C144,49.2617502 139.73825,45 134.5,45 C129.26175,45 125,49.2617502 125,54.5 C125,59.7382498 129.26175,64 134.5,64 Z M134.5,51.0638705 C136.394792,51.0638705 137.936129,52.605208 137.936129,54.5 C137.936129,56.394792 136.394792,57.9361295 134.5,57.9361295 C132.605208,57.9361295 131.063871,56.394792 131.063871,54.5 C131.063871,52.605208 132.605208,51.0638705 134.5,51.0638705 Z" id="Shape" fill="#000000"></path>
                <path d="M155.5,66 C150.26175,66 146,70.2617502 146,75.5 C146,80.7382498 150.26175,85 155.5,85 C160.73825,85 165,80.7382498 165,75.5 C165,70.2617502 160.73825,66 155.5,66 Z M155.5,78.9365124 C153.605208,78.9365124 152.063871,77.3951749 152.063871,75.5003829 C152.063871,73.6055909 153.605208,72.0642535 155.5,72.0642535 C157.394792,72.0642535 158.936129,73.6055909 158.936129,75.5003829 C158.936129,77.3951749 157.394792,78.9365124 155.5,78.9365124 Z" id="Shape" fill="#000000"></path>
                <path d="M127.873907,82.126399 C128.456921,82.7090509 129.220453,83 129.983986,83 C130.747518,83 131.511428,82.708674 132.094064,82.126399 L163.126045,51.0935877 C164.291318,49.927907 164.291318,48.0389991 163.126045,46.8736953 C161.960396,45.7087682 160.071539,45.7087682 158.906266,46.8736953 L127.874284,77.9065065 C126.708635,79.0721872 126.708635,80.9610951 127.873907,82.126399 Z" id="Path" fill="#000000"></path>
                <path d="M43.563353,100.546177 L46.2183235,100.546177 C50.1593799,100.546177 53.3660827,97.3794437 53.3660827,93.4875105 L53.3660827,87.0336873 C53.3660827,83.1417541 50.1593799,79.9750211 46.2183235,79.9750211 L43.563353,79.9750211 L43.563353,71.5045452 L51.9364535,71.5045452 C53.6284071,71.5045452 55,70.1504306 55,68.4791842 C55,66.8079378 53.6284071,65.4538233 51.9364535,65.4538233 L43.563353,65.4538233 L43.563353,62.025361 C43.563353,60.3541146 42.1917602,59 40.4998065,59 C38.8078529,59 37.4362601,60.3541146 37.4362601,62.025361 L37.4362601,65.4538233 L34.7812896,65.4538233 C30.8402332,65.4538233 27.6335303,68.6205563 27.6335303,72.5124895 L27.6335303,78.9663127 C27.6335303,82.8582459 30.8402332,86.0249789 34.7812896,86.0249789 L37.4362601,86.0249789 L37.4362601,94.4954548 L29.0635465,94.4954548 C27.3715929,94.4954548 26,95.8495694 26,97.5208158 C26,99.1920622 27.3715929,100.546177 29.0635465,100.546177 L37.436647,100.546177 L37.436647,103.974639 C37.436647,105.645885 38.8082398,107 40.5001935,107 C42.1921471,107 43.5637399,105.645885 43.5637399,103.974639 L43.5637399,100.546177 L43.563353,100.546177 Z M34.7816765,79.9750211 C34.2187237,79.9750211 33.7606233,79.5230128 33.7606233,78.9666948 L33.7606233,72.5128715 C33.7606233,71.9565536 34.2187237,71.5045452 34.7816765,71.5045452 L37.436647,71.5045452 L37.436647,79.9750211 L34.7816765,79.9750211 Z M43.563353,86.025361 L46.2183235,86.025361 C46.7812763,86.025361 47.2393767,86.4773693 47.2393767,87.0336873 L47.2393767,93.4875105 C47.2393767,94.0438285 46.7812763,94.4958368 46.2183235,94.4958368 L43.563353,94.4958368 L43.563353,86.025361 Z" id="Shape" fill="#000000"></path>
                <path d="M68.0635056,146.546177 L76.4364944,146.546177 L76.4364944,149.974639 C76.4364944,151.645885 77.8080689,153 79.5,153 C81.1919311,153 82.5635056,151.645885 82.5635056,149.974639 L82.5635056,146.546177 L85.2184406,146.546177 C89.1594445,146.546177 92.3661045,143.379444 92.3661045,139.487511 L92.3661045,133.033687 C92.3661045,129.141754 89.1594445,125.975021 85.2184406,125.975021 L82.5635056,125.975021 L82.5635056,117.504545 L90.9364944,117.504545 C92.6284254,117.504545 94,116.150431 94,114.479184 C94,112.807938 92.6284254,111.453823 90.9364944,111.453823 L82.5635056,111.453823 L82.5635056,108.025361 C82.5635056,106.354115 81.1919311,105 79.5,105 C77.8080689,105 76.4364944,106.354115 76.4364944,108.025361 L76.4364944,111.453823 L73.7815594,111.453823 C69.8405555,111.453823 66.6338955,114.620556 66.6338955,118.512489 L66.6338955,124.966313 C66.6338955,128.858246 69.8405555,132.024979 73.7815594,132.024979 L76.4364944,132.024979 L76.4364944,140.495455 L68.0635056,140.495455 C66.3715746,140.495455 65,141.849569 65,143.520816 C65.0003869,145.192062 66.3719615,146.546177 68.0635056,146.546177 Z M73.7819463,125.975021 C73.219001,125.975021 72.7609067,125.523013 72.7609067,124.966695 L72.7609067,118.512872 C72.7609067,117.956554 73.219001,117.504545 73.7819463,117.504545 L76.4368813,117.504545 L76.4368813,125.975021 L73.7819463,125.975021 L73.7819463,125.975021 Z M82.5635056,132.025361 L85.2184406,132.025361 C85.7813859,132.025361 86.2394802,132.477369 86.2394802,133.033687 L86.2394802,139.487511 C86.2394802,140.043829 85.7813859,140.495837 85.2184406,140.495837 L82.5635056,140.495837 L82.5635056,132.025361 Z" id="Shape" fill="#000000"></path>
                <path d="M68.0635056,47.4955543 C66.3715746,47.4955543 65,48.8496581 65,50.5208912 C65,52.1921243 66.3715746,53.5462281 68.0635056,53.5462281 L76.4364944,53.5462281 L76.4364944,56.9746631 C76.4364944,58.6458962 77.8080689,60 79.5,60 C81.1919311,60 82.5635056,58.6458962 82.5635056,56.9746631 L82.5635056,53.5462281 L85.2184406,53.5462281 C89.1594445,53.5462281 92.3661045,50.3795203 92.3661045,46.4876181 L92.3661045,40.0338462 C92.3661045,36.141944 89.1594445,32.9752362 85.2184406,32.9752362 L82.5635056,32.9752362 L82.5635056,24.5044457 L90.9364944,24.5044457 C92.6284254,24.5044457 94,23.1503419 94,21.4791088 C94,19.8078757 92.6284254,18.4537719 90.9364944,18.4537719 L82.5635056,18.4537719 L82.5635056,15.0253369 C82.5635056,13.3541038 81.1919311,12 79.5,12 C77.8080689,12 76.4364944,13.3541038 76.4364944,15.0253369 L76.4364944,18.4537719 L73.7815594,18.4537719 C69.8405555,18.4537719 66.6338955,21.6204797 66.6338955,25.5123819 L66.6338955,31.9661538 C66.6338955,35.858056 69.8405555,39.0247638 73.7815594,39.0247638 L76.4364944,39.0247638 L76.4364944,47.4951722 L68.0635056,47.4951722 L68.0635056,47.4955543 Z M73.7819463,32.9748541 C73.219001,32.9748541 72.7609067,32.5228494 72.7609067,31.9665359 L72.7609067,25.512764 C72.7609067,24.9564504 73.219001,24.5044457 73.7819463,24.5044457 L76.4368813,24.5044457 L76.4368813,32.9748541 L73.7819463,32.9748541 Z M82.5635056,39.0251459 L85.2184406,39.0251459 C85.7813859,39.0251459 86.2394802,39.4771506 86.2394802,40.0334641 L86.2394802,46.487236 C86.2394802,47.0435496 85.7813859,47.4955543 85.2184406,47.4955543 L82.5635056,47.4955543 L82.5635056,39.0251459 Z" id="Shape" fill="#000000"></path>
            </g>
        </g>
    </g>
</svg>