<?xml version="1.0" encoding="UTF-8"?>
<svg width="200px" height="199px" viewBox="0 0 200 199" version="1.1" xmlns="http://www.w3.org/2000/svg" xmlns:xlink="http://www.w3.org/1999/xlink">
    <!-- Generator: Sketch 56.3 (81716) - https://sketch.com -->
    <title>auto sell</title>
    <desc>Created with Sketch.</desc>
    <g id="MAIN-PAGE" stroke="none" stroke-width="1" fill="none" fill-rule="evenodd">
        <g id="Artboard" transform="translate(-667.000000, -544.000000)" fill-rule="nonzero">
            <g id="auto-sell" transform="translate(667.000000, 544.000000)">
                <polygon id="Path" fill="#268BA6" points="182.952183 136.4 162.993763 116.44158 196.257796 103.135967"></polygon>
                <polygon id="Path" fill="#000000" points="189.60499 0.0174636175 182.952183 0.0174636175 182.952183 9.9966736 172.972973 9.9966736 172.972973 16.6494802 182.952183 16.6494802 182.952183 26.6286902 189.60499 26.6286902 189.60499 16.6494802 199.5842 16.6494802 199.5842 9.9966736 189.60499 9.9966736"></polygon>
                <polygon id="Path" fill="#000000" points="159.66736 46.5871102 159.66736 56.5663202 149.68815 56.5663202 149.68815 63.2191268 159.66736 63.2191268 159.66736 73.1983368 166.320166 73.1983368 166.320166 63.2191268 176.299376 63.2191268 176.299376 56.5663202 166.320166 56.5663202 166.320166 46.5871102"></polygon>
                <polygon id="Path" fill="#000000" points="23.2848233 163.011227 23.2848233 153.032017 33.2640333 153.032017 33.2640333 146.37921 23.2848233 146.37921 23.2848233 136.4 16.6320166 136.4 16.6320166 146.37921 6.65280665 146.37921 6.65280665 153.032017 16.6320166 153.032017 16.6320166 163.011227"></polygon>
                <path d="M132.081497,127.395426 C130.82578,126.140125 128.805405,126.092308 127.491476,127.286486 L54.3106029,193.814553 L58.7871102,198.735967 L129.619543,134.342204 L147.336383,152.05738 C148.634511,153.356341 150.740125,153.356757 152.038669,152.058628 C152.039085,152.058212 152.039501,152.057796 152.039917,152.05738 L172.972973,131.12474 L180.600416,138.752183 C181.224116,139.376299 182.069854,139.726819 182.952183,139.726819 C183.177131,139.726403 183.401247,139.703534 183.621206,139.658628 C184.716424,139.434096 185.62578,138.674428 186.041164,137.63659 L199.346778,104.372557 C200.02869,102.665696 199.197921,100.72973 197.49106,100.047817 C196.69896,99.7313929 195.815385,99.7309771 195.022869,100.047401 L161.758836,113.353015 C160.052807,114.035343 159.222869,115.970894 159.905198,117.676923 C160.072349,118.095218 160.323077,118.47526 160.64158,118.793763 L168.269023,126.421206 L149.68815,145.002079 L132.081497,127.395426 Z M190.286902,109.106861 L181.737214,130.481497 L168.912266,117.656549 L190.286902,109.106861 Z" id="Shape" fill="#000000"></path>
                <g id="bitcoin" transform="translate(1.000000, 2.000000)">
                    <g id="Group" transform="translate(2.000000, 2.000000)">
                        <path d="M133.812199,65.9740125 C133.812199,102.336457 103.8881,131.813927 66.97471,131.813927 C47.5154526,131.813927 29.9985745,123.622904 17.7850465,110.548978 C14.576847,107.117241 11.7369358,103.346898 9.31987397,99.3024458 C3.48455201,89.5258904 0.137221456,78.1342416 0.137221456,65.9740125 C0.137221456,29.6115686 30.0613199,0.134098437 66.97471,0.134098437 C79.321913,0.134098437 90.8861626,3.43146883 100.80812,9.18238378 C104.913851,11.5606827 108.738592,14.3582072 112.222326,17.5212104 C125.494341,29.5470723 133.812199,46.8051918 133.812199,65.9740125 Z" id="Path" fill="#F0CD00"></path>
                        <path d="M133.812199,65.9740125 C133.812199,101.516817 105.22485,130.481004 69.4627014,131.768242 C33.700553,130.481004 5.11320428,101.516817 5.11320428,65.9740125 C5.11320428,30.4312083 33.700553,1.46702078 69.4627014,0.179783276 C105.22485,1.46702078 133.812199,30.4312083 133.812199,65.9740125 Z" id="Path" fill="#FFDE50"></path>
                        <path d="M112.222326,17.5212104 L17.7850465,110.548978 C14.576847,107.117241 11.7369358,103.346898 9.31987397,99.3024458 L100.80812,9.18238378 C104.913851,11.5606827 108.738592,14.3582072 112.222326,17.5212104 Z" id="Path" fill="#FFEA94"></path>
                        <path d="M129.201776,41.9034774 L42.5367418,127.275004 C36.4013331,124.899392 30.7078703,121.655768 25.6145809,117.697312 L119.481695,25.2311988 C123.500129,30.2484689 126.792898,35.8569547 129.201776,41.9034774 Z" id="Path" fill="#FFEA94"></path>
                        <path d="M118.911531,65.9740125 C118.911531,94.2287414 95.6575408,117.135657 66.97471,117.135657 C56.9845515,117.135657 47.6545837,114.356944 39.7350234,109.541224 C36.2840265,107.445096 33.1031077,104.959304 30.2495561,102.148343 C28.1516774,100.084463 26.2311226,97.840531 24.5151724,95.446108 C22.1526718,92.1487376 20.1748277,88.5638214 18.6498418,84.7558558 C16.3910075,79.1258713 15.1197311,73.004103 15.0433454,66.6028509 C15.0378893,66.3932381 15.0378893,66.1836253 15.0378893,65.9740125 C15.0378893,37.7192837 38.2891512,14.8123683 66.97471,14.8123683 C67.1874988,14.8123683 67.4030156,14.8123683 67.6158043,14.817743 C74.114045,14.8929886 80.3258394,16.147978 86.0411267,18.370411 C89.9067888,19.8753233 93.5460218,21.8209599 96.8933524,24.1481994 C99.3240545,25.8412257 101.599257,27.7304282 103.697136,29.7969953 C106.550687,32.6052691 109.074144,35.7413989 111.202031,39.1408884 C116.090716,46.9422464 118.911531,56.1329609 118.911531,65.9740125 Z" id="Path" fill="#FAA300"></path>
                        <path d="M103.697136,29.7969953 L30.2495561,102.148343 C28.1516774,100.084463 26.2311226,97.840531 24.5151724,95.446108 C22.1526718,92.1487376 20.1748277,88.5638214 18.6498418,84.7558558 C16.3910075,79.1258713 15.1197311,73.004103 15.0433454,66.6028509 C15.0378893,66.3932381 15.0378893,66.1836253 15.0378893,65.9740125 C15.0378893,37.7192837 38.2891512,14.8123683 66.97471,14.8123683 C67.1874988,14.8123683 67.4030156,14.8123683 67.6158043,14.817743 C74.114045,14.8929886 80.3258394,16.147978 86.0411267,18.370411 C89.9067888,19.8753233 93.5460218,21.8209599 96.8933524,24.1481994 C99.3240545,25.8412257 101.599257,27.7304282 103.697136,29.7969953 Z" id="Path" fill="#FFBD00"></path>
                        <path d="M118.910167,65.9740125 C118.910167,94.2287414 95.6561768,117.135657 66.973346,117.135657 C65.9885161,117.135657 65.0118703,117.108783 64.0406807,117.055037 C91.3594811,115.558186 113.042108,93.2586104 113.042108,65.9740125 C113.042108,38.6894147 91.3594811,16.3898389 64.0406807,14.8929886 C65.0118703,14.8392417 65.9885161,14.8123683 66.973346,14.8123683 C95.6561768,14.8123683 118.910167,37.7192837 118.910167,65.9740125 Z" id="Path" fill="#F68E00"></path>
                    </g>
                    <path d="M69,136 C50.5694851,136 33.2418772,128.926653 20.2097584,116.083137 C7.17736634,103.239889 0,86.1634059 0,68 C0,49.8365941 7.17736634,32.7601109 20.2097584,19.9168634 C33.2418772,7.07334653 50.5694851,0 69,0 C75.336796,0 81.6153861,0.84670099 87.6608792,2.51667327 C88.7506693,2.81775842 89.3865624,3.9324198 89.0810495,5.00668515 C88.7755366,6.08068119 87.645303,6.70762772 86.5544198,6.40654257 C80.8693663,4.83594455 74.9626931,4.03960396 69,4.03960396 C51.6644673,4.03960396 35.3662574,10.6925624 23.1080317,22.7731327 C10.8498059,34.853703 4.0990099,50.9157069 4.0990099,68 C4.0990099,85.0842931 10.8498059,101.146297 23.108305,113.226867 C35.3662574,125.307438 51.6644673,131.960396 69,131.960396 C86.3355327,131.960396 102.633743,125.307438 114.891968,113.226867 C127.150194,101.146297 133.90099,85.0842931 133.90099,68 C133.90099,55.0818851 130.012669,42.6353267 122.656859,32.0063208 C115.472935,21.6261545 105.468618,13.616697 93.7252277,8.84430891 C92.6788871,8.41907327 92.1804475,7.23843168 92.6119366,6.20698614 C93.0431525,5.1758099 94.2411564,4.68432475 95.2880436,5.1098297 C107.772808,10.1835723 118.407552,18.6971723 126.043188,29.7301386 C133.865192,41.0326812 138,54.2664238 138,68 C138,86.1634059 130.822634,103.239889 117.790242,116.083137 C104.758123,128.926653 87.4305149,136 69,136 Z" id="Path" stroke="#000000" stroke-width="2" fill="#000000"></path>
                    <path d="M69.5001377,121 C39.4488941,121 15,96.9999191 15,67.5 C15,38.0000809 39.4488941,14 69.5001377,14 C99.5513813,14 124,38.0000809 124,67.5 C124,96.9999191 99.5513813,121 69.5001377,121 Z M69.5001377,18.0555292 C41.7266302,18.0555292 19.131323,40.2362996 19.131323,67.5 C19.131323,94.7637004 41.7266302,116.944471 69.5001377,116.944471 C97.2733698,116.944471 119.868677,94.7637004 119.868677,67.5 C119.868677,40.2362996 97.2733698,18.0555292 69.5001377,18.0555292 Z" id="Shape" stroke="#000000" fill="#000000"></path>
                    <path d="M93,80.2133821 C93,73.4976419 89.3159427,67.5809348 83.7549054,64.1517839 C86.0400709,61.1849666 87.3926418,57.5410474 87.3926418,53.6032765 C87.3926418,46.8028986 83.3691785,40.8724379 77.447961,37.8104032 L77.447961,31.2898588 C77.447961,28.3682698 74.934279,26 71.8333038,26 C68.7323286,26 66.2186466,28.3682698 66.2186466,31.2898588 L66.2186466,35.6000357 L59.4423168,35.6000357 L59.4423168,31.2898588 C59.4423168,28.3682698 56.9286348,26 53.8276596,26 C50.7266844,26 48.2130024,28.3682698 48.2130024,31.2898588 L48.2130024,35.6000357 L41.6146572,35.6000357 C38.513682,35.6000357 36,37.9683055 36,40.8898945 C36,43.8114835 38.513682,46.1797532 41.6146572,46.1797532 L43.5522754,46.1797532 L43.5522754,66.3169231 L43.5522754,88.8202468 L41.6146572,88.8202468 C38.513682,88.8202468 36,91.1885165 36,94.1101055 C36,97.0316945 38.513682,99.3999643 41.6146572,99.3999643 L48.2130024,99.3999643 L48.2130024,103.710141 C48.2130024,106.63173 50.7266844,109 53.8276596,109 C56.9286348,109 59.4423168,106.63173 59.4423168,103.710141 L59.4423168,99.3999643 L66.2186466,99.3999643 L66.2186466,103.710141 C66.2186466,106.63173 68.7323286,109 71.8333038,109 C74.934279,109 77.447961,106.63173 77.447961,103.710141 L77.447961,98.8540509 C86.3612293,96.8108429 93,89.2310043 93,80.2133821 Z M54.7818706,46.1797532 L68.2839982,46.1797532 C72.6289007,46.1797532 76.1633274,49.5099838 76.1633274,53.6032765 C76.1633274,57.6965692 72.62862,61.0267998 68.2839982,61.0267998 L54.7818706,61.0267998 L54.7818706,46.1797532 Z M72.6353576,88.8202468 L54.7815898,88.8202468 L54.7815898,71.6067819 L68.2837175,71.6067819 L72.6353576,71.6067819 C77.6722665,71.6067819 81.7704048,75.4678498 81.7704048,80.2136466 C81.7704048,84.9594434 77.6725473,88.8202468 72.6353576,88.8202468 Z" id="Shape" fill="#F68E00"></path>
                    <path d="M100,80.2133821 C100,73.4976419 96.3159427,67.5809348 90.7549054,64.1517839 C93.0400709,61.1849666 94.3926418,57.5410474 94.3926418,53.6032765 C94.3926418,46.8028986 90.3691785,40.8724379 84.447961,37.8104032 L84.447961,31.2898588 C84.447961,28.3682698 81.934279,26 78.8333038,26 C75.7323286,26 73.2186466,28.3682698 73.2186466,31.2898588 L73.2186466,35.6000357 L66.4423168,35.6000357 L66.4423168,31.2898588 C66.4423168,28.3682698 63.9286348,26 60.8276596,26 C57.7266844,26 55.2130024,28.3682698 55.2130024,31.2898588 L55.2130024,35.6000357 L48.6146572,35.6000357 C45.513682,35.6000357 43,37.9683055 43,40.8898945 C43,43.8114835 45.513682,46.1797532 48.6146572,46.1797532 L50.5522754,46.1797532 L50.5522754,66.3169231 L50.5522754,88.8202468 L48.6146572,88.8202468 C45.513682,88.8202468 43,91.1885165 43,94.1101055 C43,97.0316945 45.513682,99.3999643 48.6146572,99.3999643 L55.2130024,99.3999643 L55.2130024,103.710141 C55.2130024,106.63173 57.7266844,109 60.8276596,109 C63.9286348,109 66.4423168,106.63173 66.4423168,103.710141 L66.4423168,99.3999643 L73.2186466,99.3999643 L73.2186466,103.710141 C73.2186466,106.63173 75.7323286,109 78.8333038,109 C81.934279,109 84.447961,106.63173 84.447961,103.710141 L84.447961,98.8540509 C93.36151,96.8108429 100,89.2310043 100,80.2133821 Z M61.7818706,46.1797532 L75.2839982,46.1797532 C79.6289007,46.1797532 83.1633274,49.5099838 83.1633274,53.6032765 C83.1633274,57.6965692 79.62862,61.0267998 75.2839982,61.0267998 L61.7818706,61.0267998 L61.7818706,46.1797532 L61.7818706,46.1797532 Z M79.6356383,88.8202468 L61.7818706,88.8202468 L61.7818706,71.6067819 L75.2839982,71.6067819 L79.6356383,71.6067819 C84.6725473,71.6067819 88.7706856,75.4678498 88.7706856,80.2136466 C88.7706856,84.9594434 84.6725473,88.8202468 79.6356383,88.8202468 Z" id="Shape" fill="#FFEA94"></path>
                    <path d="M78.8080261,110 C74.5659466,110 71.1144836,106.660957 71.1144836,102.556446 L71.1144836,100.175592 L68.5579894,100.175592 L68.5579894,102.556446 C68.5579894,106.660957 65.1065263,110 60.8644469,110 C56.6223675,110 53.1709044,106.660957 53.1709044,102.556446 L53.1709044,100.175592 L48.6935425,100.175592 C44.451463,100.175592 41,96.836549 41,92.7320381 C41,88.6816622 44.3610989,85.3767244 48.5262429,85.2901085 L48.5262429,83.1417636 C48.5262429,82.0206291 49.4654146,81.1117035 50.6244817,81.1117035 C51.7835489,81.1117035 52.7227206,82.0206291 52.7227206,83.1417636 L52.7227206,87.3182739 C52.7227206,88.4394084 51.7835489,89.348334 50.6244817,89.348334 L48.6935425,89.348334 C46.7651211,89.348334 45.1964777,90.8660069 45.1964777,92.7317675 C45.1964777,94.597528 46.7651211,96.115201 48.6935425,96.115201 L55.2691433,96.115201 C56.4282104,96.115201 57.3673821,97.0241265 57.3673821,98.1452611 L57.3673821,102.556176 C57.3673821,104.421936 58.9360255,105.939609 60.8644469,105.939609 C62.7928683,105.939609 64.3615116,104.421936 64.3615116,102.556176 L64.3615116,98.1452611 C64.3615116,97.0241265 65.3006834,96.115201 66.4597505,96.115201 L73.2127224,96.115201 C74.3717896,96.115201 75.3109613,97.0241265 75.3109613,98.1452611 L75.3109613,102.556176 C75.3109613,104.421936 76.8796047,105.939609 78.8080261,105.939609 C80.7364474,105.939609 82.3050908,104.421936 82.3050908,102.556176 L82.3050908,97.5865885 C82.3050908,96.6503248 82.9670152,95.8353233 83.907306,95.6139115 C92.0893185,93.6880611 97.8035223,86.6548502 97.8035223,78.5105198 C97.8035223,72.5586543 94.7140754,67.0488005 89.5395386,63.7720128 C89.0591818,63.4677745 88.7287791,62.9865149 88.6247065,62.4402934 C88.5211934,61.8940719 88.6532425,61.3305272 88.9903596,60.8812073 C91.1003486,58.0680853 92.2154926,54.7474484 92.2154926,51.2784817 C92.2154926,45.2968419 88.8350899,39.7859055 83.3939369,36.8961826 C82.7225005,36.539704 82.3050908,35.8576038 82.3050908,35.1164966 L82.3050908,28.4435537 C82.3050908,26.5777931 80.7364474,25.0601202 78.8080261,25.0601202 C76.8796047,25.0601202 75.3109613,26.5777931 75.3109613,28.4435537 L75.3109613,32.8544683 C75.3109613,33.9756028 74.3717896,34.8845284 73.2127224,34.8845284 L66.4597505,34.8845284 C65.3006834,34.8845284 64.3615116,33.9756028 64.3615116,32.8544683 L64.3615116,28.4435537 C64.3615116,26.5777931 62.7928683,25.0601202 60.8644469,25.0601202 C58.9360255,25.0601202 57.3673821,26.5777931 57.3673821,28.4435537 L57.3673821,32.8544683 C57.3673821,33.9756028 56.4282104,34.8845284 55.2691433,34.8845284 L48.6935425,34.8845284 C46.7651211,34.8845284 45.1964777,36.4022013 45.1964777,38.2679619 C45.1964777,40.1337224 46.7651211,41.6513953 48.6935425,41.6513953 L50.6244817,41.6513953 C51.7835489,41.6513953 52.7227206,42.5603209 52.7227206,43.6814554 L52.7227206,75.0212525 C52.7227206,76.142387 51.7835489,77.0513126 50.6244817,77.0513126 C49.4654146,77.0513126 48.5262429,76.142387 48.5262429,75.0212525 L48.5262429,45.7098915 C44.3608191,45.6235463 41,42.3183378 41,38.2679619 C41,34.163451 44.451463,30.8244082 48.6935425,30.8244082 L53.1709044,30.8244082 L53.1709044,28.4435537 C53.1709044,24.3390428 56.6223675,21 60.8644469,21 C65.1065263,21 68.5579894,24.3390428 68.5579894,28.4435537 L68.5579894,30.8244082 L71.1144836,30.8244082 L71.1144836,28.4435537 C71.1144836,24.3390428 74.5659466,21 78.8080261,21 C83.0503853,21 86.5015685,24.3390428 86.5015685,28.4435537 L86.5015685,33.9563849 C92.6452119,37.6927782 96.4119703,44.2225341 96.4119703,51.2787523 C96.4119703,54.928259 95.4238397,58.4456765 93.537383,61.5627661 C98.8716657,65.6640289 102,71.8622083 102,78.5107905 C102,87.9930659 95.7061227,96.2513503 86.5018483,99.1215846 L86.5018483,102.556446 C86.5015685,106.660686 83.0503853,110 78.8080261,110 Z M79.6073152,89.3486047 L61.815089,89.3486047 C60.6560218,89.3486047 59.7168501,88.4396791 59.7168501,87.3185446 L59.7168501,69.7027657 C59.7168501,68.5816312 60.6560218,67.6727057 61.815089,67.6727057 L79.6073152,67.6727057 C85.7839708,67.6727057 90.809113,72.5345642 90.809113,78.5107905 C90.809113,84.4870167 85.7842506,89.3486047 79.6073152,89.3486047 Z M63.9136076,85.2884845 L79.6075949,85.2884845 C83.4703128,85.2884845 86.6129151,82.2479958 86.6129151,78.5105198 C86.6129151,74.7730438 83.4703128,71.7325552 79.6075949,71.7325552 L63.9136076,71.7325552 L63.9136076,85.2884845 L63.9136076,85.2884845 Z M75.2706751,60.9058387 L61.815089,60.9058387 C60.6560218,60.9058387 59.7168501,59.9969131 59.7168501,58.8757786 L59.7168501,43.6814554 C59.7168501,42.5603209 60.6560218,41.6513953 61.815089,41.6513953 L75.2706751,41.6513953 C80.7574298,41.6513953 85.2210833,45.9702805 85.2210833,51.2784817 C85.2210833,56.5866828 80.7577096,60.9058387 75.2706751,60.9058387 Z M63.9136076,56.8457185 L75.2709549,56.8457185 C78.4437718,56.8457185 81.0248853,54.3482032 81.0248853,51.2787523 C81.0248853,48.2093015 78.443492,45.7117862 75.2709549,45.7117862 L63.9136076,45.7117862 L63.9136076,56.8457185 Z" id="Shape" fill="#000000"></path>
                </g>
            </g>
        </g>
    </g>
</svg>