<?xml version="1.0" encoding="UTF-8"?>
<svg width="201px" height="193px" viewBox="0 0 201 193" version="1.1" xmlns="http://www.w3.org/2000/svg" xmlns:xlink="http://www.w3.org/1999/xlink">
    <!-- Generator: Sketch 55.2 (78181) - https://sketchapp.com -->
    <title>qa</title>
    <desc>Created with Sketch.</desc>
    <g id="MAIN-PAGE" stroke="none" stroke-width="1" fill="none" fill-rule="evenodd">
        <g id="Artboard" transform="translate(-669.000000, -4394.000000)" fill-rule="nonzero">
            <g id="qa" transform="translate(669.000000, 4394.000000)">
                <path d="M183.52366,52 C191.518468,52 198,58.6045618 198,66.7530474 C198,84.0779337 198,97.0715984 198,105.734042 C198,110.877498 198,118.592682 198,128.879594 C198,137.028079 191.518468,143.632641 183.52366,143.632641 C179.990644,143.632641 177.380282,146.990285 178.186648,150.496083 L187.006183,188.830612 C187.408601,190.580392 185.283283,191.746912 184.072968,190.441595 L142.23679,145.379302 C141.200908,144.264246 139.761077,143.632641 138.255452,143.632641 L90.4763397,143.632641 C82.4815321,143.632641 76,137.02652 76,128.878034 L76,66.7530474 C76,58.6045618 82.4815321,52 90.4763397,52 L183.52366,52 Z" id="Path" fill="#268BA6"></path>
                <path d="M185.065307,52 L164.65777,52 C172.905711,52 179.592463,58.6045599 179.592463,66.753043 L179.592463,128.879571 C179.592463,137.028054 172.905711,143.632614 164.65777,143.632614 C161.012891,143.632614 158.319879,146.990256 159.151776,150.496053 L163.033439,166.847602 L185.632008,190.441554 C186.880643,191.746871 189.073254,190.580351 188.658095,188.832131 L179.559313,150.496053 C178.727416,146.990256 181.420428,143.632614 185.065307,143.632614 C193.313248,143.632614 200,137.028054 200,128.879571 L200,66.753043 C200,58.6045599 193.313248,52 185.065307,52 L185.065307,52 Z" id="Path" fill="#134E5E"></path>
                <path d="M127,117.529546 C127,117.318346 127.07118,117.177049 127.143874,116.965849 L141.799394,70.0465648 C142.231018,68.6350896 143.883304,68 145.53559,68 C147.187876,68 148.840162,68.7064814 149.271786,70.0465648 L163.927305,116.965849 C163.927305,117.177049 164,117.318346 164,117.459642 C164,118.871117 161.988785,120 160.263804,120 C159.258197,120 158.396464,119.576111 158.108714,118.658429 L154.948017,108.145987 L136.051983,108.145987 L132.891286,118.658429 C132.605051,119.576111 131.741804,120 130.665016,120 C129.08391,120 127,119.012413 127,117.529546 L127,117.529546 Z M153.509271,103.277959 L145.53559,76.7484699 L137.418034,103.277959 L153.509271,103.277959 Z" id="Shape" fill="#000000"></path>
                <path d="M110.52366,2 L17.4763397,2 C9.48153212,2 3,8.6061193 3,16.7530426 L3,78.879571 C3,87.0280537 9.48153212,93.6341734 17.4763397,93.6341734 C21.009356,93.6341734 23.6197183,96.9902567 22.813352,100.496054 L13.9938168,138.832131 C13.5913986,140.580351 15.7167172,141.746871 16.9270317,140.441554 L58.7632098,95.3808339 C59.7990919,94.2657782 61.2389226,93.6341734 62.7460777,93.6341734 L110.52366,93.6341734 C118.518468,93.6341734 125,87.0280537 125,78.879571 L125,16.7530426 C125,8.6061193 118.518468,2 110.52366,2 Z" id="Path" fill="#FFBD00"></path>
                <path d="M38.1783287,96.6962943 L18.8991961,117.636441 L14.0480989,138.894643 C13.6605415,140.592452 15.7073747,141.725334 16.8744674,140.457657 L57.1656879,96.6962943 C58.1633162,95.613392 59.5499758,95 61,95 L42.0126404,95 C40.5611427,95 39.1744835,95.613392 38.1783287,96.6962943 Z" id="Path" fill="#FF901D"></path>
                <path d="M110.604851,3 L91,3 C98.9499686,3 105.393628,9.48830796 105.393628,17.4914734 L105.393628,78.5085262 C105.393628,86.5116916 98.9499686,93 91,93 L110.604851,93 C118.55482,93 125,86.5116916 125,78.5085262 L125,17.4899418 C125,9.48830796 118.55482,3 110.604851,3 Z" id="Path" fill="#F68E00"></path>
                <path d="M62.8095378,75.7502258 L62.8095378,70.1250001 C54.8647102,69.525798 49,64.9503616 49,53.9259941 L49,31.3507832 C49,19.425241 55.9791147,15 64.9632183,15 C73.9473219,15 81,19.425241 81,31.3507832 L81,53.9259941 C81,64.8744732 75.1352898,69.525798 67.2640256,70.1250001 L67.2640256,75.7502258 C67.2640256,77.2490216 66.1511861,78 65.0367817,78 C63.9239422,78 62.8095378,77.2506025 62.8095378,75.7502258 Z M74.7643434,31.3507832 C74.7643434,24.0749849 71.0501832,20.7011144 64.9632183,20.7011144 C58.8746884,20.7011144 55.2356566,24.0749849 55.2356566,31.3507832 L55.2356566,53.9259941 C55.2356566,60.2247293 57.984104,63.5258736 62.8095378,64.2752711 L62.8095378,59.1749401 C62.8095378,57.6745633 63.9239422,56.9994733 65.0367817,56.9994733 C66.1511861,56.9994733 67.2640256,57.6745633 67.2640256,59.1749401 L67.2640256,64.1993828 C71.9423331,63.5242923 74.7643434,60.2247293 74.7643434,53.9244128 L74.7643434,31.3507832 Z" id="Shape" fill="#000000"></path>
                <path d="M127,79.3267722 L127,17.6257623 C127,7.90681156 119.240772,0 109.705096,0 L17.2949038,0 C7.75770874,0 0,7.90681156 0,17.6257623 L0,79.3267722 C0,89.045723 7.75770874,96.9540837 17.2949038,96.9540837 C18.069915,96.9540837 18.7932587,97.3087672 19.2749812,97.9298507 C19.7567036,98.5493854 19.9314611,99.3470364 19.7536646,100.116808 L10.9945199,138.188764 C10.5112775,140.295182 11.4397712,142.398503 13.3089158,143.423833 C14.0140239,143.811042 14.7723187,144 15.5214964,144 C16.7539157,144 17.9620212,143.488884 18.86924,142.511568 L60.4189512,97.7594788 C60.8930757,97.2468138 61.5617127,96.9540837 62.2531442,96.9540837 L109.705096,96.9540837 C119.240772,96.9540837 127,89.045723 127,79.3267722 L127,79.3267722 Z M56.1791846,93.6705498 L17.6930469,135.123616 L25.4355592,101.475138 C26.0221364,98.9257528 25.4431576,96.286535 23.8475464,94.234326 C22.2519355,92.1821174 19.8630779,91.0065505 17.2949038,91.0065505 C10.9762843,91.0065505 5.83537746,85.7668357 5.83537746,79.3267722 L5.83537746,17.6257623 C5.83537746,11.187248 10.9762843,5.94753316 17.2949038,5.94753316 L109.705096,5.94753316 C116.023716,5.94753316 121.164623,11.187248 121.164623,17.6257623 L121.164623,79.3267722 C121.164623,85.7668357 116.023716,91.0065505 109.705096,91.0065505 L62.2531442,91.0065505 C59.9661014,91.0065505 57.7520013,91.9776709 56.1791846,93.6705498 Z" id="Shape" fill="#000000"></path>
                <path d="M183.705096,49 L139.517308,49 C137.904981,49 136.599619,50.3304652 136.599619,51.9737986 C136.599619,53.6155836 137.904981,54.9475971 139.517308,54.9475971 L183.705096,54.9475971 C190.023716,54.9475971 195.164623,60.1858196 195.164623,66.6259522 L195.164623,128.326076 C195.164623,134.766209 190.023716,140.00598 183.705096,140.00598 C181.136922,140.00598 178.748064,141.183109 177.152454,143.23534 C175.556842,145.28757 174.977864,147.925268 175.564441,150.474681 L183.305434,184.123521 L144.820815,142.671557 C143.249518,140.97866 141.035418,140.00598 138.746856,140.00598 L91.2949038,140.00598 C84.9762839,140.00598 79.8353775,134.766209 79.8353775,128.326076 L79.8353775,107.651981 C79.8353775,106.008648 78.5300156,104.678183 76.9176887,104.678183 C75.3068814,104.678183 74,106.008648 74,107.651981 L74,128.326076 C74,138.046681 81.7592283,145.953577 91.2949038,145.953577 L138.746856,145.953577 C139.438287,145.953577 140.106924,146.247859 140.582568,146.758981 L182.13228,191.511552 C183.039498,192.488878 184.246084,193 185.478504,193 C186.227681,193 186.987496,192.81104 187.692604,192.423826 C189.560229,191.398485 190.490242,189.295143 190.00548,187.190251 L181.246335,149.116336 C181.068539,148.346556 181.243296,147.548896 181.725019,146.929355 C182.208261,146.309814 182.930085,145.953577 183.705096,145.953577 C193.242291,145.953577 201,138.046681 201,128.326076 L201,66.6259522 C201,56.906897 193.242291,49 183.705096,49 L183.705096,49 Z" id="Path" fill="#000000"></path>
            </g>
        </g>
    </g>
</svg>