<?xml version="1.0" encoding="UTF-8"?>
<svg width="218px" height="220px" viewBox="0 0 218 220" version="1.1" xmlns="http://www.w3.org/2000/svg" xmlns:xlink="http://www.w3.org/1999/xlink">
    <!-- Generator: Sketch 56.3 (81716) - https://sketch.com -->
    <title>trailing</title>
    <desc>Created with Sketch.</desc>
    <g id="MAIN-PAGE" stroke="none" stroke-width="1" fill="none" fill-rule="evenodd">
        <g id="Artboard" transform="translate(-658.000000, -1492.000000)" fill-rule="nonzero">
            <g id="trailing" transform="translate(658.000000, 1492.000000)">
                <circle id="Oval" fill="#FED966" cx="179.288256" cy="40.7117438" r="36.797153"></circle>
                <circle id="Oval" fill="#F59536" cx="179.288256" cy="40.7117438" r="21.9217082"></circle>
                <polygon id="Path" fill="#3BCAF1" points="10.9608541 168.327402 39.9288256 168.327402 39.9288256 216.085409 10.9608541 216.085409"></polygon>
                <polygon id="Path" fill="#2EA9CA" points="62.633452 150.320285 91.6014235 150.320285 91.6014235 216.085409 62.633452 216.085409"></polygon>
                <polygon id="Path" fill="#268BA6" points="113.523132 128.398577 142.491103 128.398577 142.491103 216.085409 113.523132 216.085409"></polygon>
                <polygon id="Path" fill="#134E5E" points="165.19573 98.6476868 194.163701 98.6476868 194.163701 216.085409 165.19573 216.085409"></polygon>
                <path d="M173.024911,46.9752031 C173.024911,50.434275 175.829019,53.2384342 179.288485,53.2384342 C182.747493,53.2384342 185.551601,50.434275 185.551601,46.9747464 C185.551145,38.346705 173.024911,43.0630814 173.024911,34.4482844 C173.024911,30.9892125 175.829019,28.1850534 179.288028,28.1850534 C182.747037,28.1850534 185.551145,30.9892125 185.551145,34.4482844" id="Path" fill="#F59536"></path>
                <circle id="Oval" fill="#268BA6" cx="120.960854" cy="84.1637011" r="14.4839858"></circle>
                <circle id="Oval" fill="#2EA9CA" cx="73.594306" cy="117.437722" r="10.9608541"></circle>
                <circle id="Oval" fill="#3BCAF1" cx="21.9217082" cy="135.44484" r="10.9608541"></circle>
                <path d="M10.7259788,165.19573 C8.69431602,165.19573 7.0467235,166.830267 7.04626344,168.847521 C7.04626344,168.847978 7.04626344,168.848891 7.04626344,168.849348 L7.04626344,216.346382 C7.04580357,218.363636 8.69247616,220 10.724139,220 C10.7245989,220 10.7255189,220 10.7259788,220 L40.1637011,220 C42.1953639,220 43.8429564,218.365463 43.8434165,216.348209 C43.8434165,216.347752 43.8434165,216.346839 43.8434165,216.346382 L43.8434165,168.849348 C43.8438763,166.832094 42.1972037,165.19573 40.1655409,165.19573 C40.165081,165.19573 40.1641611,165.19573 40.1637011,165.19573 L10.7259788,165.19573 Z M36.4839858,212.692764 L14.4056941,212.692764 L14.4056941,172.502966 L36.4839858,172.502966 L36.4839858,212.692764 Z" id="Shape" fill="#000000"></path>
                <path d="M62.3985767,146.405694 C60.3669139,146.405694 58.7193214,148.051907 58.7188613,150.08357 C58.7188613,150.08403 58.7188613,150.084949 58.7188613,150.085409 L58.7188613,216.320285 C58.7184014,218.351948 60.365074,220 62.3967368,220 C62.3971968,220 62.3981167,220 62.3985767,220 L91.836299,220 C93.8679618,220 95.5155543,218.353787 95.5160143,216.322125 C95.5160143,216.321665 95.5160143,216.320745 95.5160143,216.320285 L95.5160143,150.085409 C95.5164742,148.053747 93.8698016,146.405694 91.8381388,146.405694 C91.8376788,146.405694 91.8367589,146.405694 91.836299,146.405694 L62.3985767,146.405694 Z M88.1565837,212.640569 L66.078292,212.640569 L66.078292,153.765125 L88.1565837,153.765125 L88.1565837,212.640569 Z" id="Shape" fill="#000000"></path>
                <path d="M113.288256,124.483986 C111.256594,124.483986 109.609001,126.127504 109.608541,128.155842 C109.608541,128.156301 109.608541,128.15722 109.608541,128.157679 L109.608541,216.326307 C109.608081,218.354645 111.254754,220 113.286417,220 C113.286877,220 113.287796,220 113.288256,220 L142.725979,220 C144.757641,220 146.405234,218.356482 146.405694,216.328144 C146.405694,216.327685 146.405694,216.326766 146.405694,216.326307 L146.405694,128.157679 C146.406154,126.129341 144.759481,124.483986 142.727819,124.483986 C142.727359,124.483986 142.726439,124.483986 142.725979,124.483986 L113.288256,124.483986 Z M139.046263,212.652614 L116.967972,212.652614 L116.967972,131.831372 L139.046263,131.831372 L139.046263,212.652614 Z" id="Shape" fill="#000000"></path>
                <path d="M198.078292,216.338706 L198.078292,99.1773081 C198.078752,97.1558163 196.432079,95.5160143 194.400416,95.5160143 C194.399956,95.5160143 194.399036,95.5160143 194.398577,95.5160143 L164.960854,95.5160143 C162.929191,95.5160143 161.281599,97.1539857 161.281139,99.1754775 C161.281139,99.1759351 161.281139,99.1768505 161.281139,99.1773081 L161.281139,216.338706 C161.280679,218.360198 162.927352,220 164.959014,220 C164.959474,220 164.960394,220 164.960854,220 L194.398577,220 C196.430239,220 198.077832,218.362029 198.078292,216.340537 C198.078292,216.340079 198.078292,216.339164 198.078292,216.338706 Z M190.718861,212.677413 L168.64057,212.677413 L168.64057,102.838602 L190.718861,102.838602 L190.718861,212.677413 Z" id="Shape" fill="#000000"></path>
                <path d="M21.7886142,120.909747 C13.6720945,120.884472 7.07159541,127.447601 7.04626335,135.569026 C7.0210767,143.69045 13.5802423,150.294937 21.696762,150.320285 C28.907619,150.342729 35.0695238,145.127427 36.2429357,138.008716 L61.1312079,125.55706 C65.7178475,132.2484 74.8571415,133.952369 81.5444409,129.362498 C85.5404709,126.619972 87.926791,122.08157 87.9221984,117.233439 C87.9107169,115.057524 87.4115002,112.911479 86.4612892,110.954304 L109.907482,98.7089814 C113.079138,101.170729 116.975509,102.513501 120.988991,102.528206 C131.134525,102.528206 139.359431,94.2983307 139.359431,84.1466653 C139.359431,73.9949999 131.134525,65.7651246 120.988991,65.7651246 C110.843456,65.7651246 102.61855,73.9949999 102.61855,84.1466653 C102.639217,87.2462526 103.453487,90.2888572 104.982367,92.9845101 L81.6147078,105.188934 C74.984816,100.535188 65.840011,102.140356 61.1886155,108.773794 C59.4512312,111.251626 58.5226054,114.206458 58.5290351,117.232979 C58.5290351,117.69068 58.6231836,118.122186 58.6640578,118.569317 L35.421777,130.19748 C33.206302,124.60122 27.8049333,120.921235 21.7886142,120.909747 Z M120.988991,73.1177409 C127.076495,73.1177409 132.011255,78.0554822 132.011255,84.1466653 C132.011255,90.2378484 127.076495,95.1755898 120.988991,95.1755898 C114.901486,95.1755898 109.966727,90.2378484 109.966727,84.1466653 C109.973156,78.0582395 114.904242,73.1241744 120.988991,73.1177409 Z M73.2258464,109.880822 C77.2843359,109.880822 80.5740224,113.172497 80.5740224,117.233439 C80.5740224,121.294381 77.2843359,124.586055 73.2258464,124.586055 C69.1673569,124.586055 65.8776704,121.294381 65.8776704,117.233439 C65.882263,113.174794 69.1696532,109.885418 73.2258464,109.880822 Z M21.7886142,142.967596 C17.7301247,142.967596 14.4404382,139.675921 14.4404382,135.614979 C14.4404382,131.554038 17.7301247,128.262363 21.7886142,128.262363 C25.8471037,128.262363 29.1367902,131.554038 29.1367902,135.614979 C29.1321976,139.673624 25.8448074,142.963 21.7886142,142.967596 Z" id="Shape" fill="#000000"></path>
                <polygon id="Path" fill="#000000" points="10.8629893 28.9679715 18.1049822 28.9679715 18.1049822 18.1049822 28.9679715 18.1049822 28.9679715 10.8629893 18.1049822 10.8629893 18.1049822 0 10.8629893 0 10.8629893 10.8629893 0 10.8629893 0 18.1049822 10.8629893 18.1049822"></polygon>
                <polygon id="Path" fill="#000000" points="47.6601423 28.9679715 54.9021352 28.9679715 54.9021352 18.1049822 65.7651246 18.1049822 65.7651246 10.8629893 54.9021352 10.8629893 54.9021352 0 47.6601423 0 47.6601423 10.8629893 36.797153 10.8629893 36.797153 18.1049822 47.6601423 18.1049822"></polygon>
                <g id="bitcoin" transform="translate(142.000000, 6.000000)">
                    <g id="Group" transform="translate(1.071429, 1.071429)">
                        <path d="M72.7550333,35.8787244 C72.7550333,55.6537548 56.4850011,71.6845218 36.414821,71.6845218 C25.8346278,71.6845218 16.3105256,67.2299883 9.66990801,60.11998 C7.92557782,58.2536941 6.38148961,56.2032642 5.06730887,54.0037652 C1.89458585,48.6869696 0.0746086808,42.4918359 0.0746086808,35.8787244 C0.0746086808,16.1036939 16.3446409,0.0729269099 36.414821,0.0729269099 C43.128119,0.0729269099 49.4157174,1.8661397 54.8103848,4.9936665 C57.0427122,6.28705959 59.1222623,7.80844062 61.0164031,9.52858036 C68.232531,16.0686189 72.7550333,25.4541222 72.7550333,35.8787244 Z" id="Path" fill="#F0CD00"></path>
                        <path d="M72.7550333,35.8787244 C72.7550333,55.2080091 57.2118054,70.9596371 37.7675669,71.659677 C18.3233284,70.9596371 2.78010041,55.2080091 2.78010041,35.8787244 C2.78010041,16.5494396 18.3233284,0.797811626 37.7675669,0.0977717489 C57.2118054,0.797811626 72.7550333,16.5494396 72.7550333,35.8787244 Z" id="Path" fill="#FFDE50"></path>
                        <path d="M61.0164031,9.52858036 L9.66990801,60.11998 C7.92557782,58.2536941 6.38148961,56.2032642 5.06730887,54.0037652 L54.8103848,4.9936665 C57.0427122,6.28705959 59.1222623,7.80844062 61.0164031,9.52858036 Z" id="Path" fill="#FFEA94"></path>
                        <path d="M70.2483003,22.7884171 L23.1276528,69.216114 C19.7917696,67.9241823 16.6961768,66.1601988 13.9269043,64.0074665 L64.9633952,13.7215123 C67.1482577,16.4500602 68.9385694,19.5001296 70.2483003,22.7884171 Z" id="Path" fill="#FFEA94"></path>
                        <path d="M64.6533909,35.8787244 C64.6533909,51.2445266 52.0099636,63.7020212 36.414821,63.7020212 C30.9830717,63.7020212 25.9102747,62.1908704 21.6043304,59.571932 C19.7279888,58.4319924 17.9984914,57.0801408 16.4469868,55.5514525 C15.3063491,54.4290504 14.2621242,53.2087303 13.3291449,51.9065685 C12.0446296,50.1133557 10.969256,48.1637665 10.1401059,46.0928761 C8.91195501,43.0311151 8.22074934,39.7019066 8.17921767,36.2207063 C8.17625112,36.1067123 8.17625112,35.9927183 8.17625112,35.8787244 C8.17625112,20.5129221 20.8181952,8.05542755 36.414821,8.05542755 C36.5305164,8.05542755 36.647695,8.05542755 36.7633904,8.05835047 C40.296549,8.09927138 43.6739638,8.78177373 46.7814228,9.99040207 C48.883222,10.8088203 50.8619095,11.8669182 52.6818867,13.1325435 C54.0034838,14.053264 55.2405343,15.0806712 56.381172,16.2045348 C57.9326765,17.7317616 59.304705,19.4372868 60.4616587,21.2860351 C63.1196856,25.5286567 64.6533909,30.5268537 64.6533909,35.8787244 Z" id="Path" fill="#FAA300"></path>
                        <path d="M56.381172,16.2045348 L16.4469868,55.5514525 C15.3063491,54.4290504 14.2621242,53.2087303 13.3291449,51.9065685 C12.0446296,50.1133557 10.969256,48.1637665 10.1401059,46.0928761 C8.91195501,43.0311151 8.22074934,39.7019066 8.17921767,36.2207063 C8.17625112,36.1067123 8.17625112,35.9927183 8.17625112,35.8787244 C8.17625112,20.5129221 20.8181952,8.05542755 36.414821,8.05542755 C36.5305164,8.05542755 36.647695,8.05542755 36.7633904,8.05835047 C40.296549,8.09927138 43.6739638,8.78177373 46.7814228,9.99040207 C48.883222,10.8088203 50.8619095,11.8669182 52.6818867,13.1325435 C54.0034838,14.053264 55.2405343,15.0806712 56.381172,16.2045348 Z" id="Path" fill="#FFBD00"></path>
                        <path d="M64.6526493,35.8787244 C64.6526493,51.2445266 52.0092219,63.7020212 36.4140794,63.7020212 C35.8786175,63.7020212 35.3476054,63.6874066 34.8195599,63.6581773 C49.6730654,62.8441435 61.462127,50.7169391 61.462127,35.8787244 C61.462127,21.0405096 49.6730654,8.91330523 34.8195599,8.09927138 C35.3476054,8.07004216 35.8786175,8.05542755 36.4140794,8.05542755 C52.0092219,8.05542755 64.6526493,20.5129221 64.6526493,35.8787244 Z" id="Path" fill="#F68E00"></path>
                    </g>
                    <path d="M37.5,73.9285714 C27.4834158,73.9285714 18.0662376,70.0835537 10.9835644,63.1019151 C3.90074257,56.1204229 0,46.8377758 0,36.9642857 C0,27.0907956 3.90074257,17.8081485 10.9835644,10.8266563 C18.0662376,3.84501768 27.4834158,0 37.5,0 C40.9439109,0 44.3561881,0.460260255 47.6417822,1.36804455 C48.2340594,1.53171216 48.5796535,2.13763366 48.4136139,2.72159618 C48.2475743,3.30541231 47.6333168,3.6462157 47.0404455,3.48254809 C43.9507426,2.62878289 40.7405941,2.19589816 37.5,2.19589816 C28.0785149,2.19589816 19.2207921,5.81239604 12.5587129,12.3793027 C5.89663366,18.9462093 2.22772277,27.6773932 2.22772277,36.9642857 C2.22772277,46.2511782 5.89663366,54.9823621 12.5588614,61.5492687 C19.2207921,68.1161754 28.0785149,71.7326733 37.5,71.7326733 C46.9214851,71.7326733 55.7792079,68.1161754 62.4412871,61.5492687 C69.1033663,54.9823621 72.7722772,46.2511782 72.7722772,36.9642857 C72.7722772,29.9420962 70.6590594,23.1762412 66.6613366,17.3983939 C62.7570297,11.755814 57.319901,7.40193352 50.9376238,4.80769943 C50.3689604,4.57654455 50.0980693,3.93475672 50.3325743,3.37407072 C50.5669307,2.81353112 51.2180198,2.54636351 51.7869802,2.77766478 C58.5721782,5.53571287 64.3519307,10.1636414 68.5017327,16.1610785 C72.7528218,22.3050552 75,29.4988175 75,36.9642857 C75,46.8377758 71.0992574,56.1204229 64.0164356,63.1019151 C56.9337624,70.0835537 47.5165842,73.9285714 37.5,73.9285714 Z" id="Path" stroke="#000000" stroke-width="2" fill="#000000"></path>
                    <path d="M38.0357887,65.3571429 C21.7892121,65.3571429 8.57142857,52.3797961 8.57142857,36.4285714 C8.57142857,20.4773468 21.7892121,7.5 38.0357887,7.5 C54.2823654,7.5 67.5,20.4773468 67.5,36.4285714 C67.5,52.3797961 54.2823654,65.3571429 38.0357887,65.3571429 Z M38.0357887,9.69290963 C23.0206225,9.69290963 10.804942,21.6865172 10.804942,36.4285714 C10.804942,51.1706257 23.0206225,63.1642332 38.0357887,63.1642332 C53.0508061,63.1642332 65.2664866,51.1706257 65.2664866,36.4285714 C65.2664866,21.6865172 53.0508061,9.69290963 38.0357887,9.69290963 Z" id="Shape" stroke="#000000" fill="#000000"></path>
                    <path d="M50.3571429,43.3213689 C50.3571429,39.680305 48.3489161,36.4724518 45.3175236,34.6132735 C46.5631966,33.0047581 47.3005003,31.0291393 47.3005003,28.8942033 C47.3005003,25.2072514 45.1072589,21.9919414 41.8795276,20.3318021 L41.8795276,16.7965671 C41.8795276,15.2125731 40.5092874,13.9285714 38.8189062,13.9285714 C37.128525,13.9285714 35.7582848,15.2125731 35.7582848,16.7965671 L35.7582848,19.1334101 L32.0644208,19.1334101 L32.0644208,16.7965671 C32.0644208,15.2125731 30.6941806,13.9285714 29.0037994,13.9285714 C27.3134182,13.9285714 25.943178,15.2125731 25.943178,16.7965671 L25.943178,19.1334101 L22.3463357,19.1334101 C20.6559545,19.1334101 19.2857143,20.4174117 19.2857143,22.0014058 C19.2857143,23.5853998 20.6559545,24.8694015 22.3463357,24.8694015 L23.4025561,24.8694015 L23.4025561,35.7871442 L23.4025561,47.9877414 L22.3463357,47.9877414 C20.6559545,47.9877414 19.2857143,49.271743 19.2857143,50.8557371 C19.2857143,52.4397311 20.6559545,53.7237328 22.3463357,53.7237328 L25.943178,53.7237328 L25.943178,56.0605757 C25.943178,57.6445697 27.3134182,58.9285714 29.0037994,58.9285714 C30.6941806,58.9285714 32.0644208,57.6445697 32.0644208,56.0605757 L32.0644208,53.7237328 L35.7582848,53.7237328 L35.7582848,56.0605757 C35.7582848,57.6445697 37.128525,58.9285714 38.8189062,58.9285714 C40.5092874,58.9285714 41.8795276,57.6445697 41.8795276,56.0605757 L41.8795276,53.4277556 C46.7382641,52.3199923 50.3571429,48.2104412 50.3571429,43.3213689 Z M29.523952,24.8694015 L36.8841344,24.8694015 C39.2525963,24.8694015 41.1792574,26.6749482 41.1792574,28.8942033 C41.1792574,31.1134584 39.2524432,32.9190051 36.8841344,32.9190051 L29.523952,32.9190051 L29.523952,24.8694015 Z M39.256116,47.9877414 L29.523799,47.9877414 L29.523799,38.6551399 L36.8839813,38.6551399 L39.256116,38.6551399 C42.0017994,38.6551399 44.235747,40.74849 44.235747,43.3215123 C44.235747,45.8945347 42.0019525,47.9877414 39.256116,47.9877414 Z" id="Shape" fill="#F68E00"></path>
                    <path d="M54.6428571,43.3213689 C54.6428571,39.680305 52.6346304,36.4724518 49.6032379,34.6132735 C50.8489108,33.0047581 51.5862145,31.0291393 51.5862145,28.8942033 C51.5862145,25.2072514 49.3929732,21.9919414 46.1652419,20.3318021 L46.1652419,16.7965671 C46.1652419,15.2125731 44.7950017,13.9285714 43.1046205,13.9285714 C41.4142393,13.9285714 40.0439991,15.2125731 40.0439991,16.7965671 L40.0439991,19.1334101 L36.3501351,19.1334101 L36.3501351,16.7965671 C36.3501351,15.2125731 34.9798949,13.9285714 33.2895137,13.9285714 C31.5991325,13.9285714 30.2288923,15.2125731 30.2288923,16.7965671 L30.2288923,19.1334101 L26.63205,19.1334101 C24.9416688,19.1334101 23.5714286,20.4174117 23.5714286,22.0014058 C23.5714286,23.5853998 24.9416688,24.8694015 26.63205,24.8694015 L27.6882704,24.8694015 L27.6882704,35.7871442 L27.6882704,47.9877414 L26.63205,47.9877414 C24.9416688,47.9877414 23.5714286,49.271743 23.5714286,50.8557371 C23.5714286,52.4397311 24.9416688,53.7237328 26.63205,53.7237328 L30.2288923,53.7237328 L30.2288923,56.0605757 C30.2288923,57.6445697 31.5991325,58.9285714 33.2895137,58.9285714 C34.9798949,58.9285714 36.3501351,57.6445697 36.3501351,56.0605757 L36.3501351,53.7237328 L40.0439991,53.7237328 L40.0439991,56.0605757 C40.0439991,57.6445697 41.4142393,58.9285714 43.1046205,58.9285714 C44.7950017,58.9285714 46.1652419,57.6445697 46.1652419,56.0605757 L46.1652419,53.4277556 C51.0241314,52.3199923 54.6428571,48.2104412 54.6428571,43.3213689 Z M33.8096663,24.8694015 L41.1698487,24.8694015 C43.5383105,24.8694015 45.4649717,26.6749482 45.4649717,28.8942033 C45.4649717,31.1134584 43.5381575,32.9190051 41.1698487,32.9190051 L33.8096663,32.9190051 L33.8096663,24.8694015 L33.8096663,24.8694015 Z M43.5419833,47.9877414 L33.8096663,47.9877414 L33.8096663,38.6551399 L41.1698487,38.6551399 L43.5419833,38.6551399 C46.2876668,38.6551399 48.5216143,40.74849 48.5216143,43.3215123 C48.5216143,45.8945347 46.2876668,47.9877414 43.5419833,47.9877414 Z" id="Shape" fill="#FFEA94"></path>
                    <path d="M43.0863374,60 C40.77654,60 38.8972305,58.1911285 38.8972305,55.9675773 L38.8972305,54.6777885 L37.5052284,54.6777885 L37.5052284,55.9675773 C37.5052284,58.1911285 35.6259189,60 33.3161216,60 C31.0063242,60 29.1270147,58.1911285 29.1270147,55.9675773 L29.1270147,54.6777885 L26.6891068,54.6777885 C24.3793095,54.6777885 22.5,52.868917 22.5,50.6453658 C22.5,48.4511413 24.3301065,46.6607456 26.5980128,46.6138228 L26.5980128,45.4499923 C26.5980128,44.8426361 27.1093885,44.3502407 27.7404965,44.3502407 C28.3716045,44.3502407 28.8829802,44.8426361 28.8829802,45.4499923 L28.8829802,47.7125481 C28.8829802,48.3199042 28.3716045,48.8122997 27.7404965,48.8122997 L26.6891068,48.8122997 C25.6390882,48.8122997 24.7849674,49.634474 24.7849674,50.6452191 C24.7849674,51.6559642 25.6390882,52.4781386 26.6891068,52.4781386 L30.2694984,52.4781386 C30.9006064,52.4781386 31.4119821,52.970534 31.4119821,53.5778902 L31.4119821,55.9674306 C31.4119821,56.9781757 32.2661029,57.8003501 33.3161216,57.8003501 C34.3661402,57.8003501 35.220261,56.9781757 35.220261,55.9674306 L35.220261,53.5778902 C35.220261,52.970534 35.7316367,52.4781386 36.3627447,52.4781386 L40.0397142,52.4781386 C40.6708222,52.4781386 41.1821979,52.970534 41.1821979,53.5778902 L41.1821979,55.9674306 C41.1821979,56.9781757 42.0363187,57.8003501 43.0863374,57.8003501 C44.136356,57.8003501 44.9904768,56.9781757 44.9904768,55.9674306 L44.9904768,53.2752386 C44.9904768,52.7680331 45.3508924,52.3265195 45.8628774,52.2065732 C50.3179544,51.1632755 53.4293183,47.3531492 53.4293183,42.9410922 C53.4293183,39.716767 51.7471254,36.7318943 48.9296083,34.9567485 C48.6680557,34.7919324 48.4881526,34.531218 48.4314854,34.2353114 C48.3751228,33.9394049 48.4470232,33.6341139 48.6305822,33.3907022 C49.7794638,31.8667396 50.3866558,30.0678392 50.3866558,28.1885836 C50.3866558,24.9481287 48.5460384,21.9626695 45.5833497,20.3972097 C45.2177549,20.2040933 44.9904768,19.8345767 44.9904768,19.433094 L44.9904768,15.818137 C44.9904768,14.8073919 44.136356,13.9852176 43.0863374,13.9852176 C42.0363187,13.9852176 41.1821979,14.8073919 41.1821979,15.818137 L41.1821979,18.2076774 C41.1821979,18.8150336 40.6708222,19.3074291 40.0397142,19.3074291 L36.3627447,19.3074291 C35.7316367,19.3074291 35.220261,18.8150336 35.220261,18.2076774 L35.220261,15.818137 C35.220261,14.8073919 34.3661402,13.9852176 33.3161216,13.9852176 C32.2661029,13.9852176 31.4119821,14.8073919 31.4119821,15.818137 L31.4119821,18.2076774 C31.4119821,18.8150336 30.9006064,19.3074291 30.2694984,19.3074291 L26.6891068,19.3074291 C25.6390882,19.3074291 24.7849674,20.1296034 24.7849674,21.1403485 C24.7849674,22.1510936 25.6390882,22.9732679 26.6891068,22.9732679 L27.7404965,22.9732679 C28.3716045,22.9732679 28.8829802,23.4656634 28.8829802,24.0730196 L28.8829802,41.050839 C28.8829802,41.6581952 28.3716045,42.1505907 27.7404965,42.1505907 C27.1093885,42.1505907 26.5980128,41.6581952 26.5980128,41.050839 L26.5980128,25.1718915 C24.3299542,25.1251154 22.5,23.334573 22.5,21.1403485 C22.5,18.9167973 24.3793095,17.1079258 26.6891068,17.1079258 L29.1270147,17.1079258 L29.1270147,15.818137 C29.1270147,13.5945858 31.0063242,11.7857143 33.3161216,11.7857143 C35.6259189,11.7857143 37.5052284,13.5945858 37.5052284,15.818137 L37.5052284,17.1079258 L38.8972305,17.1079258 L38.8972305,15.818137 C38.8972305,13.5945858 40.77654,11.7857143 43.0863374,11.7857143 C45.3962871,11.7857143 47.2754442,13.5945858 47.2754442,15.818137 L47.2754442,18.8046226 C50.6206364,20.8287522 52.6716232,24.3661401 52.6716232,28.1887302 C52.6716232,30.1657904 52.1335895,32.0712935 51.1064205,33.7599255 C54.0109187,35.9817171 55.7142857,39.3394788 55.7142857,42.9412388 C55.7142857,48.0781055 52.2872917,52.5518952 47.2755965,54.1067975 L47.2755965,55.9675773 C47.2754442,58.1909818 45.3962871,60 43.0863374,60 Z M43.5215475,48.8124463 L33.8337428,48.8124463 C33.2026348,48.8124463 32.6912591,48.3200509 32.6912591,47.7126947 L32.6912591,38.1696363 C32.6912591,37.5622802 33.2026348,37.0698847 33.8337428,37.0698847 L43.5215475,37.0698847 C46.8847148,37.0698847 49.6208871,39.7037166 49.6208871,42.9412388 C49.6208871,46.1787611 46.8848671,48.8124463 43.5215475,48.8124463 Z M34.9763788,46.612943 L43.5216998,46.612943 C45.6249361,46.612943 47.336072,44.9658083 47.336072,42.9410922 C47.336072,40.9163761 45.6249361,39.2692414 43.5216998,39.2692414 L34.9763788,39.2692414 L34.9763788,46.612943 L34.9763788,46.612943 Z M41.1602622,33.4040458 L33.8337428,33.4040458 C33.2026348,33.4040458 32.6912591,32.9116504 32.6912591,32.3042942 L32.6912591,24.0730196 C32.6912591,23.4656634 33.2026348,22.9732679 33.8337428,22.9732679 L41.1602622,22.9732679 C44.1477809,22.9732679 46.5782245,25.3129529 46.5782245,28.1885836 C46.5782245,31.0642142 44.1479332,33.4040458 41.1602622,33.4040458 Z M34.9763788,31.2045425 L41.1604145,31.2045425 C42.8880022,31.2045425 44.2934095,29.8515547 44.2934095,28.1887302 C44.2934095,26.5259057 42.8878499,25.1729179 41.1604145,25.1729179 L34.9763788,25.1729179 L34.9763788,31.2045425 Z" id="Shape" fill="#000000"></path>
                </g>
            </g>
        </g>
    </g>
</svg>