<?xml version="1.0" encoding="UTF-8"?>
<svg width="216px" height="286px" viewBox="0 0 216 286" version="1.1" xmlns="http://www.w3.org/2000/svg" xmlns:xlink="http://www.w3.org/1999/xlink">
    <!-- Generator: Sketch 55.2 (78181) - https://sketchapp.com -->
    <title>startup</title>
    <desc>Created with Sketch.</desc>
    <g id="MAIN-PAGE" stroke="none" stroke-width="1" fill="none" fill-rule="evenodd">
        <g id="Artboard" transform="translate(-659.000000, -2571.000000)" fill-rule="nonzero">
            <g id="startup" transform="translate(659.000000, 2571.000000)">
                <path d="M211.197461,173.439739 L170,125 L170,218 L205.182416,218 C209.500178,218 213,214.583253 213,210.370434 L213,178.312661 C213,176.531917 212.361875,174.808192 211.197461,173.439739 L211.197461,173.439739 Z" id="Path" fill="#FECA57"></path>
                <polygon id="Path" fill="#F59536" points="188 146.020233 170 125 170 218 188 218"></polygon>
                <path d="M5.84572285,173.439739 L48,125 L48,218 L11.9995995,218 C7.58131876,218 4,214.583253 4,210.370434 L4,178.312661 C4,176.531917 4.65415269,174.808192 5.84572285,173.439739 L5.84572285,173.439739 Z" id="Path" fill="#FECA57"></path>
                <path d="M20.9185026,210.370434 L20.9185026,178.312661 C20.9185026,176.531917 21.5726875,174.808192 22.7643173,173.439739 L48,144.439055 L48,125 L5.84581526,173.439739 C4.65418544,174.808192 4,176.531917 4,178.312661 L4,210.370434 C4,214.583253 7.58149808,218 12,218 L28.9185026,218 C24.5,218 20.9185026,214.583253 20.9185026,210.370434 L20.9185026,210.370434 Z" id="Path" fill="#F59536"></path>
                <path d="M4,202 L4,210.532331 C4,214.655756 7.58149808,218 12,218 L48,218 L48,202 L4,202 Z" id="Path" fill="#F4B537"></path>
                <path d="M29,218 C24.5670466,218 20.9738355,214.655756 20.9738355,210.532331 L20.9738355,202 L4,202 L4,210.532331 C4,212.595117 4.89940789,214.46257 6.35127725,215.812718 C6.58331162,216.029515 6.8352339,216.226992 7.09599613,216.418031 C7.31698027,216.576871 7.54459465,216.72498 7.78325813,216.862355 C9.01414279,217.579286 10.4660127,218 12.0261645,218 L29,218 Z" id="Path" fill="#E59D1F"></path>
                <path d="M170,202 L170,218 L205.182416,218 C209.500178,218 213,214.655756 213,210.532331 L213,202 L170,202 Z" id="Path" fill="#F4B537"></path>
                <polygon id="Path" fill="#E59D1F" points="170 202 188 202 188 218 170 218"></polygon>
                <polygon id="Path" fill="#CCD2DB" points="77 225 141 225 141 247 77 247"></polygon>
                <polygon id="Path" fill="#BCC2CC" points="77 225 94 225 94 247 77 247"></polygon>
                <path d="M69.9488306,42 C58.9391828,58.7416188 51.4150175,77.9487632 48.4329707,98.5701626 C47.4888349,105.099035 47,111.769671 47,118.548709 L47,214 L171,214 L171,118.550886 C171,90.3581262 162.546545,64.0421266 148.051169,42 L69.9488306,42 Z" id="Path" fill="#268BA6"></path>
                <path d="M86,42 L69.1242448,42 C54.5180709,64.0421266 46,90.3581262 46,118.548709 L46,214 L62.8757552,214 L62.8757552,118.550886 C62.8757552,90.3581262 71.3938261,64.0421266 86,42 Z" id="Path" fill="#134E5E"></path>
                <path d="M141.469267,244 L76.5307324,244 C72.9393787,244 70,246.867625 70,250.373929 L70,254.626072 C70,258.132375 72.9393787,261 76.5307324,261 L141.469267,261 C145.060621,261 148,258.132375 148,254.626072 L148,250.373929 C148,246.867625 145.060621,244 141.469267,244 L141.469267,244 Z" id="Path" fill="#E4EAF8"></path>
                <path d="M86.5787348,254.624732 L86.5787348,250.375268 C86.5787348,246.869406 89.4688438,244 93,244 L76.4212646,244 C72.890109,244 70,246.869406 70,250.375268 L70,254.624732 C70,258.130594 72.890109,261 76.4212646,261 L93,261 C89.4688438,261 86.5787348,258.130594 86.5787348,254.624732 Z" id="Path" fill="#CCD2DB"></path>
                <path d="M102.774951,6.06012388 C89.4913361,15.9828381 78.0414567,28.1643461 69,42 L149,42 C139.958544,28.1643461 128.508664,15.9828381 115.22505,6.06012388 C111.548805,3.31329204 106.451196,3.31329204 102.774951,6.06012388 Z" id="Path" fill="#268BA6"></path>
                <path d="M114.819269,6.06012388 C111.175296,3.31329204 106.122435,3.31329204 102.478462,6.06012388 C89.3114557,15.9828381 77.9620875,28.1643461 69,42 L85.697921,42 C94.1621144,28.9352728 104.757033,17.3454568 117,7.74018325 C116.278163,7.17440472 115.551977,6.61294538 114.819269,6.06012388 Z" id="Path" fill="#134E5E"></path>
                <path d="M138,88 C138,104.568068 124.346403,118 107.5,118 C90.6557965,118 77,104.568068 77,88 C77,71.431931 90.6557965,58 107.5,58 C124.346403,58 138,71.431931 138,88 Z" id="Path" fill="#F59536"></path>
                <path d="M93.9223251,88 C93.9223251,74.3170046 103.252627,62.7810402 116,59.17524 C113.312169,58.4155544 110.476726,58 107.537736,58 C90.6726922,58 77,71.431931 77,88 C77,104.568068 90.6726922,118 107.537736,118 C110.476726,118 113.312169,117.584446 116,116.82476 C103.250424,113.218959 93.9223251,101.682995 93.9223251,88 Z" id="Path" fill="#F59536"></path>
                <path d="M47,213 L47,218.529215 C47,224.312187 51.5919463,229 57.2566556,229 L160.743344,229 C166.408053,229 171,224.312187 171,218.529215 L171,213 C162.609777,213 51.4611216,213 47,213 Z" id="Path" fill="#FECA57"></path>
                <path d="M62.7450141,218.529215 L62.7450141,213 C53.3729509,213 47.0006455,213 46,213 L46,218.529215 C46,224.312187 50.5911988,229 56.2549859,229 L73,229 C67.3362129,229 62.7450141,224.312187 62.7450141,218.529215 Z" id="Path" fill="#F59536"></path>
                <path d="M110.199147,136 L106.800853,136 C103.061449,136 100,139.124058 100,142.939934 L100,211.062241 C100,214.878117 103.061449,218 106.800853,218 L110.199147,218 C113.93855,218 117,214.878117 117,211.062241 C117,205.351481 117,149.418656 117,142.939934 C117,139.124058 113.93855,136 110.199147,136 Z" id="Path" fill="#FECA57"></path>
                <path d="M110.950665,211.062241 C110.950665,204.583519 110.950665,148.64852 110.950665,142.939934 C110.950665,140.538152 112.165267,138.414836 114,137.168258 C112.920116,136.43293 111.622117,136 110.230029,136 L106.821445,136 C103.070719,136 100,139.124058 100,142.939934 L100,211.062241 C100,214.878117 103.068581,218 106.821445,218 L110.230029,218 C111.622117,218 112.920116,217.569246 114,216.833917 C112.165267,215.58734 110.950665,213.461849 110.950665,211.062241 L110.950665,211.062241 Z" id="Path" fill="#F59536"></path>
                <path d="M100,202 L100,211.154816 C100,214.919774 103.061449,218 106.800853,218 L110.199147,218 C113.93855,218 117,214.919774 117,211.154816 C117,209.974242 117,206.619265 117,202 L100,202 Z" id="Path" fill="#F4B537"></path>
                <path d="M114,216.849477 C112.165267,215.619533 110.950665,213.522404 110.950665,211.154816 C110.950665,209.851891 110.950665,206.522672 110.950665,202 L100,202 L100,211.154816 C100,211.388784 100.01283,211.622753 100.036352,211.852428 C100.387047,215.297558 103.310218,218 106.821445,218 L110.232168,218 C111.502367,218 112.858103,217.615777 114,216.849477 L114,216.849477 Z" id="Path" fill="#E59D1F"></path>
                <path d="M124,88 C124,96.8360836 116.835591,104 107.9989,104 C99.1622087,104 92,96.8360836 92,88 C92,79.1639164 99.1622087,72 107.9989,72 C116.835591,72 124,79.1639164 124,88 Z" id="Path" fill="#FECA57"></path>
                <path d="M108.589633,88 C108.589633,82.2662269 111.550756,77.2409244 116,74.4158419 C113.591793,72.8866888 110.74946,72 107.704104,72 C99.0302377,72 92,79.1639164 92,88 C92,96.8360836 99.0302377,104 107.704104,104 C110.74946,104 113.591793,103.113312 116,101.584159 C111.550756,98.7590762 108.589633,93.7337737 108.589633,88 Z" id="Path" fill="#F59536"></path>
                <path d="M213.281015,171.390509 L174.237614,124.285731 L174.237614,118.354471 C174.237614,95.3834064 168.963307,73.3783025 158.556534,52.9467088 C149.033541,34.2481617 134.906167,16.7341178 116.726501,2.92000902 C111.600582,-0.972243339 104.397236,-0.974429189 99.2734986,2.92000902 C82.4205929,15.724449 67.8175061,32.5741213 57.4412836,52.9467088 C47.0345103,73.3783025 41.7602035,95.3834064 41.7602035,118.354471 L41.7602035,124.285731 L2.71680258,171.390509 C0.964519239,173.501636 0,176.180974 0,178.92806 L0,210.87469 C0,217.380718 5.28521809,222.673831 11.7815406,222.673831 L42.3821226,222.673831 C44.1824135,228.616018 49.7011234,232.954098 56.2149033,232.954098 L72.0749211,232.954098 L72.0749211,240.92655 C67.9789865,242.425756 65.0417848,246.355161 65.0417848,250.968606 L65.0417848,255.302315 C65.0417848,261.200794 69.8338315,266 75.7235107,266 L98.2238746,266 C100.536976,266 102.413643,264.122715 102.413643,261.803973 C102.413643,259.485231 100.536976,257.607945 98.2238746,257.607945 L75.7235107,257.607945 C74.475309,257.607945 73.4235029,256.552382 73.4235029,255.302315 L73.4235029,250.968606 C73.4235029,249.720725 74.475309,248.665162 75.7235107,248.665162 L140.274307,248.665162 C141.522509,248.665162 142.576497,249.720725 142.576497,250.968606 L142.576497,255.302315 C142.576497,256.552382 141.522509,257.607945 140.274307,257.607945 L117.776125,257.607945 C115.460842,257.607945 113.586357,259.485231 113.586357,261.803973 C113.586357,264.122715 115.460842,266 117.776125,266 L140.274307,266 C146.163986,266 150.956033,261.200794 150.956033,255.302315 L150.956033,250.968606 C150.956033,246.355161 148.018831,242.425756 143.925079,240.928736 L143.925079,232.954098 L159.782915,232.954098 C166.296695,232.954098 171.815405,228.616018 173.617877,222.673831 L204.216277,222.673831 C210.7126,222.673831 216,217.380718 216,210.87469 C216,207.284027 216,182.874949 216,178.92806 C215.997818,176.180974 215.033298,173.503821 213.281015,171.390509 C213.283197,171.390509 213.283197,171.390509 213.281015,171.390509 L213.281015,171.390509 Z M206.834882,176.751371 C207.338964,177.361106 207.618282,178.134749 207.618282,178.92806 L207.618282,197.989389 L174.237614,197.989389 L174.237614,137.424541 L206.834882,176.751371 Z M104.338318,9.60742769 C106.311,8.10822235 109.086721,7.94868547 111.24707,9.31895081 C112.074113,9.84563952 126.906328,20.578291 139.85533,38.4398179 L76.1424875,38.4398179 C84.0965002,27.4689546 93.5933077,17.7721977 104.338318,9.60742769 Z M50.1397396,118.354471 C50.1397396,92.5926113 57.2579812,68.0218111 70.3881031,46.8318727 L145.609715,46.8318727 C158.739837,68.0218111 165.858078,92.5926113 165.858078,118.354471 L165.858078,125.800234 L165.858078,208.850981 L120.887901,208.850981 C120.887901,195.998461 120.887901,194.363759 120.887901,181.930843 C120.887901,179.6121 119.013416,177.734815 116.698133,177.734815 C114.38285,177.734815 112.508365,179.6121 112.508365,181.930843 L112.508365,197.991575 L103.489453,197.991575 L103.489453,143.073881 C103.489453,141.570304 104.757294,140.300569 106.258628,140.300569 L109.73919,140.300569 C111.240524,140.300569 112.508365,141.570304 112.508365,143.073881 L112.508365,162.34501 C112.508365,164.663752 114.38285,166.543224 116.698133,166.543224 C119.013416,166.543224 120.887901,164.663752 120.887901,162.34501 L120.887901,143.073881 C120.887901,136.917521 115.886365,131.908514 109.73919,131.908514 L106.258628,131.908514 C100.111452,131.908514 95.1077346,136.917521 95.1077346,143.073881 L95.1077346,208.850981 L50.1397396,208.850981 C50.1397396,206.110451 50.1397396,128.547321 50.1397396,125.798049 L50.1397396,118.354471 Z M112.508365,211.506279 C112.508365,213.05575 111.177241,214.279591 109.73919,214.279591 L106.258628,214.279591 C104.831488,214.279591 103.489453,213.064492 103.489453,211.506279 L103.489453,206.383629 L112.508365,206.383629 L112.508365,211.506279 Z M9.16293556,176.751371 L41.7602035,137.424541 L41.7602035,197.989389 L8.37953609,197.989389 L8.37953609,178.92806 C8.37953609,178.132563 8.65885396,177.361106 9.16293556,176.751371 Z M8.37953609,210.872504 L8.37953609,206.383629 L41.7602035,206.383629 L41.7602035,214.279591 L11.7815406,214.279591 C9.90487365,214.279591 8.37953609,212.751975 8.37953609,210.872504 L8.37953609,210.872504 Z M135.54336,240.270922 L80.4522751,240.270922 L80.4522751,232.954098 L135.54336,232.954098 L135.54336,240.270922 Z M159.782915,224.559858 C157.177402,224.559858 59.1259195,224.559858 56.2149033,224.559858 C52.8652709,224.559858 50.1397396,221.83244 50.1397396,218.477804 L50.1397396,217.243036 L96.7116303,217.243036 C98.7650529,220.661049 102.444193,222.673831 106.258628,222.673831 L109.73919,222.673831 C113.579811,222.673831 117.243676,220.641381 119.286188,217.243036 L165.858078,217.243036 L165.858078,218.477804 C165.858078,221.83244 163.132547,224.559858 159.782915,224.559858 Z M207.618282,210.872504 C207.618282,212.751975 206.092944,214.279591 204.216277,214.279591 L174.237614,214.279591 C174.237614,211.235286 174.237614,209.32959 174.237614,206.383629 L207.618282,206.383629 L207.618282,210.872504 Z" id="Shape" fill="#000000"></path>
                <path d="M107.498907,123 C126.522384,123 142,107.52457 142,88.5010933 C142,69.4776162 126.522384,54 107.498907,54 C88.4754298,54 73,69.4776162 73,88.5010933 C73,107.52457 88.4776163,123 107.498907,123 Z M107.498907,62.3968252 C121.894402,62.3968252 133.603175,74.1055987 133.603175,88.5010933 C133.603175,102.894402 121.894402,114.605361 107.498907,114.605361 C93.1055983,114.605361 81.3946393,102.894402 81.3946393,88.5010933 C81.3946393,74.1055987 93.1055983,62.3968252 107.498907,62.3968252 Z" id="Shape" fill="#000000"></path>
                <path d="M87,281.937045 L87,274.062955 C87,271.817749 85.2104165,270 83,270 C80.7895835,270 79,271.817749 79,274.062955 L79,281.937045 C79,284.180135 80.7895835,286 83,286 C85.2104165,286 87,284.180135 87,281.937045 Z" id="Path" fill="#000000"></path>
                <path d="M103,281.937045 L103,274.062955 C103,271.817749 101.210417,270 99,270 C96.7895835,270 95,271.817749 95,274.062955 L95,281.937045 C95,284.180135 96.7895835,286 99,286 C101.210417,286 103,284.180135 103,281.937045 Z" id="Path" fill="#000000"></path>
                <path d="M120,281.937045 L120,274.062955 C120,271.817749 118.210417,270 116,270 C113.789583,270 112,271.817749 112,274.062955 L112,281.937045 C112,284.180135 113.789583,286 116,286 C118.210417,286 120,284.180135 120,281.937045 Z" id="Path" fill="#000000"></path>
                <path d="M136,281.937045 L136,274.062955 C136,271.817749 134.210417,270 132,270 C129.789583,270 128,271.817749 128,274.062955 L128,281.937045 C128,284.180135 129.789583,286 132,286 C134.210417,286 136,284.180135 136,281.937045 Z" id="Path" fill="#000000"></path>
                <path d="M107.998912,108 C119.028668,108 128,99.0286677 128,88.0010879 C128,76.9713318 119.028668,68 107.998912,68 C96.9713323,68 88,76.9713318 88,88.0010879 C88,99.0286677 96.9713323,108 107.998912,108 Z M107.998912,76.3555459 C114.420062,76.3555459 119.644454,81.5799378 119.644454,88.0010879 C119.644454,94.4200616 114.420062,99.6444541 107.998912,99.6444541 C101.579938,99.6444541 96.3555459,94.4200616 96.3555459,88.0010879 C96.3555459,81.5799378 101.579938,76.3555459 107.998912,76.3555459 Z" id="Shape" fill="#000000"></path>
            </g>
        </g>
    </g>
</svg>