<?xml version="1.0" encoding="UTF-8"?>
<svg width="186px" height="200px" viewBox="0 0 186 200" version="1.1" xmlns="http://www.w3.org/2000/svg" xmlns:xlink="http://www.w3.org/1999/xlink">
    <!-- Generator: Sketch 56.3 (81716) - https://sketch.com -->
    <title>011-save</title>
    <desc>Created with Sketch.</desc>
    <g id="MAIN-PAGE" stroke="none" stroke-width="1" fill="none" fill-rule="evenodd">
        <g id="Artboard" transform="translate(-398.000000, -3343.000000)">
            <g id="011-save" transform="translate(398.000000, 3344.000000)">
                <g id="Left-hand" transform="translate(0.000000, 64.000000)">
                    <path d="M1.4319721,15.8493004 C1.4319721,12.5379451 2.42596352,9.55772527 4.41394635,6.90864103 C6.40192918,4.59069231 9.05257296,3.26615018 12.0345472,3.26615018 C17.6671652,3.59728571 22.3057918,8.23318315 22.3057918,14.1936227 L34.2336888,65.51963 C36.8843326,62.8705458 41.1916288,62.5394103 44.173603,64.5262234 L67.6980665,79.4273223 L67.6980665,115.852231 L33.2396974,115.852231 L33.2396974,109.891791 L11.3718863,94.9906923 C5.0766073,90.0236593 1.10064163,82.4075421 1.4319721,74.4602894 L1.4319721,15.8493004 Z" id="Path" fill="#F7C454" fill-rule="nonzero"></path>
                    <path d="M71.3413147,76.6888889 L48.1197209,61.8138889 C45.1340874,59.8305556 41.8167168,59.5 38.4993463,60.4916667 L27.5520235,13.5527778 C26.8885494,6.28055556 21.2490194,0.661111111 13.9508042,0 C9.96995957,0 6.32085196,1.98333333 3.99869258,4.95833333 C1.34479614,7.93333333 0.0178479198,11.9 0.0178479198,15.8666667 L0.0178479198,74.375 C-0.313889135,83.6305556 3.99869258,92.225 11.2969078,97.5138889 L31.8646052,111.397222 L31.8646052,115.694444 C31.8646052,117.677778 33.1915534,119 35.1819757,119 L35.1819757,119 L69.6826295,119 C71.6730518,119 73,117.677778 73,115.694444 L73,115.694444 L73,79.3333333 C73,78.3416667 72.3365259,77.35 71.3413147,76.6888889 Z M66.3652589,112.388889 L38.4993463,112.388889 L38.4993463,109.744444 C38.4993463,108.752778 37.8358722,107.761111 37.1723981,107.1 L14.9460154,92.225 C9.30648546,87.9277778 6.32085196,81.3166667 6.65258902,74.375 L6.65258902,15.8666667 C6.65258902,13.2222222 7.31606313,10.9083333 8.9747484,8.925 C10.3016966,7.60277778 11.9603819,6.61111111 13.9508042,6.61111111 C17.9316489,7.27222222 20.9172824,10.5777778 20.9172824,14.5444444 L20.9172824,14.875 L32.5280793,64.4583333 C30.869394,66.4416667 30.2059199,68.7555556 30.2059199,71.4 C30.2059199,75.0361111 31.8646052,78.6722222 34.8502387,80.6555556 L50.7736173,91.8944444 L54.754462,86.6055556 L38.8310833,75.3666667 C37.5041351,74.375 36.840661,73.0527778 36.840661,71.4 C36.840661,70.4083333 37.1723981,69.0861111 38.1676092,68.425 L38.4993463,68.0944444 C40.1580316,66.4416667 42.4801909,66.4416667 44.4706133,67.7638889 L66.3652589,81.6472222 L66.3652589,112.388889 Z" id="Shape" fill="#000000" fill-rule="nonzero"></path>
                    <polygon id="Path" stroke="#000000" stroke-width="6" fill="#268BA6" stroke-linejoin="round" points="73.8605372 131.233141 29 131.233141 29 115 73.8605372 115"></polygon>
                </g>
                <g id="Right-hand" transform="translate(112.000000, 64.000000)">
                    <path d="M70.6036459,15.8493004 C70.6036459,12.5379451 69.6096545,9.55772527 67.6216717,6.90864103 C65.9650193,4.59069231 62.9830451,3.26615018 60.3324013,3.26615018 C54.6997833,3.59728571 50.0611567,8.23318315 50.0611567,14.1936227 L38.1332597,65.51963 C35.4826159,62.8705458 31.1753197,62.5394103 28.1933455,64.5262234 L4.3375515,79.4273223 L4.3375515,115.852231 L38.7959206,115.852231 L38.7959206,109.891791 L60.9950622,94.9906923 C67.2903412,90.0236593 71.2663069,82.4075421 70.9349764,74.4602894 L70.6036459,15.8493004 Z" id="Path" fill="#F7C454" fill-rule="nonzero"></path>
                    <path d="M70.0013074,4.95833333 C67.679148,1.98333333 64.0300404,0 60.0491958,0 C52.7509806,0.330555556 46.7797136,6.28055556 46.4479765,13.5527778 L35.5006537,60.1611111 C32.1832832,59.1694444 28.8659126,59.8305556 25.8802791,61.4833333 L2.65868527,76.3583333 C1.66347411,77.35 1,78.3416667 1,79.3333333 L1,115.694444 C1,117.677778 2.32694822,119 4.31737055,119 L4.31737055,119 L38.8180243,119 C40.8084466,119 42.1353948,117.677778 42.1353948,115.694444 L42.1353948,115.694444 L42.1353948,111.397222 L62.7030922,97.5138889 C70.0013074,92.225 74.3138891,83.3 73.9821521,74.375 L73.9821521,15.8666667 C73.9821521,11.9 72.6552039,7.93333333 70.0013074,4.95833333 Z M59.0539846,92.225 L36.8276019,107.1 C35.8323908,107.761111 35.5006537,108.752778 35.5006537,109.744444 L35.5006537,112.388889 L7.6347411,112.388889 L7.6347411,81.3166667 L29.5293867,67.4333333 C31.5198091,66.1111111 33.8419684,66.4416667 35.5006537,67.7638889 L35.5006537,67.7638889 L35.8323908,68.0944444 C36.4958649,69.0861111 37.159339,70.0777778 37.159339,71.0694444 C37.159339,72.7222222 36.4958649,74.0444444 35.1689167,75.0361111 L19.245538,86.275 L23.2263827,91.5638889 L39.1497613,80.325 C42.1353948,78.0111111 43.7940801,74.7055556 43.7940801,71.0694444 C43.7940801,68.425 43.130606,66.1111111 41.4719207,64.1277778 L53.0827176,14.5444444 L53.0827176,14.2138889 C53.0827176,10.2472222 56.0683511,6.94166667 60.0491958,6.28055556 C62.0396181,6.28055556 63.6983034,7.27222222 65.0252516,8.925 C66.6839369,10.9083333 67.347411,13.2222222 67.347411,15.8666667 L67.347411,74.375 C67.679148,81.3166667 64.3617775,87.9277778 59.0539846,92.225 Z" id="Shape" fill="#000000" fill-rule="nonzero"></path>
                    <polygon id="Path" stroke="#000000" stroke-width="6" fill="#268BA6" stroke-linejoin="round" points="44.8605372 131.233141 0 131.233141 0 115 44.8605372 115"></polygon>
                </g>
                <g id="Bitcoin" transform="translate(36.000000, 0.000000)" fill-rule="nonzero">
                    <ellipse id="Oval" fill="#FED966" cx="49.9428571" cy="62.4161653" rx="38" ry="37.9667894"></ellipse>
                    <path d="M39.0857143,73.2638194 C39.0857143,79.2551144 43.947,84.1114735 49.9428571,84.1114735 C55.9393929,84.1114735 60.8,79.2544364 60.8,73.2638194 C60.7993214,58.3211759 39.0857143,66.4894594 39.0857143,51.5691891 C39.0857143,45.5778942 43.9463214,40.721535 49.9428571,40.721535 C55.9393929,40.721535 60.8,45.5778942 60.8,51.5691891" id="Path" fill="#FED966"></path>
                    <path d="M49.6714286,17.9295423 C25.8365478,17.9295423 6.51428571,37.26826 6.51428571,61.1234397 C6.51428571,84.9786193 25.8365478,104.317337 49.6714286,104.317337 C73.5063094,104.317337 92.8285714,84.9786193 92.8285714,61.1234397 C92.8015982,37.2797334 73.4948458,17.9565385 49.6714286,17.9295423 Z M17.3035714,61.1234397 C17.3305446,45.3320208 28.721333,31.8575495 44.2767857,29.2159727 L44.2767857,35.1227382 C37.8295132,37.395817 33.5084042,43.4841318 33.4875,50.3256402 C33.4875,61.722755 42.6118641,64.5674781 48.0591047,66.2675629 C54.1496565,68.1680944 55.0660714,68.9084648 55.0660714,71.921914 C55.0660714,74.9036427 52.6506201,77.3211512 49.6714286,77.3211512 C46.6922371,77.3211512 44.2767857,74.9036427 44.2767857,71.921914 L33.4875,71.921914 C33.5084042,78.7634224 37.8295132,84.8517372 44.2767857,87.1241412 L44.2767857,93.0309066 C28.721333,90.3893298 17.3305446,76.9148586 17.3035714,61.1234397 Z M55.0660714,93.0309066 L55.0660714,87.1241412 C61.513344,84.8510623 65.8344529,78.7627475 65.8553571,71.9212391 C65.8553571,60.5086015 56.7255984,57.6611788 51.2729632,55.9583944 C45.1932007,54.0632622 44.2767857,53.3249165 44.2767857,50.3249653 C44.2767857,47.3432366 46.6922371,44.9257282 49.6714286,44.9257282 C52.6506201,44.9257282 55.0660714,47.3432366 55.0660714,50.3249653 L65.8553571,50.3249653 C65.8344529,43.4834569 61.513344,37.3951421 55.0660714,35.1220633 L55.0660714,29.2152978 C72.6735114,32.1747547 84.5498176,48.8590724 81.592879,66.4815077 C79.3102708,80.0869104 68.6592228,90.7463544 55.0660714,93.0309066 Z" id="Shape" fill="#000000"></path>
                    <path d="M112.216222,56.2120644 C112.216222,86.2957093 87.4857732,110.683227 56.9790994,110.683227 C40.8972056,110.683227 26.4205703,103.90657 16.3268316,93.0901531 C13.6754497,90.2509827 11.3284356,87.1316749 9.33088092,83.7855892 C4.50834191,75.6971774 1.74197662,66.2725546 1.74197662,56.2120644 C1.74197662,26.1284194 26.4724256,1.7409017 56.9790994,1.7409017 C67.1833123,1.7409017 76.7404619,4.46890646 84.9403564,9.22679577 C88.3334939,11.1944276 91.4944101,13.5088961 94.3735042,16.1257353 C105.342019,26.0750599 112.216222,40.3531744 112.216222,56.2120644 Z" id="Path" fill="#F0CD00"></path>
                    <path d="M112.216222,56.2120644 C112.216222,85.617599 88.5905156,109.580464 59.0352731,110.645431 C29.4800305,109.580464 5.85432405,85.617599 5.85432405,56.2120644 C5.85432405,26.8065298 29.4800305,2.84366483 59.0352731,1.77869801 C88.5905156,2.84366483 112.216222,26.8065298 112.216222,56.2120644 Z" id="Path" fill="#FFDE50"></path>
                    <path d="M94.3735042,16.1257353 L16.3268316,93.0901531 C13.6754497,90.2509827 11.3284356,87.1316749 9.33088092,83.7855892 L84.9403564,9.22679577 C88.3334939,11.1944276 91.4944101,13.5088961 94.3735042,16.1257353 Z" id="Path" fill="#FFEA94"></path>
                    <path d="M108.405988,36.297852 L36.7826036,106.928052 C31.7120612,104.962643 27.0067602,102.279105 22.797466,99.0041651 L100.372932,22.5044196 C103.693923,26.6553445 106.415197,31.2953982 108.405988,36.297852 Z" id="Path" fill="#FFEA94"></path>
                    <path d="M99.9017256,56.2120644 C99.9017256,79.5879747 80.683716,98.5394927 56.9790994,98.5394927 C48.7228405,98.5394927 41.012189,96.2405873 34.4671536,92.2564109 C31.6151144,90.5222269 28.9862783,88.4656626 26.6279914,86.1400775 C24.8942221,84.4325733 23.3070003,82.5761071 21.8888717,80.5951354 C19.9364085,77.8671307 18.3018406,74.9012314 17.0415323,71.7507973 C15.174743,67.092957 14.1241104,62.0282505 14.0609823,56.7323196 C14.0564731,56.5589012 14.0564731,56.3854828 14.0564731,56.2120644 C14.0564731,32.836154 33.2722281,13.884636 56.9790994,13.884636 C57.1549563,13.884636 57.3330679,13.884636 57.5089248,13.8890826 C62.8793259,13.9513354 68.0129965,14.9896224 72.7363341,16.8283021 C75.9310689,18.0733572 78.9386739,19.6830357 81.7050392,21.6084245 C83.7138668,23.0091116 85.5941835,24.5721004 87.3279528,26.281828 C89.6862398,28.6051898 91.771723,31.1997958 93.5302926,34.0122864 C97.5704936,40.4665634 99.9017256,48.070293 99.9017256,56.2120644 Z" id="Path" fill="#FAA300"></path>
                    <path d="M87.3279528,26.281828 L26.6279914,86.1400775 C24.8942221,84.4325733 23.3070003,82.5761071 21.8888717,80.5951354 C19.9364085,77.8671307 18.3018406,74.9012314 17.0415323,71.7507973 C15.174743,67.092957 14.1241104,62.0282505 14.0609823,56.7323196 C14.0564731,56.5589012 14.0564731,56.3854828 14.0564731,56.2120644 C14.0564731,32.836154 33.2722281,13.884636 56.9790994,13.884636 C57.1549563,13.884636 57.3330679,13.884636 57.5089248,13.8890826 C62.8793259,13.9513354 68.0129965,14.9896224 72.7363341,16.8283021 C75.9310689,18.0733572 78.9386739,19.6830357 81.7050392,21.6084245 C83.7138668,23.0091116 85.5941835,24.5721004 87.3279528,26.281828 Z" id="Path" fill="#FFBD00"></path>
                    <path d="M99.9005983,56.2120644 C99.9005983,79.5879747 80.6825888,98.5394927 56.9779721,98.5394927 C56.16407,98.5394927 55.3569316,98.5172596 54.5543024,98.4727933 C77.1316309,97.2344081 95.0510044,78.7853588 95.0510044,56.2120644 C95.0510044,33.6387699 77.1316309,15.1897206 54.5543024,13.9513354 C55.3569316,13.9068691 56.16407,13.884636 56.9779721,13.884636 C80.6825888,13.884636 99.9005983,32.836154 99.9005983,56.2120644 Z" id="Path" fill="#F68E00"></path>
                    <path d="M57,112.467129 C41.7747921,112.467129 27.4606812,106.617725 16.6950178,95.9965963 C5.92912871,85.3756906 0,71.2540507 0,56.2335645 C0,41.2130783 5.92912871,27.0914384 16.6950178,16.4705327 C27.4606812,5.84940424 41.7747921,0 57,0 C62.2347446,0 67.4214059,0.700191393 72.4155089,2.08119865 C73.3157703,2.33018529 73.8410733,3.25197033 73.5886931,4.1403493 C73.3363129,5.02850556 72.4026416,5.54696788 71.5014772,5.29798125 C66.8051287,3.99915294 61.925703,3.34060779 57,3.34060779 C42.6793426,3.34060779 29.215604,8.84236612 19.0892436,18.8325651 C8.96288317,28.822764 3.38613861,42.105466 3.38613861,56.2335645 C3.38613861,70.361663 8.96288317,83.644365 19.0894693,93.6345639 C29.215604,103.624763 42.6793426,109.126521 57,109.126521 C71.3206574,109.126521 84.784396,103.624763 94.9107564,93.6345639 C105.037117,83.644365 110.613861,70.361663 110.613861,56.2335645 C110.613861,45.5507462 107.40177,35.2578882 101.325232,26.4680809 C95.3906851,17.8840552 87.1262495,11.2605207 77.4251881,7.3139267 C76.5608198,6.96227205 76.1490653,5.98592375 76.5055129,5.13295523 C76.8617347,4.28020941 77.8513901,3.8737688 78.7162099,4.22564615 C89.0297109,8.42144954 97.8149347,15.4618918 104.122634,24.5857598 C110.584289,33.9325577 114,44.8763888 114,56.2335645 C114,71.2540507 108.070871,85.3756906 97.3049822,95.9965963 C86.5393188,106.617725 72.2252079,112.467129 57,112.467129 Z" id="Path" stroke="#000000" stroke-width="2" fill="#000000"></path>
                    <path d="M57.8143989,99.4274619 C33.1196024,99.4274619 13.0285714,79.6850956 13.0285714,55.4185853 C13.0285714,31.152075 33.1196024,11.4097087 57.8143989,11.4097087 C82.5091954,11.4097087 102.6,31.152075 102.6,55.4185853 C102.6,79.6850956 82.5091954,99.4274619 57.8143989,99.4274619 Z M57.8143989,14.7457701 C34.9913462,14.7457701 16.4235118,32.9915792 16.4235118,55.4185853 C16.4235118,77.8455913 34.9913462,96.0914005 57.8143989,96.0914005 C80.6372252,96.0914005 99.2050596,77.8455913 99.2050596,55.4185853 C99.2050596,32.9915792 80.6372252,14.7457701 57.8143989,14.7457701 Z" id="Shape" stroke="#000000" fill="#000000"></path>
                    <path d="M76.5428571,65.9045602 C76.5428571,60.3654296 73.4903525,55.4853402 68.8826359,52.6569826 C70.7760588,50.209957 71.8967604,47.2044589 71.8967604,43.9565925 C71.8967604,38.3476529 68.5630336,33.4562194 63.656882,30.9306586 L63.656882,25.5525252 C63.656882,23.1428038 61.5741169,21.1894591 59.0047374,21.1894591 C56.435358,21.1894591 54.3525929,23.1428038 54.3525929,25.5525252 L54.3525929,29.1075515 L48.7379196,29.1075515 L48.7379196,25.5525252 C48.7379196,23.1428038 46.6551545,21.1894591 44.0857751,21.1894591 C41.5163956,21.1894591 39.4336305,23.1428038 39.4336305,25.5525252 L39.4336305,29.1075515 L33.9664303,29.1075515 C31.3970508,29.1075515 29.3142857,31.0608961 29.3142857,33.4706176 C29.3142857,35.880339 31.3970508,37.8336837 33.9664303,37.8336837 L35.5718853,37.8336837 L35.5718853,54.4427856 L35.5718853,73.0034869 L33.9664303,73.0034869 C31.3970508,73.0034869 29.3142857,74.9568316 29.3142857,77.366553 C29.3142857,79.7762744 31.3970508,81.7296191 33.9664303,81.7296191 L39.4336305,81.7296191 L39.4336305,85.2846454 C39.4336305,87.6943668 41.5163956,89.6477115 44.0857751,89.6477115 C46.6551545,89.6477115 48.7379196,87.6943668 48.7379196,85.2846454 L48.7379196,81.7296191 L54.3525929,81.7296191 L54.3525929,85.2846454 C54.3525929,87.6943668 56.435358,89.6477115 59.0047374,89.6477115 C61.5741169,89.6477115 63.656882,87.6943668 63.656882,85.2846454 L63.656882,81.2793507 C71.0421614,79.5941164 76.5428571,73.342279 76.5428571,65.9045602 Z M44.876407,37.8336837 L56.0638842,37.8336837 C59.6639463,37.8336837 62.5924713,40.5804519 62.5924713,43.9565925 C62.5924713,47.332733 59.6637137,50.0795013 56.0638842,50.0795013 L44.876407,50.0795013 L44.876407,37.8336837 Z M59.6692963,73.0034869 L44.8761744,73.0034869 L44.8761744,58.8058517 L56.0636516,58.8058517 L59.6692963,58.8058517 C63.8427351,58.8058517 67.2383354,61.9904536 67.2383354,65.9047784 C67.2383354,69.8191031 63.8429677,73.0034869 59.6692963,73.0034869 Z" id="Shape" fill="#F68E00"></path>
                    <path d="M83.0571429,65.9045602 C83.0571429,60.3654296 80.0046382,55.4853402 75.3969216,52.6569826 C77.2903445,50.209957 78.4110461,47.2044589 78.4110461,43.9565925 C78.4110461,38.3476529 75.0773193,33.4562194 70.1711677,30.9306586 L70.1711677,25.5525252 C70.1711677,23.1428038 68.0884026,21.1894591 65.5190231,21.1894591 C62.9496437,21.1894591 60.8668786,23.1428038 60.8668786,25.5525252 L60.8668786,29.1075515 L55.2522053,29.1075515 L55.2522053,25.5525252 C55.2522053,23.1428038 53.1694402,21.1894591 50.6000608,21.1894591 C48.0306814,21.1894591 45.9479162,23.1428038 45.9479162,25.5525252 L45.9479162,29.1075515 L40.480716,29.1075515 C37.9113365,29.1075515 35.8285714,31.0608961 35.8285714,33.4706176 C35.8285714,35.880339 37.9113365,37.8336837 40.480716,37.8336837 L42.0861711,37.8336837 L42.0861711,54.4427856 L42.0861711,73.0034869 L40.480716,73.0034869 C37.9113365,73.0034869 35.8285714,74.9568316 35.8285714,77.366553 C35.8285714,79.7762744 37.9113365,81.7296191 40.480716,81.7296191 L45.9479162,81.7296191 L45.9479162,85.2846454 C45.9479162,87.6943668 48.0306814,89.6477115 50.6000608,89.6477115 C53.1694402,89.6477115 55.2522053,87.6943668 55.2522053,85.2846454 L55.2522053,81.7296191 L60.8668786,81.7296191 L60.8668786,85.2846454 C60.8668786,87.6943668 62.9496437,89.6477115 65.5190231,89.6477115 C68.0884026,89.6477115 70.1711677,87.6943668 70.1711677,85.2846454 L70.1711677,81.2793507 C77.5566798,79.5941164 83.0571429,73.342279 83.0571429,65.9045602 Z M51.3906928,37.8336837 L62.57817,37.8336837 C66.178232,37.8336837 69.106757,40.5804519 69.106757,43.9565925 C69.106757,47.332733 66.1779994,50.0795013 62.57817,50.0795013 L51.3906928,50.0795013 L51.3906928,37.8336837 L51.3906928,37.8336837 Z M66.1838146,73.0034869 L51.3906928,73.0034869 L51.3906928,58.8058517 L62.57817,58.8058517 L66.1838146,58.8058517 C70.3572535,58.8058517 73.7528538,61.9904536 73.7528538,65.9047784 C73.7528538,69.8191031 70.3572535,73.0034869 66.1838146,73.0034869 Z" id="Shape" fill="#FFEA94"></path>
                    <path d="M65.4912328,91.2776699 C61.9803408,91.2776699 59.1237904,88.5258436 59.1237904,85.1431674 L59.1237904,83.1810189 L57.0079472,83.1810189 L57.0079472,85.1431674 C57.0079472,88.5258436 54.1513967,91.2776699 50.6405048,91.2776699 C47.1296128,91.2776699 44.2730623,88.5258436 44.2730623,85.1431674 L44.2730623,83.1810189 L40.5674424,83.1810189 C37.0565504,83.1810189 34.2,80.4291925 34.2,77.0465163 C34.2,73.7084546 36.9817619,70.9847355 40.4289795,70.9133522 L40.4289795,69.1428233 C40.4289795,68.2188556 41.2062705,67.4697771 42.1655547,67.4697771 C43.1248388,67.4697771 43.9021299,68.2188556 43.9021299,69.1428233 L43.9021299,72.5848369 C43.9021299,73.5088045 43.1248388,74.257883 42.1655547,74.257883 L40.5674424,74.257883 C38.971414,74.257883 37.6731504,75.5086523 37.6731504,77.0462932 C37.6731504,78.5839342 38.971414,79.8347035 40.5674424,79.8347035 L46.0096376,79.8347035 C46.9689217,79.8347035 47.7462128,80.583782 47.7462128,81.5077496 L47.7462128,85.1429443 C47.7462128,86.6805852 49.0444764,87.9313545 50.6405048,87.9313545 C52.2365331,87.9313545 53.5347968,86.6805852 53.5347968,85.1429443 L53.5347968,81.5077496 C53.5347968,80.583782 54.3120878,79.8347035 55.271372,79.8347035 L60.8603656,79.8347035 C61.8196497,79.8347035 62.5969408,80.583782 62.5969408,81.5077496 L62.5969408,85.1429443 C62.5969408,86.6805852 63.8952044,87.9313545 65.4912328,87.9313545 C67.0872612,87.9313545 68.3855248,86.6805852 68.3855248,85.1429443 L68.3855248,81.0473273 C68.3855248,80.2757185 68.9333564,79.6040462 69.7115736,79.4215726 C76.4832907,77.8344095 81.2125639,72.0380854 81.2125639,65.3260473 C81.2125639,60.4208991 78.6556306,55.8800288 74.3730046,53.1795092 C73.9754446,52.9287754 73.7019919,52.5321519 73.6158578,52.081991 C73.5301867,51.63183 73.6394752,51.1673924 73.9184849,50.7970915 C75.664785,48.4786957 76.5877168,45.7420384 76.5877168,42.8831371 C76.5877168,37.9534509 73.7899784,33.4116883 69.2866916,31.0301628 C68.7309875,30.7363759 68.3855248,30.1742324 68.3855248,29.5634591 L68.3855248,24.0640448 C68.3855248,22.5264039 67.0872612,21.2756346 65.4912328,21.2756346 C63.8952044,21.2756346 62.5969408,22.5264039 62.5969408,24.0640448 L62.5969408,27.6992395 C62.5969408,28.6232071 61.8196497,29.3722856 60.8603656,29.3722856 L55.271372,29.3722856 C54.3120878,29.3722856 53.5347968,28.6232071 53.5347968,27.6992395 L53.5347968,24.0640448 C53.5347968,22.5264039 52.2365331,21.2756346 50.6405048,21.2756346 C49.0444764,21.2756346 47.7462128,22.5264039 47.7462128,24.0640448 L47.7462128,27.6992395 C47.7462128,28.6232071 46.9689217,29.3722856 46.0096376,29.3722856 L40.5674424,29.3722856 C38.971414,29.3722856 37.6731504,30.6230549 37.6731504,32.1606959 C37.6731504,33.6983368 38.971414,34.9491061 40.5674424,34.9491061 L42.1655547,34.9491061 C43.1248388,34.9491061 43.9021299,35.6981847 43.9021299,36.6221523 L43.9021299,62.4504156 C43.9021299,63.3743832 43.1248388,64.1234617 42.1655547,64.1234617 C41.2062705,64.1234617 40.4289795,63.3743832 40.4289795,62.4504156 L40.4289795,38.29386 C36.9815304,38.2226998 34.2,35.4987576 34.2,32.1606959 C34.2,28.7780197 37.0565504,26.0261934 40.5674424,26.0261934 L44.2730623,26.0261934 L44.2730623,24.0640448 C44.2730623,20.6813686 47.1296128,17.9295423 50.6405048,17.9295423 C54.1513967,17.9295423 57.0079472,20.6813686 57.0079472,24.0640448 L57.0079472,26.0261934 L59.1237904,26.0261934 L59.1237904,24.0640448 C59.1237904,20.6813686 61.9803408,17.9295423 65.4912328,17.9295423 C69.0023563,17.9295423 71.8586752,20.6813686 71.8586752,24.0640448 L71.8586752,28.6073689 C76.9433674,31.6866661 80.0608672,37.0680748 80.0608672,42.8833602 C80.0608672,45.891051 79.2430561,48.7898823 77.6817592,51.3587889 C82.0965964,54.7387882 84.6857143,59.8469327 84.6857143,65.3262704 C84.6857143,73.1409574 79.4766833,79.9469091 71.8589068,82.3123733 L71.8589068,85.1431674 C71.8586752,88.5256205 69.0023563,91.2776699 65.4912328,91.2776699 Z M66.1527522,74.2581061 L51.4272891,74.2581061 C50.468005,74.2581061 49.6907139,73.5090275 49.6907139,72.5850599 L49.6907139,58.0672578 C49.6907139,57.1432902 50.468005,56.3942116 51.4272891,56.3942116 L66.1527522,56.3942116 C71.2647665,56.3942116 75.4237483,60.4010456 75.4237483,65.3262704 C75.4237483,70.2514952 71.264998,74.2581061 66.1527522,74.2581061 Z M53.1640958,70.9120138 L66.1529837,70.9120138 C69.3499029,70.9120138 71.9508295,68.4062368 71.9508295,65.3260473 C71.9508295,62.2458578 69.3499029,59.7400808 66.1529837,59.7400808 L53.1640958,59.7400808 L53.1640958,70.9120138 L53.1640958,70.9120138 Z M62.5635986,50.8173911 L51.4272891,50.8173911 C50.468005,50.8173911 49.6907139,50.0683126 49.6907139,49.144345 L49.6907139,36.6221523 C49.6907139,35.6981847 50.468005,34.9491061 51.4272891,34.9491061 L62.5635986,34.9491061 C67.1046269,34.9491061 70.7989013,38.508456 70.7989013,42.8831371 C70.7989013,47.2578182 67.1048585,50.8173911 62.5635986,50.8173911 Z M53.1640958,47.4712988 L62.5638301,47.4712988 C65.1897633,47.4712988 67.3259824,45.4130059 67.3259824,42.8833602 C67.3259824,40.3537144 65.1895318,38.2954215 62.5638301,38.2954215 L53.1640958,38.2954215 L53.1640958,47.4712988 Z" id="Shape" fill="#000000"></path>
                </g>
            </g>
        </g>
    </g>
</svg>