<?xml version="1.0" encoding="UTF-8"?>
<svg width="200px" height="200px" viewBox="0 0 200 200" version="1.1" xmlns="http://www.w3.org/2000/svg" xmlns:xlink="http://www.w3.org/1999/xlink">
    <!-- Generator: Sketch 55.2 (78181) - https://sketchapp.com -->
    <title>cloud-computing (1) 2</title>
    <desc>Created with Sketch.</desc>
    <g id="MAIN-PAGE" stroke="none" stroke-width="1" fill="none" fill-rule="evenodd">
        <g id="Artboard" transform="translate(-667.000000, -3065.000000)" fill-rule="nonzero">
            <g id="cloud-computing-(1)-2" transform="translate(667.000000, 3065.000000)">
                <g id="cloud-computing-(1)">
                    <g id="Group" transform="translate(14.265625, 153.906250)" fill="#FECA57">
                        <circle id="Oval" cx="68.7132812" cy="32.2640625" r="10.6382813"></circle>
                        <circle id="Oval" cx="102.755469" cy="32.2640625" r="10.6382813"></circle>
                        <path d="M160.202344,21.6257812 C154.326983,21.6257812 149.564063,16.8628605 149.564063,10.9875 C149.564063,5.1121395 154.326983,0.34921875 160.202344,0.34921875 C166.077704,0.34921875 170.840625,5.1121395 170.840625,10.9875 C170.840625,16.8628605 166.077704,21.6257812 160.202344,21.6257812 Z M11.2664063,21.6257812 C5.39104575,21.6257812 0.628125,16.8628605 0.628125,10.9875 C0.628125,5.1121395 5.39104575,0.34921875 11.2664063,0.34921875 C17.1417667,0.34921875 21.9046875,5.1121395 21.9046875,10.9875 C21.9046875,16.8628605 17.1417667,21.6257812 11.2664063,21.6257812 Z" id="Oval-2"></path>
                    </g>
                    <path d="M172.633984,59.8894531 C172.353125,28.5277344 146.842578,3.19140625 115.417188,3.19140625 C115.055469,3.19140625 114.69375,3.19570312 114.332031,3.2 L156.919141,121.561719 L165.566016,121.561719 C182.821484,121.561719 196.808594,107.574609 196.808594,90.3191406 C196.808594,75.4980469 186.480859,63.09375 172.633984,59.8894531 Z" id="Path" fill="#134E5E"></path>
                    <path d="M163.055469,59.8894531 C162.817188,28.89375 141.178906,3.77890625 114.332031,3.2 C93.2085938,3.59570313 74.8851563,15.4339844 65.3023437,32.7703125 C63.2511719,31.8851563 61.0597656,31.2722656 58.7660156,30.9746094 C57.740625,30.8425781 56.69375,30.7746094 55.6296875,30.7746094 C43.2425781,30.7746094 33.0210937,40.0085938 31.4550781,51.9660156 C15.3402344,55.1617188 3.19140625,69.3746094 3.19140625,86.4253906 C3.19140625,105.833984 18.9234375,121.561719 38.3277344,121.561719 L46.4589844,121.561719 C46.4597656,121.561719 156.919531,121.561719 156.919531,121.561719 C171.898438,121.561719 184.042969,107.574609 184.042969,90.3191406 C184.042969,75.4980469 175.076563,63.09375 163.055469,59.8894531 Z" id="Path" fill="#268BA6"></path>
                    <path d="M86.1703125,172.716016 L86.1703125,121.563672 C86.1703125,119.800781 84.7417969,118.372266 82.9789063,118.372266 L61.7023438,118.372266 C59.9394531,118.372266 58.5109375,119.800781 58.5109375,121.563672 C58.5109375,123.326562 59.9394531,124.755078 61.7023438,124.755078 L79.7875,124.755078 L79.7875,172.716016 C73.6960938,174.160937 69.1492188,179.642969 69.1492188,186.169922 C69.1492188,193.795703 75.353125,199.999609 82.9789063,199.999609 C90.6046875,199.999609 96.8085938,193.795703 96.8085938,186.169922 C96.8085938,179.642969 92.2617188,174.161328 86.1703125,172.716016 Z M82.9789062,193.617188 C78.8730469,193.617188 75.5320313,190.276172 75.5320313,186.170312 C75.5320313,182.064453 78.8730469,178.723437 82.9789062,178.723437 C87.0847656,178.723437 90.4257812,182.064453 90.4257812,186.170312 C90.4257812,190.276172 87.0847656,193.617188 82.9789062,193.617188 Z" id="Shape" fill="#000000"></path>
                    <path d="M120.212891,172.716016 L120.212891,121.563672 C120.212891,119.800781 118.784375,118.372266 117.021484,118.372266 L95.7453125,118.372266 C93.9824219,118.372266 92.5539063,119.800781 92.5539063,121.563672 C92.5539063,123.326562 93.9824219,124.755078 95.7453125,124.755078 L113.830078,124.755078 L113.830078,172.716016 C107.738672,174.160937 103.191797,179.642969 103.191797,186.169922 C103.191797,193.795703 109.395703,199.999609 117.021484,199.999609 C124.647266,199.999609 130.851172,193.795703 130.851172,186.169922 C130.851172,179.642969 126.304297,174.161328 120.212891,172.716016 Z M117.021094,193.617188 C112.915234,193.617188 109.574219,190.276172 109.574219,186.170312 C109.574219,182.064453 112.915234,178.723437 117.021094,178.723437 C121.126953,178.723437 124.467969,182.064453 124.467969,186.170312 C124.467969,190.276172 121.127344,193.617188 117.021094,193.617188 Z" id="Shape" fill="#000000"></path>
                    <path d="M174.467969,151.063672 C167.940625,151.063672 162.458984,155.610547 161.014063,161.701953 L154.255469,161.701953 L154.255469,121.563672 C154.255469,119.800781 152.826953,118.372266 151.064063,118.372266 L129.7875,118.372266 C128.024609,118.372266 126.596094,119.800781 126.596094,121.563672 C126.596094,123.326562 128.024609,124.755078 129.7875,124.755078 L147.872656,124.755078 L147.872656,164.893359 C147.872656,166.65625 149.301172,168.084766 151.064063,168.084766 L161.014453,168.084766 C162.459375,174.176172 167.941406,178.723047 174.468359,178.723047 C182.094141,178.723047 188.298047,172.519141 188.298047,164.893359 C188.298047,157.267578 182.094141,151.063672 174.467969,151.063672 Z M174.467969,172.340234 C170.362109,172.340234 167.021094,168.999219 167.021094,164.893359 C167.021094,160.7875 170.362109,157.446484 174.467969,157.446484 C178.573828,157.446484 181.914844,160.7875 181.914844,164.893359 C181.914844,168.999219 178.574219,172.340234 174.467969,172.340234 Z" id="Shape" fill="#000000"></path>
                    <path d="M192.400391,68.7476562 C188.099219,63.4074219 182.257031,59.4507812 175.756641,57.4320313 C175.024609,42.3242188 168.756641,28.2285156 157.952344,17.5144531 C146.5625,6.21992187 131.45625,0 115.415234,0 C94.3511719,0 74.859375,10.9839844 63.8976563,28.8457031 C61.2320313,28.0054688 58.4613281,27.5808594 55.6277344,27.5808594 C42.590625,27.5808594 31.3796875,36.7835937 28.6761719,49.3277344 C11.9335938,53.6710937 0,68.93125 0,86.4257812 C0,107.560547 17.1941406,124.755078 38.3289063,124.755078 L45.7445312,124.755078 L45.7445312,161.701953 L38.9859375,161.701953 C37.5410156,155.610547 32.0589844,151.063672 25.5320312,151.063672 C17.90625,151.063672 11.7023437,157.267578 11.7023437,164.893359 C11.7023437,172.519141 17.90625,178.723047 25.5320312,178.723047 C32.059375,178.723047 37.5410156,174.176172 38.9859375,168.084766 L48.9363281,168.084766 C50.6992188,168.084766 52.1277344,166.65625 52.1277344,164.893359 L52.1277344,121.563672 C52.1277344,119.800781 50.6992188,118.372266 48.9363281,118.372266 L38.3289063,118.372266 C20.7140625,118.372266 6.3828125,104.041016 6.3828125,86.4257812 C6.3828125,71.2246094 17.1890625,58.0480469 32.0777344,55.0953125 C33.4203125,54.8292969 34.4441406,53.7367187 34.6214844,52.3792969 C35.9957031,41.8808594 45.0261719,33.9644531 55.6277344,33.9644531 C58.5441406,33.9644531 61.3726562,34.5488281 64.034375,35.7007812 C65.5433594,36.3539062 67.3003906,35.7539062 68.0953125,34.3160156 C77.6207031,17.0859375 95.7527344,6.3828125 115.415234,6.3828125 C144.940234,6.3828125 169.176953,30.3988281 169.443359,59.9195312 C169.456641,61.3945313 170.478516,62.6675781 171.915234,63 C184.692969,65.9570312 193.617188,77.1917969 193.617188,90.3203125 C193.617188,105.787891 181.033594,118.371875 165.566016,118.371875 L163.829297,118.371875 C162.066406,118.371875 160.637891,119.800391 160.637891,121.563281 C160.637891,123.326172 162.066406,124.754688 163.829297,124.754688 L165.565625,124.754688 C184.552344,124.754688 199.999609,109.307422 199.999609,90.3203125 C199.999609,82.4933594 197.300781,74.8320312 192.400391,68.7476562 Z M25.5320313,172.340234 C21.4261719,172.340234 18.0851563,168.999219 18.0851563,164.893359 C18.0851563,160.7875 21.4261719,157.446484 25.5320313,157.446484 C29.6378906,157.446484 32.9789063,160.7875 32.9789063,164.893359 C32.9789063,168.999219 29.6378906,172.340234 25.5320313,172.340234 Z" id="Shape" fill="#000000"></path>
                    <path d="M155.613672,63.2363281 C155.623047,63.2363281 155.633203,63.2363281 155.642969,63.2363281 C157.405469,63.2203125 158.821094,61.7785156 158.805469,60.0160156 C158.757813,54.7589844 157.765625,49.6148437 155.85625,44.7261719 C155.214453,43.084375 153.364453,42.2730469 151.722266,42.9140625 C150.080469,43.5554687 149.269141,45.4058594 149.910547,47.0480469 C151.537109,51.2113281 152.382031,55.5941406 152.422656,60.0734375 C152.438672,61.8269531 153.864063,63.2363281 155.613672,63.2363281 Z" id="Path" fill="#000000"></path>
                    <path d="M143.948047,36.9175781 C144.579297,37.6816406 145.491016,38.0765625 146.410156,38.0765625 C147.126172,38.0765625 147.846484,37.8371094 148.440625,37.3453125 C149.799219,36.2226562 149.991406,34.2113281 148.86875,32.8519531 C140.557813,22.7910156 128.364453,17.0207031 115.415625,17.0207031 C113.652734,17.0207031 112.224219,18.4492188 112.224219,20.2121094 C112.224219,21.975 113.652734,23.4035156 115.415625,23.4035156 C126.453906,23.4042969 136.853516,28.3292969 143.948047,36.9175781 Z" id="Path" fill="#000000"></path>
                </g>
            </g>
        </g>
    </g>
</svg>