<?xml version="1.0" encoding="UTF-8"?>
<svg width="200px" height="200px" viewBox="0 0 200 200" version="1.1" xmlns="http://www.w3.org/2000/svg" xmlns:xlink="http://www.w3.org/1999/xlink">
    <!-- Generator: Sketch 55.2 (78181) - https://sketchapp.com -->
    <title>005-security</title>
    <desc>Created with Sketch.</desc>
    <g id="MAIN-PAGE" stroke="none" stroke-width="1" fill="none" fill-rule="evenodd">
        <g id="Artboard" transform="translate(-667.000000, -294.000000)" fill-rule="nonzero">
            <g id="005-security" transform="translate(667.000000, 294.000000)">
                <path d="M172.648717,72.3308978 C141.565887,64.9591227 114.10396,45.9701066 100,22.7722772 C85.8960396,45.9705231 58.4345297,64.9591227 27.3512826,72.3308978 L26.7326733,72.7532369 L26.7326733,82.1958897 C26.7326733,131.234292 55.380198,175.747334 100,196.039604 C144.619802,175.747334 173.267327,131.234708 173.267327,82.1958897 L173.267327,72.7532369 L172.648717,72.3308978 Z" id="Path" fill="#F59536"></path>
                <polygon id="Path" fill="#134E5E" points="70.2970297 97.029703 129.70297 97.029703 129.70297 153.465347 70.2970297 153.465347"></polygon>
                <path d="M76.2376238,86.9306931 L76.2376238,97.029703 L89.533239,97.029703 L89.533239,86.9306931 C89.533239,81.3530941 93.9976574,76.8316832 99.5049505,76.8316832 C105.012244,76.8316832 109.476662,81.3530941 109.476662,86.9306931 L109.476662,97.029703 L122.772277,97.029703 L122.772277,86.9306931 C122.772277,73.9164356 112.355163,63.3663366 99.5049505,63.3663366 C86.6547383,63.3663366 76.2376238,73.9164356 76.2376238,86.9306931 L76.2376238,86.9306931 Z" id="Path" fill="#CAC2A8"></path>
                <path d="M109.90099,119.834187 C109.927684,114.374846 105.516343,109.927883 100.048474,109.90099 C94.5801928,109.87434 90.1259467,114.278469 90.0990099,119.737398 C90.0851048,122.566946 91.2868478,125.266756 93.3990771,127.153534 L93.3990771,139.60396 L106.60051,139.60396 L106.60051,127.153534 C108.694588,125.294351 109.895093,122.632022 109.90099,119.834187 Z" id="Path" fill="#268BA6"></path>
                <g id="Group" transform="translate(3.960396, 3.960396)" fill="#F59536">
                    <ellipse id="Oval" cx="10.0180134" cy="9.93741348" rx="9.96486745" ry="9.88346622"></ellipse>
                    <ellipse id="Oval" cx="66.4855957" cy="9.93741348" rx="9.96486745" ry="9.88346622"></ellipse>
                    <ellipse id="Oval" cx="139.56129" cy="9.93741348" rx="9.96486745" ry="9.88346622"></ellipse>
                    <ellipse id="Oval" cx="182.742383" cy="36.2933234" rx="9.96486745" ry="9.88346622"></ellipse>
                </g>
                <path d="M129.356436,93.5131444 L126.039604,93.5131444 L126.039604,86.8897234 C126.039604,72.2577586 114.159542,60.3960396 99.5049506,60.3960396 C84.850359,60.3960396 72.9702972,72.2577586 72.9702972,86.8897234 L72.9702972,93.5131444 L69.6534655,93.5131444 C67.8221598,93.5127304 66.3366338,94.9947209 66.3366338,96.823199 C66.3366338,96.823613 66.3366338,96.8244409 66.3366338,96.8248549 L66.3366338,153.123933 C66.3366338,154.952411 67.8205014,156.435644 69.6518071,156.435644 C69.6522217,156.435644 69.6530509,156.435644 69.6534655,156.435644 L129.356436,156.435644 C131.187741,156.435644 132.673267,154.954067 132.673267,153.125589 C132.673267,153.125175 132.673267,153.124347 132.673267,153.123933 L132.673267,96.8248549 C132.673267,94.9963767 131.1894,93.5135584 129.358094,93.5131444 C129.357265,93.5131444 129.35685,93.5131444 129.356436,93.5131444 Z M79.6039605,86.8897234 C79.6039605,75.9155428 88.5137996,67.0194606 99.5049506,67.0194606 C110.496102,67.0194606 119.405941,75.9155428 119.405941,86.8897234 L119.405941,93.5131444 L112.772277,93.5131444 L112.772277,86.8897234 C112.772277,79.573741 106.832246,73.6428815 99.5049506,73.6428815 C92.1776548,73.6428815 86.2376239,79.573741 86.2376239,86.8897234 L86.2376239,93.5131444 L79.6039605,93.5131444 L79.6039605,86.8897234 Z M106.138614,86.8897234 L106.138614,93.5131444 L92.8712872,93.5131444 L92.8712872,86.8897234 C92.8712872,83.2315252 95.8410954,80.2663025 99.5049506,80.2663025 C103.168391,80.2663025 106.138614,83.2319392 106.138614,86.8897234 Z M126.039604,149.812223 L72.9702972,149.812223 L72.9702972,100.136565 L126.039604,100.136565 L126.039604,149.812223 Z" id="Shape" fill="#000000"></path>
                <path d="M99.5048473,106.930693 C92.1446791,106.908691 86.1608094,112.837506 86.1386139,120.172969 C86.1290647,123.426699 87.3178189,126.570944 89.4802155,129.008744 L89.4802155,140.234029 C89.4797979,142.072786 90.9751388,143.56394 92.8200887,143.564356 C92.8205064,143.564356 92.8213418,143.564356 92.8217595,143.564356 L106.187935,143.564356 C108.032885,143.564773 109.529061,142.074451 109.529479,140.235694 C109.529479,140.235278 109.529479,140.234445 109.529479,140.234029 L109.529479,129.008744 C114.403956,123.512871 113.885181,115.119197 108.370381,110.261082 C105.924371,108.10636 102.769536,106.92118 99.5048473,106.930693 Z M103.952442,125.174288 C103.24863,125.805802 102.846391,126.705406 102.846391,127.649138 L102.846391,136.903701 L96.1633034,136.903701 L96.1633034,127.649554 C96.1633034,126.705406 95.761065,125.805802 95.0572523,125.174288 C93.6375139,123.929578 92.8234302,122.136613 92.8217595,120.252064 C92.8217595,116.573301 95.8136943,113.591409 99.5048473,113.591409 C103.196,113.591409 106.187935,116.573301 106.187935,120.252064 C106.186264,122.136613 105.371763,123.929578 103.952442,125.174288 L103.952442,125.174288 Z" id="Shape" fill="#000000"></path>
                <path d="M186.666258,26.7126106 C180.605084,26.7305225 175.320353,30.8398546 173.809953,36.709972 L160.007254,36.709972 C158.167366,36.7095554 156.675295,38.2008285 156.674878,40.0407596 C156.674878,40.0411761 156.674878,40.0420092 156.674878,40.0424258 L156.674878,64.4109942 C153.268357,63.0709312 149.927651,61.5946542 146.677752,59.9792472 L146.677752,26.2394021 C153.805703,24.3990545 158.091971,17.1284734 156.251667,10.0003548 C154.411362,2.87223608 147.140952,-1.41413263 140.013001,0.426631541 C132.885049,2.26739571 128.598365,9.53756024 130.439086,16.6652624 C131.651237,21.3606898 135.317684,25.0272221 140.013001,26.2394021 L140.013001,56.3814468 C124.945248,48.0615593 112.18225,36.1259595 102.872009,21.648947 C101.782323,20.0764454 99.6241928,19.6844655 98.0517281,20.7741779 C97.7101596,21.0107821 97.4135782,21.3073705 97.1769795,21.648947 C90.8900366,31.6550561 82.819023,40.421909 73.3654902,47.512121 L73.3654902,26.2394021 C80.4934415,24.3990545 84.7797095,17.1284734 82.9394051,10.0003548 C81.0986842,2.87265263 73.8286904,-1.41413263 66.7007392,0.426631541 C59.5727879,2.26739571 55.2861033,9.53756024 57.1268243,16.6652624 C58.3389759,21.3606898 62.005422,25.0272221 66.7007392,26.2394021 L66.7007392,52.2683657 C61.3918484,55.7811885 55.8217827,58.8820368 50.0388615,61.5438343 L50.0388615,13.3827954 C50.0392781,11.5428643 48.54804,10.0507581 46.7081522,10.0503416 C46.7077356,10.0503416 46.7069026,10.0503416 46.706486,10.0503416 L26.2390355,10.0503416 C24.3983146,2.92222288 17.1283208,-1.36414582 10.0003696,0.476201791 C2.87241834,2.3165494 -1.41384968,9.58713049 0.426454701,16.7152492 C2.26675908,23.8433679 9.53716939,28.1297366 16.6651206,26.2893889 C21.3604378,25.0772089 25.0268839,21.4106766 26.2390355,16.7152492 L43.3741105,16.7152492 L43.3741105,64.4109942 C37.9027664,66.5700077 32.2847978,68.3378745 26.5626925,69.7008481 C26.1648902,69.795823 25.7874986,69.9628622 25.4496791,70.1940512 L24.8315234,70.6172729 C23.9238676,71.2383589 23.3806904,72.2668375 23.3802739,73.3669638 L23.3802739,82.8111379 C23.4469214,133.142021 52.8543023,178.812884 98.6453075,199.700704 C99.5217223,200.099765 100.528516,200.099765 101.404931,199.700704 C147.195936,178.812884 176.602901,133.142021 176.669548,82.8111379 L176.669548,73.3669638 C176.669132,72.2668375 176.125954,71.2379424 175.218299,70.6168563 L174.600143,70.1936347 C174.262323,69.9624457 173.885348,69.7954064 173.487129,69.7004315 C170.061031,68.8885624 166.67742,67.9100707 163.340463,66.8095278 L163.340463,43.3748796 L173.810786,43.3748796 C175.663171,50.4875857 182.930665,54.7514603 190.043204,52.8990326 C197.155743,51.0466048 201.419518,43.7789396 199.567133,36.6662335 C198.03674,30.7961162 192.732015,26.7030298 186.666258,26.7126106 L186.666258,26.7126106 Z M136.680625,13.3827954 C136.680625,9.70168359 139.664351,6.71788776 143.345376,6.71788776 C147.026402,6.71788776 150.010127,9.70168359 150.010127,13.3827954 C150.010127,17.0639071 147.026402,20.047703 143.345376,20.047703 C139.666017,20.0435374 136.684791,17.0622409 136.680625,13.3827954 Z M63.3683636,13.3827954 C63.3683636,9.70168359 66.3520894,6.71788776 70.0331147,6.71788776 C73.71414,6.71788776 76.6978657,9.70168359 76.6978657,13.3827954 C76.6978657,17.0639071 73.71414,20.047703 70.0331147,20.047703 C66.3537556,20.0435374 63.3725291,17.0622409 63.3683636,13.3827954 Z M13.3827307,20.047703 C9.70170543,20.047703 6.71797969,17.0639071 6.71797969,13.3827954 C6.71797969,9.70168359 9.70170543,6.71788776 13.3827307,6.71788776 C17.0637561,6.71788776 20.0474818,9.70168359 20.0474818,13.3827954 C20.0433163,17.0622409 17.0616733,20.0435374 13.3827307,20.047703 Z M170.00438,82.8111379 C169.941898,129.980772 142.691814,172.887364 100.024494,192.997057 C57.3571747,172.887364 30.1070904,129.980772 30.0446084,82.8111379 L30.0446084,75.7084292 C58.8479962,68.4007745 85.0579628,51.0224445 100.024494,29.4835459 C114.991026,51.0224445 141.200993,68.4007745 170.00438,75.7084292 L170.00438,82.8111379 Z M186.666258,46.7073334 C182.985233,46.7073334 180.001507,43.7235376 180.001507,40.0424258 C180.001507,36.361314 182.985233,33.3775182 186.666258,33.3775182 C190.347283,33.3775182 193.331009,36.361314 193.331009,40.0424258 C193.326427,43.7218713 190.345201,46.7031678 186.666258,46.7073334 Z" id="Shape" fill="#000000"></path>
            </g>
        </g>
    </g>
</svg>