<?xml version="1.0" encoding="UTF-8"?>
<svg width="273px" height="117px" viewBox="0 0 273 117" version="1.1" xmlns="http://www.w3.org/2000/svg" xmlns:xlink="http://www.w3.org/1999/xlink">
    <defs>
        <path d="M0,120.844444 L4.02118699,96.5777778 C4.05677271,96.2527778 4.37704424,96 4.66173005,96 L5.23110166,96 C5.40903028,96 5.72930181,96.1444444 5.83605899,96.3611111 L14.0919473,111.961111 L14.1631188,111.961111 L22.4190071,96.3611111 C22.5257643,96.1444444 22.8460358,96 23.0239644,96 L23.593336,96 C23.8780218,96 24.1982934,96.2527778 24.2338791,96.5777778 L28.2550661,120.844444 C28.3262375,121.313889 28.005966,121.638889 27.5789373,121.638889 L23.3798217,121.638889 C23.0595502,121.638889 22.7392786,121.35 22.7036929,121.061111 L21.1023353,109.902778 L21.0311638,109.902778 L15.0527619,121.602778 C14.9460047,121.819444 14.6257332,122 14.4478046,122 L13.8072615,122 C13.5937472,122 13.3090614,121.819444 13.2023042,121.602778 L7.18831656,109.902778 L7.11714511,109.902778 L5.55137319,121.061111 C5.51578746,121.35 5.23110166,121.638889 4.8752444,121.638889 L0.676128786,121.638889 L0,120.844444 Z M45.1664979,120.952778 L45.1664979,97.0472222 C45.1664979,96.6861111 45.4511837,96.3611111 45.8426267,96.3611111 L60.575117,96.3611111 C60.96656,96.3611111 61.2512458,96.6861111 61.2512458,97.0472222 L61.2512458,100.983333 C61.2512458,101.344444 60.96656,101.669444 60.575117,101.669444 L50.7178711,101.669444 L50.7178711,106.147222 L58.8314165,106.147222 C59.1872737,106.147222 59.5075453,106.472222 59.5075453,106.833333 L59.5075453,110.769444 C59.5075453,111.166667 59.1872737,111.455556 58.8314165,111.455556 L50.7178711,111.455556 L50.7178711,116.330556 L60.575117,116.330556 C60.96656,116.330556 61.2512458,116.655556 61.2512458,117.016667 L61.2512458,120.952778 C61.2512458,121.313889 60.96656,121.638889 60.575117,121.638889 L45.8426267,121.638889 C45.4511837,121.638889 45.1664979,121.313889 45.1664979,120.952778 Z M76.5257342,109.036111 C76.5257342,101.813889 82.255036,96 89.3721812,96 C92.9307537,96 95.5640974,97.1194444 97.9839267,99.3583333 C98.3041983,99.6472222 98.3041983,100.080556 98.0195125,100.369444 L95.2438259,103.294444 C94.9947258,103.547222 94.6032828,103.547222 94.3541827,103.294444 C92.895168,101.994444 91.2938103,101.452778 89.5501098,101.452778 C85.5289228,101.452778 82.5753076,104.847222 82.5753076,108.891667 C82.5753076,112.9 85.5645085,116.222222 89.5856955,116.222222 C91.5429104,116.222222 93.0730966,115.608333 94.3541827,114.488889 C94.6032828,114.272222 95.0658972,114.272222 95.2794116,114.525 L98.0550982,117.522222 C98.3041983,117.775 98.2686125,118.244444 98.0195125,118.497222 C95.5996831,120.880556 92.5393107,122 89.3721812,122 C82.255036,122 76.5257342,116.258333 76.5257342,109.036111 Z M112.511115,121.638889 C111.977329,121.638889 111.692643,121.169444 111.906158,120.7 L123.04449,96.3972222 C123.151247,96.1805556 123.400347,96 123.649447,96 L124.005304,96 C124.254404,96 124.503504,96.1805556 124.610262,96.3972222 L135.748594,120.7 C135.962108,121.169444 135.677422,121.638889 135.143636,121.638889 L131.193621,121.638889 C130.553078,121.638889 130.268392,121.422222 129.94812,120.736111 L128.667034,117.883333 L118.987717,117.883333 L117.706631,120.772222 C117.528702,121.205556 117.137259,121.638889 116.425545,121.638889 L112.511115,121.638889 Z M121.12286,112.972222 L126.531891,112.972222 L123.827376,107.013889 L123.79179,107.013889 L121.12286,112.972222 Z M163.727186,108.747222 L163.727186,108.783333 C165.897915,109.505556 168.424502,111.166667 168.424502,114.669444 C168.424502,118.930556 164.901515,121.638889 160.666814,121.638889 L151.841554,121.638889 C151.450111,121.638889 151.165425,121.313889 151.165425,120.952778 L151.165425,97.0472222 C151.165425,96.6861111 151.450111,96.3611111 151.841554,96.3611111 L160.133028,96.3611111 C164.332143,96.3611111 167.783959,99.2861111 167.783959,103.077778 C167.783959,105.966667 165.755572,107.916667 163.727186,108.747222 Z M156.716798,106.616667 L159.670413,106.616667 C161.022671,106.616667 161.983486,105.461111 161.983486,104.016667 C161.983486,102.572222 161.022671,101.561111 159.670413,101.561111 L156.716798,101.561111 L156.716798,106.616667 Z M156.716798,116.475 L159.741585,116.475 C161.520871,116.475 162.517271,115.572222 162.517271,113.875 C162.517271,112.430556 161.556457,111.311111 159.812756,111.311111 L156.716798,111.311111 L156.716798,116.475 Z M184.054848,109.036111 C184.054848,101.813889 189.712978,96 196.830123,96 C203.947268,96 209.640984,101.813889 209.640984,109.036111 C209.640984,116.258333 203.947268,122 196.830123,122 C189.712978,122 184.054848,116.258333 184.054848,109.036111 Z M189.748564,109.036111 C189.748564,112.972222 192.951279,116.222222 196.830123,116.222222 C200.744553,116.222222 203.947268,112.972222 203.947268,109.036111 C203.947268,105.063889 200.744553,101.777778 196.830123,101.777778 C192.951279,101.777778 189.748564,105.063889 189.748564,109.036111 Z M229.790717,120.952778 L229.790717,101.669444 L224.701958,101.669444 C224.310515,101.669444 224.025829,101.344444 224.025829,100.983333 L224.025829,97.0472222 C224.025829,96.6861111 224.310515,96.3611111 224.701958,96.3611111 L240.50202,96.3611111 C240.893463,96.3611111 241.178149,96.6861111 241.178149,97.0472222 L241.178149,100.983333 C241.178149,101.344444 240.893463,101.669444 240.50202,101.669444 L235.413262,101.669444 L235.413262,120.952778 C235.413262,121.313889 235.09299,121.638889 234.737133,121.638889 L230.466846,121.638889 C230.110989,121.638889 229.790717,121.313889 229.790717,120.952778 Z M264.601769,122 C259.975624,122 257.413452,120.05 256.594981,119.219444 C256.310295,118.930556 256.203538,118.605556 256.452638,118.136111 L258.089581,115.211111 C258.374267,114.741667 258.943638,114.741667 259.299496,114.994444 C260.295896,115.680556 262.110768,116.980556 264.352669,116.980556 C265.776098,116.980556 266.808084,116.077778 266.808084,114.813889 C266.808084,113.297222 265.491412,112.322222 263.142754,111.166667 C259.690939,109.469444 256.239123,107.519444 256.239123,103.186111 C256.239123,99.6111111 258.979224,96 264.459426,96 C268.160341,96 271.007199,97.9138889 272.074771,98.7083333 C272.5018,98.9611111 272.430628,99.6111111 272.288285,99.8638889 L270.473413,102.644444 C270.224313,103.041667 269.619356,103.330556 268.907642,102.897222 C268.08917,102.319444 265.989612,100.947222 264.103569,100.947222 C262.608968,100.947222 261.932839,101.886111 261.932839,102.933333 C261.932839,104.125 263.320683,105.063889 265.811683,106.291667 C268.943227,107.844444 273,109.613889 273,114.525 C273,118.244444 269.83287,122 264.601769,122 Z" id="path-1"></path>
    </defs>
    <g id="MAIN-PAGE" stroke="none" stroke-width="1" fill="none" fill-rule="evenodd">
        <g id="Anny-3" transform="translate(-83.000000, -5639.000000)" fill="#FFFFFF">
            <g id="Footer" transform="translate(0.000000, 5500.000000)">
                <g id="Logo" transform="translate(83.000000, 134.000000)">
                    <g id="Group-2" transform="translate(76.000000, 0.000000)">
                        <ellipse id="Oval" cx="14.3754789" cy="56.0888537" rx="14.3754789" ry="14.5090909"></ellipse>
                        <g id="Group-Copy" transform="translate(89.015640, 38.060344) rotate(-30.000000) translate(-89.015640, -38.060344) translate(74.515640, 2.560344)">
                            <path d="M6.08893627,26.3595813 L23.4589825,25.7478512 C23.0133354,26.1025829 22.7308704,26.4941959 22.5037253,26.8251263 C18.431707,32.7576967 17.2380303,37.1855225 20.7373152,41.942437 C21.2243174,42.604466 22.1656013,43.6951333 23.1712899,44.491518 L5.82312404,44.2968612 C6.83106426,43.5374605 7.7911322,42.677616 8.49691934,41.7308245 C11.788584,37.3151589 11.6438193,31.2222727 6.66040344,26.8172766 C6.46807891,26.6524341 6.44498766,26.6249665 6.08893627,26.3595813 Z" id="Rectangle"></path>
                            <ellipse id="Oval-Copy-3" cx="14.3754789" cy="55.9636364" rx="14.3754789" ry="14.5090909"></ellipse>
                            <ellipse id="Oval-Copy-2" cx="14.3754789" cy="14.5090909" rx="14.3754789" ry="14.5090909"></ellipse>
                        </g>
                        <g id="Group-Copy-2" transform="translate(46.573750, 38.060344) rotate(-30.000000) translate(-46.573750, -38.060344) translate(32.073750, 2.560344)">
                            <path d="M6.08893627,26.3595813 L23.4589825,25.7478512 C23.0133354,26.1025829 22.7308704,26.4941959 22.5037253,26.8251263 C18.431707,32.7576967 17.2380303,37.1855225 20.7373152,41.942437 C21.2243174,42.604466 22.1656013,43.6951333 23.1712899,44.491518 L5.82312404,44.2968612 C6.83106426,43.5374605 7.7911322,42.677616 8.49691934,41.7308245 C11.788584,37.3151589 11.6438193,31.2222727 6.66040344,26.8172766 C6.46807891,26.6524341 6.44498766,26.6249665 6.08893627,26.3595813 Z" id="Rectangle"></path>
                            <ellipse id="Oval-Copy-3" cx="14.3754789" cy="55.9636364" rx="14.3754789" ry="14.5090909"></ellipse>
                            <ellipse id="Oval-Copy-2" cx="14.3754789" cy="14.5090909" rx="14.3754789" ry="14.5090909"></ellipse>
                        </g>
                    </g>
                    <g id="MECABOTS" fill-rule="nonzero">
                        <use xlink:href="#path-1"></use>
                        <use xlink:href="#path-1"></use>
                    </g>
                </g>
            </g>
        </g>
    </g>
</svg>