
<svg width="83px" height="48px" viewBox="0 0 83 48" version="1.1" xmlns="http://www.w3.org/2000/svg" xmlns:xlink="http://www.w3.org/1999/xlink">
    <g id="MAIN-PAGE" stroke="none" stroke-width="1" fill="none" fill-rule="evenodd">
        <g id="Anny-3" transform="translate(-57.000000, -48.000000)" fill="#FFFFFF">
            <g id="Header" transform="translate(57.000000, 44.000000)">
                <g id="Logo">
                    <circle id="Oval" cx="10.5" cy="40.6663522" r="10.5"></circle>
                    <g id="Group-Copy" transform="translate(64.843267, 27.500000) rotate(-30.000000) translate(-64.843267, -27.500000) translate(54.343267, 2.000000)">
                        <path d="M4.44742267,19.0760128 L17.1346859,18.6333133 C16.8091806,18.8900271 16.6028653,19.1734313 16.4369561,19.4129204 C13.4627114,23.7062278 12.5908375,26.9105755 15.1467517,30.3530794 C15.5024632,30.8321793 16.1899868,31.6214781 16.9245522,32.1978091 L4.25327064,32.0569391 C4.98948071,31.5073727 5.69072436,30.8851168 6.20623866,30.1999388 C8.61050495,27.0043913 8.50476726,22.5950658 4.86482826,19.4072397 C4.72435241,19.2879458 4.70748632,19.2680679 4.44742267,19.0760128 Z" id="Rectangle"></path>
                        <circle id="Oval-Copy-3" cx="10.5" cy="40.5" r="10.5"></circle>
                        <circle id="Oval-Copy-2" cx="10.5" cy="10.5" r="10.5"></circle>
                    </g>
                    <g id="Group-Copy-2" transform="translate(33.843267, 27.500000) rotate(-30.000000) translate(-33.843267, -27.500000) translate(23.343267, 2.000000)">
                        <path d="M4.44742267,19.0760128 L17.1346859,18.6333133 C16.8091806,18.8900271 16.6028653,19.1734313 16.4369561,19.4129204 C13.4627114,23.7062278 12.5908375,26.9105755 15.1467517,30.3530794 C15.5024632,30.8321793 16.1899868,31.6214781 16.9245522,32.1978091 L4.25327064,32.0569391 C4.98948071,31.5073727 5.69072436,30.8851168 6.20623866,30.1999388 C8.61050495,27.0043913 8.50476726,22.5950658 4.86482826,19.4072397 C4.72435241,19.2879458 4.70748632,19.2680679 4.44742267,19.0760128 Z" id="Rectangle"></path>
                        <circle id="Oval-Copy-3" cx="10.5" cy="40.5" r="10.5"></circle>
                        <circle id="Oval-Copy-2" cx="10.5" cy="10.5" r="10.5"></circle>
                    </g>
                </g>
            </g>
        </g>
    </g>
</svg>