<?xml version="1.0" standalone="no"?>
<!DOCTYPE svg PUBLIC "-//W3C//DTD SVG 20010904//EN"
 "http://www.w3.org/TR/2001/REC-SVG-20010904/DTD/svg10.dtd">
<svg version="1.0" xmlns="http://www.w3.org/2000/svg"
 width="800.000000pt" height="800.000000pt" viewBox="0 0 800.000000 800.000000"
 preserveAspectRatio="xMidYMid meet">
<metadata>
Created by potrace 1.11, written by Peter Selinger 2001-2013
</metadata>
<g transform="translate(0.000000,800.000000) scale(0.100000,-0.100000)"
fill="#000000" stroke="none">
<path d="M3768 7895 c-2 -2 -41 -6 -88 -9 -47 -4 -98 -8 -115 -10 -97 -12
-133 -17 -155 -20 -14 -3 -41 -7 -60 -10 -19 -3 -46 -8 -60 -11 -14 -3 -38 -8
-55 -11 -25 -4 -114 -24 -217 -50 -10 -2 -26 -6 -35 -8 -10 -2 -31 -9 -48 -16
-16 -6 -32 -11 -35 -11 -8 1 -83 -20 -105 -29 -11 -5 -67 -25 -125 -46 -120
-42 -299 -118 -380 -160 -30 -15 -57 -28 -60 -29 -6 -1 -58 -28 -107 -56 -18
-11 -48 -28 -67 -38 -73 -41 -81 -46 -94 -58 -7 -7 -20 -13 -28 -13 -8 0 -14
-4 -14 -10 0 -5 -4 -10 -10 -10 -5 0 -51 -29 -102 -65 -51 -35 -101 -70 -111
-77 -11 -7 -27 -20 -37 -28 -10 -8 -31 -24 -46 -35 -15 -11 -36 -29 -46 -39
-10 -11 -18 -16 -18 -11 0 5 -6 2 -12 -6 -7 -9 -44 -42 -83 -74 -127 -108
-361 -348 -471 -484 -10 -13 -24 -28 -29 -35 -6 -6 -37 -47 -70 -91 -33 -44
-68 -89 -77 -99 -10 -11 -18 -25 -18 -32 0 -7 -3 -14 -8 -16 -9 -4 -98 -142
-165 -257 -45 -78 -186 -355 -186 -366 0 -3 -8 -19 -16 -35 -9 -17 -13 -30 -9
-30 4 0 2 -6 -3 -12 -5 -7 -20 -40 -33 -73 -12 -33 -29 -75 -37 -93 -8 -18
-16 -40 -18 -50 -2 -9 -13 -44 -25 -77 -11 -33 -21 -62 -22 -65 0 -3 -2 -9 -4
-15 -2 -5 -8 -30 -15 -55 -7 -25 -14 -49 -15 -55 -2 -5 -5 -19 -7 -30 -3 -11
-10 -40 -17 -65 -13 -47 -17 -66 -25 -115 -3 -16 -8 -37 -10 -45 -5 -18 -11
-51 -26 -140 -9 -59 -13 -86 -24 -185 -16 -140 -20 -221 -20 -430 0 -207 4
-289 20 -450 8 -79 41 -280 61 -370 9 -38 17 -78 19 -87 9 -44 57 -216 69
-248 8 -19 15 -39 16 -45 1 -5 4 -14 5 -20 5 -18 36 -110 45 -130 4 -11 20
-51 35 -90 15 -38 33 -86 42 -105 25 -60 183 -373 209 -415 13 -22 27 -47 31
-55 9 -19 160 -247 187 -281 12 -15 30 -39 41 -55 62 -86 174 -220 271 -321
28 -29 50 -53 48 -53 -2 0 55 -56 156 -150 41 -39 149 -130 260 -220 24 -19
59 -46 79 -59 20 -14 38 -28 39 -33 2 -4 10 -8 18 -8 8 0 14 -3 14 -8 0 -4 17
-16 37 -27 20 -11 41 -25 47 -30 49 -46 398 -238 576 -315 81 -36 296 -119
320 -125 8 -2 29 -9 45 -15 17 -6 37 -13 45 -15 8 -2 42 -11 75 -21 33 -10 65
-19 70 -20 6 -1 46 -11 90 -22 44 -11 94 -23 110 -25 17 -3 37 -8 45 -11 8 -3
29 -7 45 -10 17 -2 62 -9 100 -16 132 -21 180 -27 335 -40 99 -8 565 -5 635 4
22 3 63 8 90 11 98 10 213 27 275 40 14 3 39 8 55 11 25 4 114 24 218 50 9 2
26 6 37 8 11 3 24 7 28 10 5 3 24 8 42 11 19 3 40 11 47 17 7 6 13 8 13 5 0
-3 26 3 58 14 31 11 62 22 67 23 13 3 149 54 200 76 22 9 60 25 85 35 61 26
337 164 380 190 174 108 256 161 258 167 2 4 9 8 16 8 7 0 21 8 32 18 10 9 53
42 94 73 125 94 233 185 334 282 33 31 60 57 62 57 3 0 84 82 84 86 0 2 17 21
38 42 57 59 103 112 147 167 22 27 45 55 50 62 236 287 463 691 600 1068 26
72 51 139 55 150 21 53 104 376 124 490 23 120 34 207 53 390 10 105 10 536 0
650 -16 167 -18 182 -43 330 -9 50 -18 104 -21 120 -8 51 -82 338 -97 375 -8
19 -14 37 -14 40 -1 6 -2 10 -31 96 -25 76 -48 137 -71 189 -10 22 -30 69 -45
105 -47 114 -149 309 -235 450 -68 112 -178 272 -192 278 -5 2 -8 9 -8 15 0 7
-14 27 -31 45 -16 17 -28 32 -25 32 4 0 -2 8 -11 18 -10 10 -34 38 -53 61 -55
68 -66 81 -148 170 -42 46 -78 87 -80 92 -2 5 -11 9 -20 9 -8 0 -13 3 -10 6 3
3 -17 26 -45 52 -185 170 -192 176 -249 219 -26 21 -48 41 -48 45 0 4 -5 8
-11 8 -6 0 -16 6 -24 13 -7 6 -23 20 -36 29 -13 9 -58 40 -99 70 -248 176
-560 342 -845 449 -44 17 -92 35 -107 41 -15 5 -30 10 -32 9 -3 0 -22 7 -43
15 -20 9 -44 17 -52 19 -9 2 -43 11 -76 21 -33 10 -64 19 -70 20 -5 1 -66 16
-135 32 -69 17 -141 33 -160 36 -19 3 -78 12 -130 20 -220 34 -344 43 -607 43
-117 0 -214 -1 -215 -2z"/>
</g>
</svg>
