<?xml version="1.0" encoding="UTF-8"?>
<svg width="93px" height="93px" viewBox="0 0 93 93" version="1.1" xmlns="http://www.w3.org/2000/svg" xmlns:xlink="http://www.w3.org/1999/xlink">
    <!-- Generator: Sketch 61.2 (89653) - https://sketch.com -->
    <title>cloud-computing (1) 2</title>
    <desc>Created with Sketch.</desc>
    <g id="Web-Kit" stroke="none" stroke-width="1" fill="none" fill-rule="evenodd">
        <g id="Anny_user_landing" transform="translate(-346.000000, -6412.000000)" fill-rule="nonzero">
            <g id="CloudSecureSupport" transform="translate(-83.000000, 650.000000)">
                <g id="Group-3" transform="translate(0.000000, 5710.000000)">
                    <g id="cloud-computing-(1)-2" transform="translate(429.000000, 52.000000)">
                        <g id="cloud-computing-(1)">
                            <g id="Group" transform="translate(6.633516, 71.566406)" fill="#FECA57">
                                <circle id="Oval" cx="31.9516758" cy="15.0027891" r="4.94680078"></circle>
                                <circle id="Oval" cx="47.781293" cy="15.0027891" r="4.94680078"></circle>
                                <path d="M74.4940898,0.162386719 C77.2261325,0.162386719 79.4408906,2.37714487 79.4408906,5.1091875 C79.4408906,7.84123013 77.2261325,10.0559883 74.4940898,10.0559883 C71.7620472,10.0559883 69.5472891,7.84123013 69.5472891,5.1091875 C69.5472891,2.37714487 71.7620472,0.162386719 74.4940898,0.162386719 Z M5.23887891,0.162386719 C7.97092154,0.162386719 10.1856797,2.37714487 10.1856797,5.1091875 C10.1856797,7.84123013 7.97092154,10.0559883 5.23887891,10.0559883 C2.50683627,10.0559883 0.292078125,7.84123013 0.292078125,5.1091875 C0.292078125,2.37714487 2.50683627,0.162386719 5.23887891,0.162386719 Z" id="Oval-2"></path>
                            </g>
                            <path d="M80.2748027,27.8485957 C80.1442031,13.2653965 68.2817988,1.48400391 53.6689922,1.48400391 C53.500793,1.48400391 53.3325938,1.48600195 53.1643945,1.488 L72.9674004,56.5261992 L76.9881973,56.5261992 C85.0119902,56.5261992 91.5159961,50.0221934 91.5159961,41.9984004 C91.5159961,35.1065918 86.7135996,29.3385938 80.2748027,27.8485957 Z" id="Path" fill="#134E5E"></path>
                            <path d="M75.820793,27.8485957 C75.7099922,13.4355938 65.6481914,1.75719141 53.1643945,1.488 C43.3419961,1.67200195 34.8215977,7.17680273 30.3655898,15.2381953 C29.4117949,14.8265977 28.392791,14.5416035 27.3261973,14.4031934 C26.8493906,14.3417988 26.3625938,14.3101934 25.8678047,14.3101934 C20.1077988,14.3101934 15.3548086,18.6039961 14.6266113,24.1641973 C7.13320898,25.6501992 1.48400391,32.2591934 1.48400391,40.1878066 C1.48400391,49.2128027 8.79939844,56.5261992 17.8223965,56.5261992 L21.6034277,56.5261992 C21.603791,56.5261992 72.967582,56.5261992 72.967582,56.5261992 C79.9327734,56.5261992 85.5799805,50.0221934 85.5799805,41.9984004 C85.5799805,35.1065918 81.4106016,29.3385938 75.820793,27.8485957 Z" id="Path" fill="#268BA6"></path>
                            <path d="M40.0691953,80.3129473 L40.0691953,56.5271074 C40.0691953,55.7073633 39.4049355,55.0431035 38.5851914,55.0431035 L28.6915898,55.0431035 C27.8718457,55.0431035 27.2075859,55.7073633 27.2075859,56.5271074 C27.2075859,57.3468516 27.8718457,58.0111113 28.6915898,58.0111113 L37.1011875,58.0111113 L37.1011875,80.3129473 C34.2686836,80.9848359 32.1543867,83.5339805 32.1543867,86.5690137 C32.1543867,90.115002 35.0392031,92.9998184 38.5851914,92.9998184 C42.1311797,92.9998184 45.0159961,90.115002 45.0159961,86.5690137 C45.0159961,83.5339805 42.9016992,80.9850176 40.0691953,80.3129473 Z M38.5851914,90.0319922 C36.6759668,90.0319922 35.1223945,88.4784199 35.1223945,86.5691953 C35.1223945,84.6599707 36.6759668,83.1063984 38.5851914,83.1063984 C40.494416,83.1063984 42.0479883,84.6599707 42.0479883,86.5691953 C42.0479883,88.4784199 40.494416,90.0319922 38.5851914,90.0319922 Z" id="Shape" fill="#000000"></path>
                            <path d="M55.8989941,80.3129473 L55.8989941,56.5271074 C55.8989941,55.7073633 55.2347344,55.0431035 54.4149902,55.0431035 L44.5215703,55.0431035 C43.7018262,55.0431035 43.0375664,55.7073633 43.0375664,56.5271074 C43.0375664,57.3468516 43.7018262,58.0111113 44.5215703,58.0111113 L52.9309863,58.0111113 L52.9309863,80.3129473 C50.0984824,80.9848359 47.9841855,83.5339805 47.9841855,86.5690137 C47.9841855,90.115002 50.869002,92.9998184 54.4149902,92.9998184 C57.9609785,92.9998184 60.8457949,90.115002 60.8457949,86.5690137 C60.8457949,83.5339805 58.731498,80.9850176 55.8989941,80.3129473 Z M54.4148086,90.0319922 C52.505584,90.0319922 50.9520117,88.4784199 50.9520117,86.5691953 C50.9520117,84.6599707 52.505584,83.1063984 54.4148086,83.1063984 C56.3240332,83.1063984 57.8776055,84.6599707 57.8776055,86.5691953 C57.8776055,88.4784199 56.3242148,90.0319922 54.4148086,90.0319922 Z" id="Shape" fill="#000000"></path>
                            <path d="M81.1276055,70.2446074 C78.0923906,70.2446074 75.5434277,72.3589043 74.8715391,75.1914082 L71.728793,75.1914082 L71.728793,56.5271074 C71.728793,55.7073633 71.0645332,55.0431035 70.2447891,55.0431035 L60.3511875,55.0431035 C59.5314434,55.0431035 58.8671836,55.7073633 58.8671836,56.5271074 C58.8671836,57.3468516 59.5314434,58.0111113 60.3511875,58.0111113 L68.7607852,58.0111113 L68.7607852,76.6754121 C68.7607852,77.4951563 69.4250449,78.159416 70.2447891,78.159416 L74.8717207,78.159416 C75.5436094,80.9919199 78.0927539,83.1062168 81.1277871,83.1062168 C84.6737754,83.1062168 87.5585918,80.2214004 87.5585918,76.6754121 C87.5585918,73.1294238 84.6737754,70.2446074 81.1276055,70.2446074 Z M81.1276055,80.138209 C79.2183809,80.138209 77.6648086,78.5846367 77.6648086,76.6754121 C77.6648086,74.7661875 79.2183809,73.2126152 81.1276055,73.2126152 C83.0368301,73.2126152 84.5904023,74.7661875 84.5904023,76.6754121 C84.5904023,78.5846367 83.0370117,80.138209 81.1276055,80.138209 Z" id="Shape" fill="#000000"></path>
                            <path d="M89.4661816,31.9676602 C87.4661367,29.4844512 84.7495195,27.6446133 81.7268379,26.7058945 C81.3864434,19.6807617 78.4718379,13.1262598 73.4478398,8.1442207 C68.1515625,2.89226367 61.1271562,0 53.668084,0 C43.8732949,0 34.8096094,5.10755273 29.7124102,13.413252 C28.4728945,13.022543 27.1845176,12.8250996 25.8668965,12.8250996 C19.8046406,12.8250996 14.5915547,17.1043711 13.3344199,22.9373965 C5.54912109,24.9570586 0,32.0530313 0,40.1879883 C0,50.0156543 7.99527539,58.0111113 17.8229414,58.0111113 L21.271207,58.0111113 L21.271207,75.1914082 L18.1284609,75.1914082 C17.4565723,72.3589043 14.9074277,70.2446074 11.8723945,70.2446074 C8.32640625,70.2446074 5.44158984,73.1294238 5.44158984,76.6754121 C5.44158984,80.2214004 8.32640625,83.1062168 11.8723945,83.1062168 C14.9076094,83.1062168 17.4565723,80.9919199 18.1284609,78.159416 L22.7553926,78.159416 C23.5751367,78.159416 24.2393965,77.4951563 24.2393965,76.6754121 L24.2393965,56.5271074 C24.2393965,55.7073633 23.5751367,55.0431035 22.7553926,55.0431035 L17.8229414,55.0431035 C9.63203906,55.0431035 2.96800781,48.3790723 2.96800781,40.1879883 C2.96800781,33.1194434 7.99291406,26.9923418 14.9161465,25.6193203 C15.5404453,25.495623 16.0165254,24.9875742 16.0989902,24.356373 C16.738002,19.4745996 20.9371699,15.7934707 25.8668965,15.7934707 C27.2230254,15.7934707 28.5382852,16.0652051 29.7759844,16.6008633 C30.4776621,16.9045664 31.2946816,16.6255664 31.6643203,15.9569473 C36.093627,7.94496094 44.5250215,2.96800781 53.668084,2.96800781 C67.397209,2.96800781 78.6672832,14.1354551 78.7911621,27.862582 C78.7973379,28.548457 79.2725098,29.1404238 79.940584,29.295 C85.8822305,30.6700195 90.0319922,35.8941855 90.0319922,41.9989453 C90.0319922,49.1913691 84.1806211,55.0429219 76.9881973,55.0429219 L76.180623,55.0429219 C75.3608789,55.0429219 74.6966191,55.7071816 74.6966191,56.5269258 C74.6966191,57.3466699 75.3608789,58.0109297 76.180623,58.0109297 L76.9880156,58.0109297 C85.8168398,58.0109297 92.9998184,50.8279512 92.9998184,41.9989453 C92.9998184,38.3594121 91.7448633,34.7968945 89.4661816,31.9676602 Z M11.8723945,80.138209 C9.96316992,80.138209 8.40959766,78.5846367 8.40959766,76.6754121 C8.40959766,74.7661875 9.96316992,73.2126152 11.8723945,73.2126152 C13.7816191,73.2126152 15.3351914,74.7661875 15.3351914,76.6754121 C15.3351914,78.5846367 13.7816191,80.138209 11.8723945,80.138209 Z" id="Shape" fill="#000000"></path>
                            <path d="M72.3603574,29.4048926 C72.3647168,29.4048926 72.3694395,29.4048926 72.3739805,29.4048926 C73.193543,29.3974453 73.8518086,28.7270098 73.844543,27.9074473 C73.8223828,25.4629277 73.3610156,23.0709023 72.4731563,20.7976699 C72.1747207,20.0342344 71.3144707,19.6569668 70.5508535,19.9550391 C69.787418,20.253293 69.4101504,21.1137246 69.7084043,21.8773418 C70.4647559,23.8132676 70.8576445,25.8512754 70.8765352,27.9341484 C70.8839824,28.7495332 71.5467891,29.4048926 72.3603574,29.4048926 Z" id="Path" fill="#000000"></path>
                            <path d="M66.9358418,17.1666738 C67.229373,17.5219629 67.6533223,17.7056016 68.0807227,17.7056016 C68.4136699,17.7056016 68.7486152,17.5942559 69.0248906,17.3655703 C69.6566367,16.8435352 69.7460039,15.9082676 69.2239688,15.2761582 C65.3593828,10.5978223 59.6894707,7.91462695 53.6682656,7.91462695 C52.8485215,7.91462695 52.1842617,8.57888672 52.1842617,9.39863086 C52.1842617,10.218375 52.8485215,10.8826348 53.6682656,10.8826348 C58.8010664,10.882998 63.6368848,13.173123 66.9358418,17.1666738 Z" id="Path" fill="#000000"></path>
                        </g>
                    </g>
                </g>
            </g>
        </g>
    </g>
</svg>