<?xml version="1.0" encoding="UTF-8"?>
<svg width="104px" height="99px" viewBox="0 0 104 99" version="1.1" xmlns="http://www.w3.org/2000/svg" xmlns:xlink="http://www.w3.org/1999/xlink">
    <!-- Generator: Sketch 61.2 (89653) - https://sketch.com -->
    <title>qa</title>
    <desc>Created with Sketch.</desc>
    <g id="Web-Kit" stroke="none" stroke-width="1" fill="none" fill-rule="evenodd">
        <g id="Anny_user_landing" transform="translate(-980.000000, -6409.000000)" fill-rule="nonzero">
            <g id="CloudSecureSupport" transform="translate(-83.000000, 650.000000)">
                <g id="Group-3" transform="translate(0.000000, 5710.000000)">
                    <g id="qa" transform="translate(1063.000000, 49.000000)">
                        <path d="M94.5245131,26 C98.6529793,26 102,29.421068 102,33.6418663 C102,42.6159081 102,49.3464395 102,53.8334604 C102,56.4976966 102,60.494051 102,65.8225235 C102,70.0433216 98.6529793,73.4643896 94.5245131,73.4643896 C92.7000866,73.4643896 91.3521127,75.2036007 91.768515,77.0195536 L96.3228651,96.8762882 C96.5306712,97.7826492 95.4331707,98.3868897 94.8081722,97.7107543 L73.2042441,74.3691348 C72.6693214,73.7915519 71.9258022,73.4643896 71.1483074,73.4643896 L46.4754869,73.4643896 C42.3470207,73.4643896 39,70.0425138 39,65.8217155 L39,33.6418663 C39,29.421068 42.3470207,26 46.4754869,26 L94.5245131,26 Z" id="Path" fill="#268BA6"></path>
                        <path d="M95.3505233,26 L84.8978824,26 C89.1224375,26 92.5473591,29.421067 92.5473591,33.641864 L92.5473591,65.8225117 C92.5473591,70.0433085 89.1224375,73.4643755 84.8978824,73.4643755 C83.0309929,73.4643755 81.6516452,75.2035861 82.0777392,77.0195385 L84.0659078,85.4894054 L95.6407844,97.710733 C96.2803296,98.3868682 97.4033741,97.7826278 97.1907314,96.8770751 L92.5303801,77.0195385 C92.1042861,75.2035861 93.4836338,73.4643755 95.3505233,73.4643755 C99.5750784,73.4643755 103,70.0433085 103,65.8225117 L103,33.641864 C103,29.421067 99.5750784,26 95.3505233,26 L95.3505233,26 Z" id="Path" fill="#134E5E"></path>
                        <path d="M66,60.764773 C66,60.6591728 66.0365518,60.5885246 66.0738814,60.4829243 L73.599689,37.0232824 C73.8213336,36.3175448 74.6698048,36 75.5182759,36 C76.3667471,36 77.2152184,36.3532407 77.436863,37.0232824 L84.9626704,60.4829243 C84.9626704,60.5885246 85,60.6591728 85,60.729821 C85,61.4355586 83.9672138,62 83.0814131,62 C82.56502,62 82.1225085,61.7880555 81.9747453,61.3292145 L80.3516843,56.0729935 L70.6483157,56.0729935 L69.0252547,61.3292145 C68.8782694,61.7880555 68.4349802,62 67.8820351,62 C67.0701158,62 66,61.5062067 66,60.764773 L66,60.764773 Z M79.612869,53.6389794 L75.5182759,40.374235 L71.3498014,53.6389794 L79.612869,53.6389794 Z" id="Shape" fill="#000000"></path>
                        <path d="M57.5245131,1 L9.47548689,1 C5.34702068,1 2,4.42187475 2,8.64186381 L2,40.8225116 C2,45.0433084 5.34702068,48.4651834 9.47548689,48.4651834 C11.2999134,48.4651834 12.6478873,50.2035862 12.231485,52.0195386 L7.67713489,71.8770751 C7.46932879,72.7826278 8.56682935,73.3868682 9.19182783,72.710733 L30.7957559,49.3699283 C31.3306786,48.7923456 32.0741978,48.4651834 32.8524827,48.4651834 L57.5245131,48.4651834 C61.6529793,48.4651834 65,45.0433084 65,40.8225116 L65,8.64186381 C65,4.42187475 61.6529793,1 57.5245131,1 Z" id="Path" fill="#FFBD00"></path>
                        <path d="M19.8608131,49.8850231 L9.60595536,60.8103171 L7.02558453,71.9015529 C6.81943699,72.7873662 7.90817806,73.3784352 8.52897201,72.7170385 L29.9604723,49.8850231 C30.4911257,49.3200306 31.2287105,49 32,49 L21.9003406,49 C21.1282674,49 20.3906827,49.3200306 19.8608131,49.8850231 Z" id="Path" fill="#FF901D"></path>
                        <path d="M57.8024255,2 L48,2 C51.9749843,2 55.1968138,5.31624629 55.1968138,9.40675306 L55.1968138,40.5932467 C55.1968138,44.6837535 51.9749843,48 48,48 L57.8024255,48 C61.7774098,48 65,44.6837535 65,40.5932467 L65,9.40597023 C65,5.31624629 61.7774098,2 57.8024255,2 Z" id="Path" fill="#F68E00"></path>
                        <path d="M32.9047689,38.8215468 L32.9047689,35.8750001 C28.9323551,35.5611323 26,33.1644751 26,27.3898064 L26,15.564696 C26,9.31798339 29.4895574,7 33.9816092,7 C38.473661,7 42,9.31798339 42,15.564696 L42,27.3898064 C42,33.1247241 39.0676449,35.5611323 35.1320128,35.8750001 L35.1320128,38.8215468 C35.1320128,39.6066304 34.5755931,40 34.0183908,40 C33.4619711,40 32.9047689,39.6074584 32.9047689,38.8215468 Z M38.8821717,15.564696 C38.8821717,11.7535635 37.0250916,9.98629804 33.9816092,9.98629804 C30.9373442,9.98629804 29.1178283,11.7535635 29.1178283,15.564696 L29.1178283,27.3898064 C29.1178283,30.6891439 30.492052,32.4183148 32.9047689,32.8108563 L32.9047689,30.1392543 C32.9047689,29.3533427 33.4619711,28.9997241 34.0183908,28.9997241 C34.5755931,28.9997241 35.1320128,29.3533427 35.1320128,30.1392543 L35.1320128,32.7711053 C37.4711665,32.4174864 38.8821717,30.6891439 38.8821717,27.3889781 L38.8821717,15.564696 Z" id="Shape" fill="#000000"></path>
                        <path d="M66,40.7651468 L66,9.05768342 C66,4.06322261 61.9676452,0 57.0120973,0 L8.98790275,0 C4.03156517,0 0,4.06322261 0,9.05768342 L0,40.7651468 C0,45.7596077 4.03156517,49.8236264 8.98790275,49.8236264 C9.39066451,49.8236264 9.76657539,50.0058943 10.0169193,50.3250621 C10.2672633,50.6434342 10.3580822,51.0533382 10.265684,51.4489153 L5.71368749,71.0136706 C5.46255365,72.0961354 5.94507796,73.1770085 6.91644441,73.703914 C7.28287855,73.9028966 7.67695304,74 8.06628946,74 C8.70675932,74 9.33459372,73.7373432 9.80606172,73.2351113 L31.3988251,50.23751 C31.6452204,49.9740571 31.9927011,49.8236264 32.3520277,49.8236264 L57.0120973,49.8236264 C61.9676452,49.8236264 66,45.7596077 66,40.7651468 L66,40.7651468 Z M29.1954818,48.1362547 L9.19481178,69.4385251 L13.2184796,52.1469459 C13.523315,50.8368452 13.2224284,49.4805805 12.3932131,48.4259731 C11.563998,47.3713659 10.3225444,46.7672551 8.98790275,46.7672551 C5.70421074,46.7672551 3.03255836,44.0746239 3.03255836,40.7651468 L3.03255836,9.05768342 C3.03255836,5.74900245 5.70421074,3.05637121 8.98790275,3.05637121 L57.0120973,3.05637121 C60.2957895,3.05637121 62.9674416,5.74900245 62.9674416,9.05768342 L62.9674416,40.7651468 C62.9674416,44.0746239 60.2957895,46.7672551 57.0120973,46.7672551 L32.3520277,46.7672551 C31.1634858,46.7672551 30.0128511,47.2663031 29.1954818,48.1362547 Z" id="Shape" fill="#000000"></path>
                        <path d="M95.0120973,25 L72.0483648,25 C71.2104627,25 70.5320856,25.6837113 70.5320856,26.528202 C70.5320856,27.3718971 71.2104627,28.0564041 72.0483648,28.0564041 L95.0120973,28.0564041 C98.2957893,28.0564041 100.967442,30.7482684 100.967442,34.057781 L100.967442,65.7647893 C100.967442,69.0743019 98.2957893,71.7669621 95.0120973,71.7669621 C93.6774556,71.7669621 92.436002,72.3718754 91.6067869,73.426494 C90.7775716,74.4811125 90.476685,75.8365959 90.7815204,77.1467109 L94.8043985,94.4384761 L74.8045182,73.1367723 C73.9879386,72.2668115 72.8373039,71.7669621 71.6479723,71.7669621 L46.9879027,71.7669621 C43.7042105,71.7669621 41.0325584,69.0743019 41.0325584,65.7647893 L41.0325584,55.1406016 C41.0325584,54.2961106 40.3541813,53.6123996 39.5162792,53.6123996 C38.6791667,53.6123996 38,54.2961106 38,55.1406016 L38,65.7647893 C38,70.7600999 42.0323548,74.8233662 46.9879027,74.8233662 L71.6479723,74.8233662 C72.0072989,74.8233662 72.3547796,74.9745944 72.6019646,75.2372542 L94.194728,98.2351029 C94.666196,98.7373402 95.2932407,99 95.9337105,99 C96.323047,99 96.7179113,98.9028954 97.0843455,98.7039107 C98.054922,98.1769994 98.538236,97.096115 98.2863125,96.0144344 L93.734316,76.4486726 C93.6419178,76.0530912 93.7327367,75.6431828 93.9830807,75.3248074 C94.2342143,75.006432 94.6093355,74.8233662 95.0120973,74.8233662 C99.9684348,74.8233662 104,70.7600999 104,65.7647893 L104,34.057781 C104,29.0632665 99.9684348,25 95.0120973,25 L95.0120973,25 Z" id="Path" fill="#000000"></path>
                    </g>
                </g>
            </g>
        </g>
    </g>
</svg>