<?xml version="1.0" encoding="UTF-8"?>
<svg width="104px" height="104px" viewBox="0 0 104 104" version="1.1" xmlns="http://www.w3.org/2000/svg" xmlns:xlink="http://www.w3.org/1999/xlink">
    <!-- Generator: Sketch 61.2 (89653) - https://sketch.com -->
    <title>005-security</title>
    <desc>Created with Sketch.</desc>
    <g id="Web-Kit" stroke="none" stroke-width="1" fill="none" fill-rule="evenodd">
        <g id="Anny_user_landing" transform="translate(-668.000000, -6505.000000)" fill-rule="nonzero">
            <g id="CloudSecureSupport" transform="translate(-83.000000, 650.000000)">
                <g id="Group-3" transform="translate(0.000000, 5710.000000)">
                    <g id="005-security" transform="translate(751.000000, 145.000000)">
                        <path d="M89.6791591,37.7421635 C73.5580909,33.9130529 59.315,24.0496154 52,12 C44.685,24.0498317 30.442125,33.9130529 14.3208409,37.7421635 L14,37.9615385 L14,42.8663221 C14,68.3382692 28.858,91.4596154 52,102 C75.142,91.4596154 90,68.3384856 90,42.8663221 L90,37.9615385 L89.6791591,37.7421635 Z" id="Path" fill="#F59536"></path>
                        <polygon id="Path" fill="#134E5E" points="37 51 67 51 67 80 37 80"></polygon>
                        <path d="M40,44.9 L40,50 L46.8571429,50 L46.8571429,44.9 C46.8571429,42.0833125 49.1596429,39.8 52,39.8 C54.8403571,39.8 57.1428571,42.0833125 57.1428571,44.9 L57.1428571,50 L64,50 L64,44.9 C64,38.3278 58.6274286,33 52,33 C45.3725714,33 40,38.3278 40,44.9 L40,44.9 Z" id="Path" fill="#CAC2A8"></path>
                        <path d="M57,62.3506821 C57.0134804,59.4099173 54.785753,57.0144864 52.0244793,57 C49.2629974,56.9856444 47.0136031,59.3580019 47,62.2985448 C46.9929779,63.8227284 47.5998581,65.2770259 48.6665339,66.2933702 L48.6665339,73 L55.3332577,73 L55.3332577,66.2933702 C56.3907667,65.2918906 56.9970219,63.8577824 57,62.3506821 Z" id="Path" fill="#268BA6"></path>
                        <g id="Group" transform="translate(2.000000, 2.000000)" fill="#F59536">
                            <ellipse id="Oval" cx="5.1888172" cy="5.12516814" rx="5.16129032" ry="5.09734513"></ellipse>
                            <ellipse id="Oval" cx="34.436129" cy="5.12516814" rx="5.16129032" ry="5.09734513"></ellipse>
                            <ellipse id="Oval" cx="72.2855914" cy="5.12516814" rx="5.16129032" ry="5.09734513"></ellipse>
                            <ellipse id="Oval" cx="94.6511828" cy="18.7180885" rx="5.16129032" ry="5.09734513"></ellipse>
                        </g>
                        <path d="M67.3,48.2413793 L65.6,48.2413793 L65.6,44.7931034 C65.6,37.175431 59.511025,31 52,31 C44.488975,31 38.4,37.175431 38.4,44.7931034 L38.4,48.2413793 L36.7,48.2413793 C35.7613875,48.2411638 35,49.0127155 35,49.9646552 C35,49.9648707 35,49.9653017 35,49.9655172 L35,79.275862 C35,80.2278017 35.7605375,81 36.69915,81 C36.6993625,81 36.6997875,81 36.7,81 L67.3,81 C68.2386125,81 69,80.2286637 69,79.2767241 C69,79.2765086 69,79.2760775 69,79.275862 L69,49.9655172 C69,49.0135776 68.2394625,48.2415948 67.30085,48.2413793 C67.300425,48.2413793 67.3002125,48.2413793 67.3,48.2413793 Z M41.8,44.7931034 C41.8,39.0797414 46.366625,34.4482759 52,34.4482759 C57.633375,34.4482759 62.2,39.0797414 62.2,44.7931034 L62.2,48.2413793 L58.8,48.2413793 L58.8,44.7931034 C58.8,40.9842672 55.7555125,37.8965517 52,37.8965517 C48.2444875,37.8965517 45.2,40.9842672 45.2,44.7931034 L45.2,48.2413793 L41.8,48.2413793 L41.8,44.7931034 Z M55.4,44.7931034 L55.4,48.2413793 L48.6,48.2413793 L48.6,44.7931034 C48.6,42.8885776 50.1221375,41.3448276 52,41.3448276 C53.87765,41.3448276 55.4,42.8887931 55.4,44.7931034 Z M65.6,77.5517241 L38.4,77.5517241 L38.4,51.6896552 L65.6,51.6896552 L65.6,77.5517241 Z" id="Shape" fill="#000000"></path>
                        <path d="M51.9999609,56.0000317 C48.1454218,55.9886203 45.0116537,59.0635873 45.0000299,62.8681087 C44.995029,64.5556485 45.6175826,66.1864044 46.7500353,67.4507638 L46.7500353,73.272733 C46.7498166,74.2264002 47.5329305,74.999784 48.4991355,75 C48.4993543,75 48.4997918,75 48.5000105,75 L55.4999113,75 C56.4661163,75.0002158 57.2496677,74.2272639 57.2498864,73.2735966 C57.2498864,73.2733807 57.2498864,73.2729489 57.2498864,73.272733 L57.2498864,67.4507638 C59.8026627,64.6003415 59.5309791,60.2469811 56.6428638,57.7273304 C55.361882,56.6097887 53.7096866,55.9950976 51.9999609,56.0000317 Z M54.3291779,65.4620318 C53.9605893,65.7895648 53.7499361,66.2561428 53.7499361,66.7456071 L53.7499361,71.545466 L50.2499857,71.545466 L50.2499857,66.745823 C50.2499857,66.2561428 50.0393324,65.7895648 49.6707439,65.4620318 C48.9272232,64.8164658 48.5008855,63.8865485 48.5000105,62.9091313 C48.5000105,61.001149 50.0668946,59.4545974 51.9999609,59.4545974 C53.9330272,59.4545974 55.4999113,61.001149 55.4999113,62.9091313 C55.4990363,63.8865485 55.0724798,64.8164658 54.3291779,65.4620318 L54.3291779,65.4620318 Z" id="Shape" fill="#000000"></path>
                        <path d="M97.0664542,13.8905575 C93.9146435,13.8998717 91.1665833,16.0367244 90.3811757,19.0891854 L83.203772,19.0891854 C82.2470303,19.0889688 81.4711534,19.8644308 81.4709367,20.821195 C81.4709367,20.8214116 81.4709367,20.8218448 81.4709367,20.8220614 L81.4709367,33.493717 C79.6995459,32.7968842 77.9623785,32.0292202 76.2724309,31.1892085 L76.2724309,13.6444891 C79.9789656,12.6875084 82.2078249,8.90680619 81.2508667,5.20018447 C80.2939084,1.49356276 76.513295,-0.735348966 72.8067604,0.221848401 C69.1002257,1.17904577 66.8711498,4.95953132 67.8283246,8.66593643 C68.4586435,11.1075587 70.3651955,13.0141555 72.8067604,13.6444891 L72.8067604,29.3183523 C64.9715291,24.9920108 58.33477,18.7854989 53.4934448,11.2574525 C52.9268077,10.4397516 51.8045803,10.2359221 50.9868986,10.8025725 C50.809283,10.9256067 50.6550607,11.0798327 50.5320294,11.2574525 C47.262819,16.4606292 43.065892,21.0193927 38.1500549,24.7063029 L38.1500549,13.6444891 C41.8565896,12.6875084 44.0854489,8.90680619 43.1284907,5.20018447 C42.1713158,1.49377937 38.390919,-0.735348966 34.6843844,0.221848401 C30.9778497,1.17904577 28.7487737,4.95953132 29.7059486,8.66593643 C30.3362675,11.1075587 32.2428195,13.0141555 34.6843844,13.6444891 L34.6843844,27.1795501 C31.9237612,29.006218 29.027327,30.6186591 26.020208,32.0027938 L26.020208,6.95905359 C26.0204246,6.00228944 25.2449808,5.22639422 24.2882391,5.22617761 C24.2880225,5.22617761 24.2875893,5.22617761 24.2873727,5.22617761 L13.6442985,5.22617761 C12.6871236,1.5195559 8.90672684,-0.709355827 5.20019219,0.247624932 C1.49365754,1.20460569 -0.735201836,4.98530785 0.221756444,8.69192957 C1.17871472,12.3985513 4.95932808,14.627463 8.66586273,13.6704822 C11.1074276,13.0401486 13.0139796,11.1335518 13.6442985,8.69192957 L22.5545374,8.69192957 L22.5545374,33.493717 C19.7094385,34.616404 16.7880949,35.5356947 13.8126001,36.244441 C13.6057429,36.293828 13.4094993,36.3806884 13.2338331,36.5009066 L12.9123922,36.7209819 C12.4404112,37.0439466 12.157959,37.5787555 12.1577424,38.1508212 L12.1577424,43.0617917 C12.1923991,69.2338508 27.4842372,92.9826995 51.2955599,103.844366 C51.7512956,104.051878 52.2748284,104.051878 52.7305641,103.844366 C76.5418868,92.9826995 91.8335083,69.2338508 91.868165,43.0617917 L91.868165,38.1508212 C91.8679484,37.5787555 91.5854962,37.04373 91.1135152,36.7207653 L90.7920743,36.50069 C90.6164081,36.3804718 90.4203811,36.2936113 90.2133073,36.2442244 C88.431736,35.8220525 86.6722584,35.3132368 84.9370405,34.7409545 L84.9370405,22.5549374 L90.3816089,22.5549374 C91.3448487,26.2535445 95.1239459,28.4707594 98.8224662,27.5074969 C102.520986,26.5442345 104.738149,22.7650486 103.774909,19.0664414 C102.979105,16.0139804 100.220648,13.8855755 97.0664542,13.8905575 L97.0664542,13.8905575 Z M71.0739251,6.95905359 C71.0739251,5.04487546 72.6254625,3.49330164 74.5395957,3.49330164 C76.4537288,3.49330164 78.0052662,5.04487546 78.0052662,6.95905359 C78.0052662,8.87323172 76.4537288,10.4248055 74.5395957,10.4248055 C72.6263289,10.4226394 71.0760912,8.87236528 71.0739251,6.95905359 Z M32.9515491,6.95905359 C32.9515491,5.04487546 34.5030865,3.49330164 36.4172196,3.49330164 C38.3313528,3.49330164 39.8828902,5.04487546 39.8828902,6.95905359 C39.8828902,8.87323172 38.3313528,10.4248055 36.4172196,10.4248055 C34.5039529,10.4226394 32.9537151,8.87236528 32.9515491,6.95905359 Z M6.95901999,10.4248055 C5.04488682,10.4248055 3.49334944,8.87323172 3.49334944,6.95905359 C3.49334944,5.04487546 5.04488682,3.49330164 6.95901999,3.49330164 C8.87315315,3.49330164 10.4246905,5.04487546 10.4246905,6.95905359 C10.4225245,8.87236528 8.87207013,10.4226394 6.95901999,10.4248055 Z M88.4022778,43.0617917 C88.3697872,67.5900013 74.1997433,89.9014294 52.0127371,100.358469 C29.8257309,89.9014294 15.655687,67.5900013 15.6231964,43.0617917 L15.6231964,39.3683832 C30.600958,35.5684028 44.2301407,26.5316711 52.0127371,15.3314439 C59.7953335,26.5316711 73.4245162,35.5684028 88.4022778,39.3683832 L88.4022778,43.0617917 Z M97.0664542,24.2878134 C95.152321,24.2878134 93.6007837,22.7362395 93.6007837,20.8220614 C93.6007837,18.9078833 95.152321,17.3563095 97.0664542,17.3563095 C98.9805874,17.3563095 100.532125,18.9078833 100.532125,20.8220614 C100.529742,22.7353731 98.9795044,24.2856473 97.0664542,24.2878134 Z" id="Shape" fill="#000000"></path>
                    </g>
                </g>
            </g>
        </g>
    </g>
</svg>